<?xml version="1.0" standalone="no"?>
<!DOCTYPE svg PUBLIC "-//W3C//DTD SVG 1.1//EN" "http://www.w3.org/Graphics/SVG/1.1/DTD/svg11.dtd" >
<svg xmlns="http://www.w3.org/2000/svg" xmlns:xlink="http://www.w3.org/1999/xlink" version="1.1">
<metadata>
Created by FontForge 20170731 at Thu Oct 26 16:33:17 2006
 By Aleksey,,,
2005 Hans Reichel, published by FontShop International for the FontFont library.
</metadata>
<defs>
<font id="DaxlineCyr-Thin" horiz-adv-x="280" >
  <font-face 
    font-family="DaxlineCyr-Thin"
    font-weight="400"
    font-stretch="normal"
    units-per-em="1000"
    panose-1="2 0 5 3 2 0 0 2 0 4"
    ascent="800"
    descent="-200"
    x-height="539"
    cap-height="724"
    bbox="-279 -225 1200 935"
    underline-thickness="36"
    underline-position="-184"
    unicode-range="U+0020-22C5"
  />
<missing-glyph horiz-adv-x="500" 
d="M0 700h500v-700h-500v700zM420 650h-340l170 -255zM450 95v510l-170 -255zM420 50l-170 255l-170 -255h340zM50 95l170 255l-170 255v-510z" />
    <glyph glyph-name=".notdef" horiz-adv-x="500" 
d="M0 700h500v-700h-500v700zM420 650h-340l170 -255zM450 95v510l-170 -255zM420 50l-170 255l-170 -255h340zM50 95l170 255l-170 255v-510z" />
    <glyph glyph-name=".null" horiz-adv-x="0" 
 />
    <glyph glyph-name="nonmarkingreturn" horiz-adv-x="290" 
 />
    <glyph glyph-name="space" unicode=" " horiz-adv-x="290" 
 />
    <glyph glyph-name="exclam" unicode="!" horiz-adv-x="260" 
d="M147 216h-34l-5 508h44zM164 29q0 -14 -10 -24t-24 -10t-24 10t-10 24t10 24t24 10t24 -10t10 -24z" />
    <glyph glyph-name="quotedbl" unicode="&#x22;" horiz-adv-x="420" 
d="M322 420h-30l-8 297q8 13 23 13t23 -13zM128 420h-30l-8 297q8 13 23 13t23 -13z" />
    <glyph glyph-name="numbersign" unicode="#" horiz-adv-x="770" 
d="M541 475l-31 -218h140v-31h-145l-32 -226h-35l32 226h-211l-32 -226h-35l32 226h-140v31h145l31 218h-140v31h145l31 218h35l-31 -218h211l31 218h35l-31 -218h140v-31h-145zM295 475l-31 -218h211l31 218h-211z" />
    <glyph glyph-name="dollar" unicode="$" horiz-adv-x="594" 
d="M506 182q0 -44 -17 -78t-47.5 -58.5t-72 -38t-90.5 -16.5v-150h-40l10 149q-20 0 -42 3t-44.5 8t-44 11.5t-38.5 14.5l17 33q14 -7 34 -13t41.5 -11t43.5 -8t39 -3q96 0 153.5 40t57.5 117q0 36 -15 62t-39.5 45.5t-55.5 34t-63 27.5q-39 16 -76 34t-65.5 42t-46 55.5
t-17.5 73.5q0 40 15 71.5t41.5 54t63 35.5t79.5 16v143h40l-10 -142q44 -1 86 -12t68 -25l-16 -33q-23 14 -62 24.5t-81 10.5q-85 0 -134.5 -36.5t-49.5 -106.5q0 -36 16.5 -62t43 -46.5t59.5 -35.5t66 -28q36 -15 70.5 -32t62 -40.5t44 -55t16.5 -74.5z" />
    <glyph glyph-name="percent" unicode="%" horiz-adv-x="950" 
d="M870 215q0 -50 -9.5 -91.5t-27.5 -71t-45.5 -46t-63.5 -16.5t-63.5 16.5t-45.5 46t-27.5 71t-9.5 91.5t9.5 91.5t27.5 71t45.5 46t63.5 16.5t63.5 -16.5t45.5 -46t27.5 -71t9.5 -91.5zM358 -7l-34 12l268 726l34 -12zM372 509q0 -50 -9.5 -91.5t-27.5 -71t-45.5 -46
t-63.5 -16.5t-63.5 16.5t-45.5 46t-27.5 71t-9.5 91.5t9.5 91.5t27.5 71t45.5 46t63.5 16.5t63.5 -16.5t45.5 -46t27.5 -71t9.5 -91.5zM832 215q0 85 -27 138t-81 53t-81 -53t-27 -138t27 -138t81 -53t81 53t27 138zM334 509q0 85 -27 138t-81 53t-81 -53t-27 -138t27 -138
t81 -53t81 53t27 138z" />
    <glyph glyph-name="ampersand" unicode="&#x26;" horiz-adv-x="718" 
d="M534 410v-383q-15 -7 -37.5 -13.5t-48.5 -12t-54.5 -8.5t-56.5 -3q-62 0 -112.5 11t-86 34.5t-55 60t-19.5 88.5q0 83 50.5 132.5t131.5 71.5v2q-78 17 -112.5 62t-34.5 104q0 43 15.5 76.5t44 56t68.5 34t89 11.5q42 0 83 -10.5t71 -26.5l-15 -32q-13 7 -29.5 13.5
t-35 11t-37.5 7t-37 2.5q-82 0 -130 -35.5t-48 -107.5q0 -33 12.5 -59.5t34 -45.5t50.5 -29t63 -10q17 0 40.5 1.5t53.5 6.5l278 48l6 -34zM495 403l-179 -29q-109 -17 -161 -64t-52 -126q0 -44 16.5 -74.5t47 -49t74 -27t96.5 -8.5q22 0 45 2t44 6t39 8t30 9v353z" />
    <glyph glyph-name="quotesingle" unicode="'" horiz-adv-x="226" 
d="M128 420h-30l-8 297q8 13 23 13t23 -13z" />
    <glyph glyph-name="parenleft" unicode="(" horiz-adv-x="350" 
d="M274 -212q-39 52 -74.5 108.5t-62.5 118.5t-43 131.5t-16 149.5q0 79 16 149t43 132t62.5 118t74.5 109l30 -23q-36 -48 -69.5 -102t-59.5 -114t-41.5 -127t-15.5 -142t15.5 -142t41.5 -127t59.5 -114t69.5 -102z" />
    <glyph glyph-name="parenright" unicode=")" horiz-adv-x="350" 
d="M272 296q0 -80 -16 -149.5t-43 -131.5t-62.5 -118.5t-74.5 -108.5l-30 23q36 48 69.5 102t59.5 114t41.5 127t15.5 142t-15.5 142t-41.5 127t-59.5 114t-69.5 102l30 23q39 -53 74.5 -109t62.5 -118t43 -132t16 -149z" />
    <glyph glyph-name="asterisk" unicode="*" horiz-adv-x="600" 
d="M530 625q0 -8 -4 -16l-198 -58l124 -160q-1 -9 -7.5 -17.5t-17.5 -8.5q-6 0 -9 1l-113 168l-113 -168q-3 -1 -9 -1q-11 0 -17.5 8.5t-7.5 17.5l124 160l-198 58q-4 8 -4 16q0 15 17 22l192 -69l-5 207q9 10 21 10t21 -10l-5 -207l192 69q17 -7 17 -22z" />
    <glyph glyph-name="plus" unicode="+" horiz-adv-x="580" 
d="M309 307v-196h-38v196h-191v36h191v196h38v-196h191v-36h-191z" />
    <glyph glyph-name="comma" unicode="," horiz-adv-x="236" 
d="M55 -169h-33l82 217q5 7 11.5 11t16.5 4t15 -4.5t7 -10.5z" />
    <glyph glyph-name="hyphen" unicode="-" horiz-adv-x="420" 
d="M80 305v40h260v-40h-260z" />
    <glyph glyph-name="period" unicode="." horiz-adv-x="236" 
d="M152 29q0 -14 -10 -24t-24 -10t-24 10t-10 24t10 24t24 10t24 -10t10 -24z" />
    <glyph glyph-name="slash" unicode="/" horiz-adv-x="440" 
d="M50 -191l-36 14l340 970l36 -14z" />
    <glyph glyph-name="zero" unicode="0" horiz-adv-x="572" 
d="M506 270q0 -59 -13.5 -110t-41 -89t-69 -59.5t-96.5 -21.5q-56 0 -97 21.5t-68.5 59.5t-41 89t-13.5 110t13.5 110t41 88.5t68.5 59t97 21.5q55 0 96.5 -21.5t69 -59t41 -88.5t13.5 -110zM467 270q0 52 -10.5 96.5t-33 77.5t-56.5 51.5t-81 18.5t-81 -18.5t-56.5 -51.5
t-33 -77.5t-10.5 -96.5t10.5 -96.5t33 -77.5t56.5 -52t81 -19t81 19t56.5 52t33 77.5t10.5 96.5z" />
    <glyph glyph-name="one" unicode="1" horiz-adv-x="402" 
d="M255 0v482q-16 -12 -40 -24t-52 -23t-58.5 -20.5t-60.5 -15.5l-8 35q31 6 64.5 17t65 25t57 30t40.5 33h31v-539h-39z" />
    <glyph glyph-name="two" unicode="2" horiz-adv-x="498" 
d="M32 0l267 255q34 32 59 67t25 73q0 53 -37 86t-115 33q-42 0 -82.5 -9.5t-71.5 -23.5l-17 31q35 17 80.5 27t90.5 10q48 0 84 -11.5t60 -32.5t35.5 -49t11.5 -61q0 -46 -28 -87t-68 -78l-209 -194h329v-36h-414z" />
    <glyph glyph-name="three" unicode="3" horiz-adv-x="478" 
d="M424 34q0 -46 -17.5 -83.5t-48.5 -64t-74.5 -41t-94.5 -14.5q-42 0 -86 9t-77 26l14 33q29 -15 70 -24t79 -9q43 0 79 11.5t62 33.5t40.5 53t14.5 70q0 43 -18 74.5t-48.5 52t-71 30.5t-86.5 10q-3 0 -7 -0.5t-7 -0.5h-7v32q42 3 81 15.5t68 32.5t46.5 48t17.5 61
q0 64 -42 94.5t-113 30.5q-35 0 -73 -9.5t-66 -23.5l-17 31q31 17 73 27t83 10q88 0 141 -41.5t53 -118.5q0 -34 -14.5 -61.5t-37 -48.5t-49.5 -34.5t-53 -19.5v-2q30 -5 63 -17t60 -34t45 -56t18 -82z" />
    <glyph glyph-name="four" unicode="4" horiz-adv-x="574" 
d="M440 0v-159h-37v159h-347v33l341 506h43v-507h82v-32h-82zM404 499q-7 -13 -15 -27q-7 -12 -16 -27t-19 -30l-258 -383h308v406q0 17 1 31q0 16 1 30h-2z" />
    <glyph glyph-name="five" unicode="5" horiz-adv-x="490" 
d="M436 39q0 -46 -17 -84t-48 -65.5t-74.5 -43t-96.5 -15.5q-48 0 -91.5 10.5t-70.5 24.5l14 33q12 -6 29 -12t37 -10.5t41 -7.5t41 -3q43 0 79 12.5t62.5 35t41 54.5t14.5 71q0 82 -53 130.5t-171 48.5q-22 0 -46.5 -2t-51.5 -6l35 329h311v-36h-276l-28 -255q17 2 33.5 3
t32.5 1q128 0 190.5 -58.5t62.5 -154.5z" />
    <glyph glyph-name="six" unicode="6" horiz-adv-x="572" 
d="M507 200q0 -41 -15.5 -78.5t-43.5 -67t-68.5 -47t-89.5 -17.5q-55 0 -97 20.5t-70 55.5t-42 81.5t-14 99.5q0 66 22.5 136t67.5 133t113.5 113.5t160.5 77.5l14 -34q-64 -18 -115.5 -49t-91.5 -70t-67.5 -84t-43.5 -93q29 14 69 22.5t78 8.5q51 0 94 -13.5t73.5 -40
t48 -65.5t17.5 -89zM468 200q0 43 -14.5 75.5t-40 54.5t-61.5 32.5t-78 10.5q-18 0 -39 -2.5t-42.5 -7t-41.5 -11t-35 -13.5q-11 -49 -11 -93q0 -46 11.5 -86t35 -70t58 -47.5t80.5 -17.5q40 0 73 14.5t56.5 39t36 56t12.5 65.5z" />
    <glyph glyph-name="seven" unicode="7" horiz-adv-x="520" 
d="M151 -159h-43l313 662h-375v36h432z" />
    <glyph glyph-name="eight" unicode="8" horiz-adv-x="572" 
d="M506 163q0 -39 -16.5 -71t-46 -54.5t-69.5 -35t-88 -12.5t-88 12.5t-69.5 35t-46 54.5t-16.5 71q0 43 15.5 74.5t40.5 55t57.5 40t67.5 31.5q-32 14 -60.5 29.5t-50.5 36.5t-35 48.5t-13 65.5q0 36 14 66.5t39.5 52t62 33.5t82.5 12t82.5 -12t62 -33.5t39.5 -52t14 -66.5
q0 -38 -13 -65.5t-35 -48.5t-51 -36.5t-60 -29.5q34 -15 67 -31.5t58 -40t40.5 -55t15.5 -74.5zM446 544q0 59 -41 94.5t-119 35.5t-119 -35.5t-41 -94.5q0 -33 13 -57.5t35.5 -43.5t51 -33.5t60.5 -27.5q31 13 60 27.5t51.5 33.5t35.5 43.5t13 57.5zM468 163q0 40 -15.5 68
t-41 48.5t-58.5 36t-67 30.5q-35 -15 -67.5 -30.5t-58 -36t-41 -48.5t-15.5 -68q0 -32 13 -57.5t37 -43.5t57.5 -28t74.5 -10t74.5 10t57.5 28t37 43.5t13 57.5z" />
    <glyph glyph-name="nine" unicode="9" horiz-adv-x="572" 
d="M505 292q0 -66 -22.5 -136t-67.5 -133t-113.5 -113.5t-160.5 -77.5l-14 34q64 18 115.5 49t91.5 70t67.5 84t43.5 93q-29 -14 -69 -22.5t-78 -8.5q-51 0 -94 13.5t-73.5 40t-48 65.5t-17.5 89q0 40 15.5 78t43.5 67.5t68 47t90 17.5q55 0 97 -20.5t70 -55.5t42 -81.5
t14 -99.5zM467 293q0 46 -12 86t-35 70t-57.5 47.5t-80.5 17.5q-41 0 -73.5 -14.5t-56 -39t-36 -56t-12.5 -65.5q0 -44 14.5 -76t40 -54t61.5 -32.5t78 -10.5q18 0 39 2.5t42.5 7t41.5 11t35 13.5q11 49 11 93z" />
    <glyph glyph-name="colon" unicode=":" horiz-adv-x="264" 
d="M166 349q0 -14 -10 -24t-24 -10t-24 10t-10 24t10 24t24 10t24 -10t10 -24zM166 29q0 -14 -10 -24t-24 -10t-24 10t-10 24t10 24t24 10t24 -10t10 -24z" />
    <glyph glyph-name="semicolon" unicode=";" horiz-adv-x="264" 
d="M166 349q0 -14 -10 -24t-24 -10t-24 10t-10 24t10 24t24 10t24 -10t10 -24zM69 -169h-33l82 217q5 7 11.5 11t16.5 4t15 -4.5t7 -10.5z" />
    <glyph glyph-name="less" unicode="&#x3c;" horiz-adv-x="580" 
d="M80 310v30l420 207v-41l-378 -181l378 -181v-41z" />
    <glyph glyph-name="equal" unicode="=" horiz-adv-x="580" 
d="M80 401v36h420v-36h-420zM80 213v36h420v-36h-420z" />
    <glyph glyph-name="greater" unicode="&#x3e;" horiz-adv-x="580" 
d="M80 103v41l378 181l-378 181v41l420 -207v-30z" />
    <glyph glyph-name="question" unicode="?" horiz-adv-x="458" 
d="M402 558q0 -38 -17 -69t-42.5 -55.5t-56.5 -41.5t-58 -26l-3 -150h-34l-3 174q32 9 63 24t55.5 36t39.5 48t15 60q0 65 -41 102.5t-122 37.5q-40 0 -80 -9.5t-66 -23.5l-16 32q28 16 72.5 26.5t89.5 10.5q100 0 152 -49t52 -127zM242 29q0 -14 -10 -24t-24 -10t-24 10
t-10 24t10 24t24 10t24 -10t10 -24z" />
    <glyph glyph-name="at" unicode="@" horiz-adv-x="1036" 
d="M966 335q0 -89 -26.5 -154t-72.5 -107.5t-109 -63t-136 -20.5q-144 0 -224.5 69.5t-80.5 203.5q0 59 17 107.5t47.5 82.5t73.5 52.5t95 18.5q51 0 86.5 -14.5t56.5 -31.5v-448q114 22 174.5 97.5t60.5 207.5q0 71 -21.5 137t-67.5 116.5t-119.5 81t-176.5 30.5
q-104 0 -184.5 -35.5t-136.5 -96.5t-85 -142.5t-29 -172.5t29.5 -172t90 -141.5t152.5 -95.5t218 -35q102 0 181.5 27t134.5 66l18 -29q-57 -42 -139 -70t-195 -28q-134 0 -233.5 38t-165 103.5t-97.5 152t-32 184.5q0 97 32 184.5t92.5 153.5t148.5 104.5t200 38.5
t192.5 -34t131.5 -89.5t75 -127.5t24 -148zM655 463q-14 9 -43 18t-62 9q-44 0 -80 -15.5t-61.5 -45t-39.5 -71.5t-14 -95q0 -122 71.5 -180.5t197.5 -58.5h15.5t15.5 1v438z" />
    <glyph glyph-name="A" unicode="A" horiz-adv-x="650" 
d="M576 0l-91 247h-320l-91 -247h-42l272 724h42l272 -724h-42zM350 612q-5 14 -9.5 28.5t-7.5 25.5q-4 13 -7 26h-2q-3 -13 -7 -26q-3 -11 -7.5 -25.5t-9.5 -28.5l-122 -331h294z" />
    <glyph glyph-name="B" unicode="B" horiz-adv-x="600" 
d="M538 188q0 -46 -18 -82.5t-51.5 -62t-82 -39.5t-108.5 -14q-24 0 -50 3t-51 8t-47 11.5t-38 14.5v670q32 16 80.5 26.5t101.5 10.5q112 0 173.5 -49.5t61.5 -131.5q0 -39 -12.5 -69t-32 -51.5t-42.5 -34.5t-44 -18v-2q24 -5 52 -17.5t52 -35t40 -56t16 -81.5zM470 553
q0 69 -52.5 107.5t-143.5 38.5q-42 0 -80.5 -6.5t-62.5 -17.5v-282h120q32 0 55 1t41 5t32.5 10.5t30.5 17.5q27 19 43.5 52.5t16.5 73.5zM499 188q0 50 -21.5 86.5t-64.5 57.5q-16 8 -31.5 13t-33.5 8t-40 4.5t-52 1.5h-125v-310q26 -11 67.5 -17.5t79.5 -6.5
q104 0 162.5 43t58.5 120z" />
    <glyph glyph-name="C" unicode="C" horiz-adv-x="554" 
d="M498 27q-24 -17 -63.5 -27t-88.5 -10q-56 0 -106.5 22.5t-89 68t-61.5 115.5t-23 166t23 166t61.5 115.5t89 68t106.5 22.5q49 0 88.5 -10t63.5 -27l-15 -33q-20 14 -56 24t-81 10q-48 0 -91 -19.5t-76 -60.5t-52.5 -104.5t-19.5 -151.5t19.5 -151.5t52.5 -104.5
t76 -60.5t91 -19.5q45 0 81 10t56 24z" />
    <glyph glyph-name="D" unicode="D" horiz-adv-x="640" 
d="M574 362q0 -95 -25 -165t-67 -116t-97.5 -68.5t-116.5 -22.5q-56 0 -104 11t-74 26v670q33 17 78.5 27t99.5 10q61 0 116.5 -22.5t97.5 -68.5t67 -116t25 -165zM534 362q0 88 -21.5 151.5t-58 104.5t-84.5 60.5t-102 19.5q-41 0 -78 -6t-60 -17v-626q18 -10 55.5 -16.5
t82.5 -6.5q54 0 102 19.5t84.5 60.5t58 104.5t21.5 151.5z" />
    <glyph glyph-name="E" unicode="E" horiz-adv-x="510" 
d="M90 0v724h366v-36h-327v-294h304v-36h-304v-322h327v-36h-366z" />
    <glyph glyph-name="F" unicode="F" horiz-adv-x="494" 
d="M129 688v-294h295v-36h-295v-358h-39v724h356v-36h-317z" />
    <glyph glyph-name="G" unicode="G" horiz-adv-x="650" 
d="M564 27q-26 -15 -73 -26t-113 -11q-62 0 -118 22.5t-99.5 68.5t-69 116t-25.5 165t25.5 165t69 116t99.5 68.5t118 22.5q54 0 98.5 -10t70.5 -27l-17 -32q-22 14 -62.5 23.5t-89.5 9.5q-53 0 -102.5 -19.5t-87 -61t-60 -105t-22.5 -150.5q0 -88 22.5 -151.5t60 -104.5
t87 -60.5t102.5 -19.5q50 0 91 7.5t55 16.5v308h-191v36h231v-367z" />
    <glyph glyph-name="H" unicode="H" horiz-adv-x="640" 
d="M510 0v358h-380v-358h-40v724h40v-330h380v330h40v-724h-40z" />
    <glyph glyph-name="I" unicode="I" horiz-adv-x="224" 
d="M92 0v724h40v-724h-40z" />
    <glyph glyph-name="J" unicode="J" horiz-adv-x="224" 
d="M132 80q0 -66 -14.5 -115.5t-41 -85.5t-64.5 -60t-86 -37v38q78 26 122 86.5t44 173.5v644h40v-644z" />
    <glyph glyph-name="K" unicode="K" horiz-adv-x="548" 
d="M475 0l-341 381h-2v-381h-40v724h40v-341h2l333 341h52l-336 -342l343 -382h-51z" />
    <glyph glyph-name="L" unicode="L" horiz-adv-x="482" 
d="M92 0v724h40v-688h312v-36h-352z" />
    <glyph glyph-name="M" unicode="M" horiz-adv-x="866" 
d="M761 0l-83 612q-2 14 -3 28.5t-3 25.5q-2 13 -3 26h-2q-2 -13 -6 -26q-3 -11 -7 -25l-8 -28l-192 -613h-42l-192 613q-5 14 -8.5 28t-6.5 25q-4 13 -6 26h-2q-1 -13 -3 -26q-2 -11 -3 -25.5t-3 -28.5l-83 -612h-39l101 724h55l189 -601q5 -14 8.5 -29t6.5 -27
q4 -14 6 -27h2q2 13 6 27q3 12 6.5 27t8.5 29l189 601h55l101 -724h-39z" />
    <glyph glyph-name="N" unicode="N" horiz-adv-x="702" 
d="M562 0l-393 617q-8 13 -15 26t-13 24q-7 12 -13 25h-2q0 -13 1 -27q0 -12 0.5 -27.5t0.5 -29.5v-608h-38v724h54l387 -608q8 -13 15.5 -26t13.5 -24q7 -12 13 -24h2q-1 13 -1 27v655h38v-724h-50z" />
    <glyph glyph-name="O" unicode="O" horiz-adv-x="682" 
d="M616 362q0 -76 -18 -143.5t-53 -118.5t-87 -80.5t-119 -29.5q-68 0 -119 29.5t-85 80.5t-51.5 118.5t-17.5 143.5t17.5 143.5t51.5 118.5t85 80.5t119 29.5q67 0 119 -29.5t87 -80.5t53 -118.5t18 -143.5zM576 362q0 68 -15.5 129t-45.5 107t-74 73t-102 27t-101.5 -27
t-73 -73t-44 -107t-14.5 -129t14.5 -129t44 -107t73 -73t101.5 -27t102 27t74 73t45.5 107t15.5 129z" />
    <glyph glyph-name="P" unicode="P" horiz-adv-x="552" 
d="M504 523q0 -47 -18.5 -85.5t-53.5 -66t-86 -43t-116 -15.5q-26 0 -54 2t-46 5v-320h-40v697q34 17 78.5 27t94.5 10q116 0 178.5 -56.5t62.5 -154.5zM464 523q0 85 -52 130t-149 45q-40 0 -75 -6.5t-58 -16.5v-319q19 -3 46 -5t54 -2q113 0 173.5 48t60.5 126z" />
    <glyph glyph-name="Q" unicode="Q" horiz-adv-x="682" 
d="M585 -179l-139 192q-48 -23 -107 -23q-68 0 -119 29.5t-85 80.5t-51.5 118.5t-17.5 143.5t17.5 143.5t51.5 118.5t85 80.5t119 29.5q67 0 119 -29.5t87 -80.5t53 -118.5t18 -143.5q0 -53 -9 -102.5t-26.5 -92t-43 -77t-59.5 -58.5l138 -188zM576 362q0 68 -15.5 129
t-45.5 107t-74 73t-102 27t-101.5 -27t-73 -73t-44 -107t-14.5 -129t14.5 -129t44 -107t73 -73t101.5 -27t102 27t74 73t45.5 107t15.5 129z" />
    <glyph glyph-name="R" unicode="R" horiz-adv-x="588" 
d="M497 0l-132 247q-24 45 -57 68.5t-86 23.5h-91v-339h-39v696q34 17 81.5 27.5t95.5 10.5q59 0 104 -15t75 -41t45.5 -61t15.5 -76q0 -47 -14 -81t-39 -57t-60 -36.5t-77 -18.5v-2q27 -11 48 -34.5t38 -56.5l137 -255h-45zM470 541q0 70 -50 114t-151 44q-39 0 -76.5 -6.5
t-61.5 -17.5v-302h111q52 0 94 8.5t72 28t46 52t16 79.5z" />
    <glyph glyph-name="S" unicode="S" horiz-adv-x="524" 
d="M459 185q0 -46 -18 -82.5t-50 -61.5t-75.5 -38t-93.5 -13q-48 0 -91 10t-74 27l17 34q25 -14 64.5 -24.5t83.5 -10.5q42 0 78.5 10.5t62.5 30.5t41 50t15 68q0 34 -14 59.5t-36.5 44.5t-51.5 34t-59 28q-37 16 -72 33.5t-62 41t-43.5 54.5t-16.5 73q0 43 16 76.5
t44.5 56.5t67.5 35.5t84 12.5q47 0 87 -11t63 -26l-17 -34q-22 14 -58 24.5t-75 10.5q-37 0 -68.5 -9.5t-54.5 -28t-36 -45.5t-13 -62q0 -34 15.5 -59.5t40 -45.5t55.5 -35t62 -28q34 -15 66.5 -31.5t58 -40t41.5 -54.5t16 -74z" />
    <glyph glyph-name="T" unicode="T" horiz-adv-x="514" 
d="M277 688v-688h-40v688h-203v36h446v-36h-203z" />
    <glyph glyph-name="U" unicode="U" horiz-adv-x="628" 
d="M538 201q0 -49 -17.5 -88t-47.5 -66.5t-71 -42t-88 -14.5t-88 14.5t-71 42t-47.5 66.5t-17.5 88v523h40v-523q0 -41 14.5 -73.5t39.5 -55t58.5 -34.5t71.5 -12t71.5 12t58.5 34.5t39.5 55t14.5 73.5v523h40v-523z" />
    <glyph glyph-name="V" unicode="V" horiz-adv-x="608" 
d="M326 0h-44l-243 724h42l195 -592l10 -32t9 -30q4 -16 8 -30h2q4 14 8 30q4 14 9 30l10 32l195 592h42z" />
    <glyph glyph-name="W" unicode="W" horiz-adv-x="904" 
d="M666 0h-44l-151 591q-5 17 -8 33t-5 30l-5 30h-2l-5 -30q-2 -14 -5.5 -30t-7.5 -33l-151 -591h-44l-187 724h40l149 -588q4 -17 7.5 -33.5t6.5 -30.5q4 -17 6 -32h2q2 15 6 32q3 14 6 30.5t8 33.5l149 588h42l149 -588q4 -17 7.5 -33.5t6.5 -30.5q4 -17 6 -32h2
q2 15 6 32q3 14 6 30.5t8 33.5l149 588h40z" />
    <glyph glyph-name="X" unicode="X" horiz-adv-x="572" 
d="M490 0l-203 341h-2l-203 -341h-44l225 374l-211 350h44l189 -317h2l189 317h44l-211 -350l225 -374h-44z" />
    <glyph glyph-name="Y" unicode="Y" horiz-adv-x="600" 
d="M320 295v-295h-40v295l-244 429h45l218 -388h2l218 388h45z" />
    <glyph glyph-name="Z" unicode="Z" horiz-adv-x="514" 
d="M36 0l362 688h-347v36h409l-362 -688h366v-36h-428z" />
    <glyph glyph-name="bracketleft" unicode="[" horiz-adv-x="350" 
d="M100 -195v980h190v-34h-152v-912h152v-34h-190z" />
    <glyph glyph-name="backslash" unicode="\" horiz-adv-x="440" 
d="M390 -191l-340 970l36 14l340 -970z" />
    <glyph glyph-name="bracketright" unicode="]" horiz-adv-x="350" 
d="M60 -195v34h152v912h-152v34h190v-980h-190z" />
    <glyph glyph-name="asciicircum" unicode="^" horiz-adv-x="564" 
d="M437 469l-155 185l-155 -185l-27 24l158 188q10 12 24 12q8 0 13.5 -3t10.5 -9l158 -188z" />
    <glyph glyph-name="underscore" unicode="_" horiz-adv-x="580" 
d="M-4 -184v36h588v-36h-588z" />
    <glyph glyph-name="grave" unicode="`" 
d="M143 604l-93 130q2 8 8 12t14 4t16 -4t14 -12l76 -130h-35z" />
    <glyph glyph-name="a" unicode="a" horiz-adv-x="518" 
d="M434 27q-14 -8 -33.5 -14.5t-43 -11.5t-48 -8t-48.5 -3q-102 0 -153.5 43t-51.5 115q0 60 30 95.5t78.5 54.5t109.5 26t122 10v52q0 38 -11.5 63t-32 39.5t-48 20.5t-59.5 6q-37 0 -77.5 -10t-65.5 -24l-13 31q28 14 70.5 25.5t85.5 11.5q40 0 74.5 -8.5t60 -28t40 -50.5
t14.5 -76v-359zM396 301q-51 -3 -105 -8t-97.5 -20t-71.5 -44t-28 -81q0 -56 40.5 -90t126.5 -34q19 0 39 2t38.5 5t33.5 7t24 9v254z" />
    <glyph glyph-name="b" unicode="b" horiz-adv-x="544" 
d="M482 276q0 -77 -19.5 -131t-53 -88.5t-78 -50.5t-94.5 -16q-44 0 -84 10t-69 27v758h38v-265q23 12 57.5 19.5t70.5 7.5q52 0 95 -19t73.5 -54.5t47 -85.5t16.5 -112zM444 276q0 55 -14 99t-39.5 75t-61.5 47t-79 16q-34 0 -69.5 -7.5t-58.5 -19.5v-439q17 -8 48.5 -15.5
t66.5 -7.5q42 0 79.5 13t66 43t45 78t16.5 118z" />
    <glyph glyph-name="c" unicode="c" horiz-adv-x="462" 
d="M410 27q-24 -17 -57 -27t-68 -10q-39 0 -79 15t-72 48.5t-52 86.5t-20 130q0 76 20 129.5t52 86.5t72 48t79 15q35 0 68.5 -10.5t56.5 -26.5l-16 -30q-21 14 -50 23.5t-59 9.5q-32 0 -65 -12.5t-59.5 -41t-43 -75.5t-16.5 -116t16.5 -116t43 -76t59.5 -41.5t65 -12.5
q30 0 59 9.5t50 23.5z" />
    <glyph glyph-name="d" unicode="d" horiz-adv-x="544" 
d="M460 27q-10 -7 -26.5 -13.5t-37 -12t-43.5 -8.5t-46 -3q-58 0 -103.5 20t-77 55.5t-48 85t-16.5 109.5q0 61 16.5 113.5t48 90t77.5 59t105 21.5q34 0 65 -5.5t48 -11.5v258h38v-758zM422 493q-8 3 -20.5 6t-28 5.5t-32.5 4t-32 1.5q-51 0 -90.5 -19t-65.5 -52.5
t-39.5 -79t-13.5 -99.5q0 -52 13.5 -95.5t39.5 -74.5t65 -48.5t89 -17.5q16 0 33.5 2t33 5.5t28.5 7.5t20 8v446z" />
    <glyph glyph-name="e" unicode="e" horiz-adv-x="548" 
d="M486 331v-14q0 -6 -1 -14l-386 -58q5 -110 60.5 -165.5t148.5 -55.5q41 0 80 9.5t64 24.5l15 -31q-26 -16 -68 -26.5t-91 -10.5q-55 0 -100.5 17.5t-77.5 52.5t-50 87.5t-18 122.5q0 62 15.5 113.5t44.5 88t70.5 57t92.5 20.5q45 0 82 -14t63.5 -42t41 -68.5t14.5 -93.5z
M449 330q-1 96 -46 140.5t-118 44.5q-44 0 -78 -17t-58 -48.5t-37 -75t-14 -96.5z" />
    <glyph glyph-name="f" unicode="f" horiz-adv-x="332" 
d="M298 751q-29 0 -54.5 -7.5t-44 -23.5t-29 -40.5t-10.5 -57.5v-83h132v-30h-132v-509h-37v509h-83v30h83v83q0 41 14 71.5t37.5 51t54.5 30.5t66 10h7v-34h-4z" />
    <glyph glyph-name="g" unicode="g" horiz-adv-x="544" 
d="M460 -10q0 -101 -53 -158t-155 -57q-22 0 -44.5 3.5t-44 8.5t-40 12t-31.5 14l16 31q25 -14 65 -24.5t79 -10.5q85 0 127.5 46.5t42.5 134.5v57q-23 -12 -57.5 -19.5t-70.5 -7.5q-50 0 -92.5 17t-73.5 49.5t-48.5 80.5t-17.5 110q0 73 19.5 124.5t53.5 84.5t78 48t94 15
q44 0 84 -10t69 -27v-522zM422 492q-17 8 -48.5 15.5t-66.5 7.5q-42 0 -79.5 -12.5t-66 -41t-45 -74t-16.5 -110.5q0 -56 14.5 -97.5t40.5 -69.5t61.5 -42t77.5 -14q34 0 69.5 7.5t58.5 19.5v411z" />
    <glyph glyph-name="h" unicode="h" horiz-adv-x="550" 
d="M428 0v372q0 72 -44.5 107t-119.5 35q-36 0 -74.5 -11.5t-67.5 -28.5v-474h-38v785h38v-275q29 16 66.5 27t75.5 11q92 0 147 -45t55 -131v-372h-38z" />
    <glyph glyph-name="i" unicode="i" horiz-adv-x="218" 
d="M141 700q0 -14 -9 -23t-23 -9t-23 9t-9 23t9 23t23 9t23 -9t9 -23zM90 0v539h38v-539h-38z" />
    <glyph glyph-name="j" unicode="j" horiz-adv-x="218" 
d="M128 47q0 -60 -15.5 -105.5t-41 -78t-58.5 -53t-69 -30.5v36q29 10 55.5 28.5t46.5 47t32 67t12 88.5v492h38v-492zM141 700q0 -14 -9 -23t-23 -9t-23 9t-9 23t9 23t23 9t23 -9t9 -23z" />
    <glyph glyph-name="k" unicode="k" horiz-adv-x="492" 
d="M420 0l-293 281h-2v-281h-37v785h37v-502h2l280 256h52l-283 -258l296 -281h-52z" />
    <glyph glyph-name="l" unicode="l" horiz-adv-x="218" 
d="M90 0v785h38v-785h-38z" />
    <glyph glyph-name="m" unicode="m" horiz-adv-x="858" 
d="M736 0v382q0 64 -40 98.5t-100 34.5q-48 0 -86 -16t-62 -45v-454h-38v400q0 54 -43 84.5t-111 30.5q-40 0 -74 -6.5t-60 -17.5v-491h-38v512q37 17 80.5 27t91.5 10q61 0 104.5 -20t63.5 -49q25 26 69 47.5t103 21.5q39 0 71.5 -12t56.5 -33.5t37 -52.5t13 -69v-382h-38z
" />
    <glyph glyph-name="n" unicode="n" horiz-adv-x="550" 
d="M428 0v372q0 66 -40 104.5t-121 38.5q-45 0 -82.5 -7t-62.5 -17v-491h-38v512q35 17 82.5 27t100.5 10q96 0 147.5 -47t51.5 -130v-372h-38z" />
    <glyph glyph-name="o" unicode="o" horiz-adv-x="556" 
d="M494 270q0 -60 -13.5 -111t-40.5 -88.5t-67.5 -59t-94.5 -21.5t-94.5 21.5t-67.5 59t-40.5 88.5t-13.5 111t13.5 111t40.5 88.5t67.5 58.5t94.5 21t94.5 -21t67.5 -58.5t40.5 -88.5t13.5 -111zM456 270q0 52 -11 96.5t-33 77.5t-55.5 52t-78.5 19t-78.5 -19t-55.5 -52
t-33 -77.5t-11 -96.5t11 -97t33 -78t55.5 -52t78.5 -19t78.5 19t55.5 52t33 78t11 97z" />
    <glyph glyph-name="p" unicode="p" horiz-adv-x="544" 
d="M482 278q0 -62 -16.5 -114t-48 -90t-77.5 -59.5t-105 -21.5q-34 0 -65 5.5t-48 11.5v-225h-38v727q12 7 29 13.5t37.5 11.5t43 8.5t43.5 3.5q58 0 103.5 -20t77 -56t48 -85.5t16.5 -109.5zM444 278q0 52 -13.5 95.5t-40 75t-65 49t-88.5 17.5q-34 0 -66.5 -7.5
t-48.5 -15.5v-448q7 -3 20 -6t28.5 -5.5t32.5 -4t32 -1.5q51 0 90.5 19t65.5 53t39.5 79.5t13.5 99.5z" />
    <glyph glyph-name="q" unicode="q" horiz-adv-x="544" 
d="M422 -215v234q-23 -12 -57.5 -19.5t-70.5 -7.5q-52 0 -95 19t-73.5 54t-47 85.5t-16.5 112.5q0 76 19.5 130.5t53 89t78 50.5t94.5 16q44 0 84 -10t69 -27v-727h-38zM422 492q-17 8 -48.5 15.5t-66.5 7.5q-42 0 -79.5 -13t-66 -43t-45 -78t-16.5 -118q0 -56 14 -99.5
t39.5 -74.5t61.5 -47t79 -16q34 0 69.5 7.5t58.5 19.5v439z" />
    <glyph glyph-name="r" unicode="r" horiz-adv-x="336" 
d="M291 513q-5 1 -14 1.5t-20 0.5q-36 0 -74 -6.5t-61 -17.5v-491h-38v512q32 16 80.5 26.5t95.5 10.5q10 0 20 -0.5t20 -1.5z" />
    <glyph glyph-name="s" unicode="s" horiz-adv-x="444" 
d="M384 134q0 -65 -49.5 -104.5t-134.5 -39.5q-38 0 -78.5 10t-69.5 27l17 31q23 -14 59.5 -24t71.5 -10q66 0 105.5 29.5t39.5 80.5q0 27 -10 46t-27.5 33.5t-42 25.5t-52.5 22q-31 12 -58 25t-46.5 30.5t-31 41.5t-11.5 57q0 28 11 52.5t31.5 42.5t51 28.5t69.5 10.5
q41 0 76 -10.5t59 -26.5l-17 -31q-20 14 -51.5 24t-66.5 10q-60 0 -92.5 -29t-32.5 -71q0 -27 9.5 -45.5t26 -32t39 -23.5t49.5 -20q33 -12 61.5 -25.5t49.5 -31.5t33 -42.5t12 -60.5z" />
    <glyph glyph-name="t" unicode="t" horiz-adv-x="332" 
d="M288 0q-9 -4 -32 -4q-28 0 -52 7.5t-42 23.5t-28.5 39.5t-10.5 55.5v387h-87v30h87v138l37 17v-155h128v-30h-128v-387q0 -24 8 -41.5t21 -29t30.5 -16.5t36.5 -5q9 0 17.5 1t14.5 3v-34z" />
    <glyph glyph-name="u" unicode="u" horiz-adv-x="540" 
d="M456 27q-28 -15 -76 -26t-105 -11q-91 0 -141 44.5t-50 135.5v369h38v-369q0 -146 153 -146q47 0 85 7.5t58 16.5v491h38v-512z" />
    <glyph glyph-name="v" unicode="v" horiz-adv-x="526" 
d="M284 0h-42l-200 539h39l156 -423l17 -51q4 -13 8 -25h2q4 12 8 25q4 11 8 24.5t9 26.5l156 423h39z" />
    <glyph glyph-name="w" unicode="w" horiz-adv-x="814" 
d="M596 0h-38l-133 434q-4 12 -7 24t-5 22q-3 11 -5 23h-2q-2 -12 -5 -23q-2 -10 -5 -22t-7 -24l-133 -434h-38l-170 539h38l131 -425q4 -13 7 -26t6 -24l6 -26h2q2 13 6 26q2 11 5.5 24t7.5 26l129 425h42l129 -425q4 -13 7 -26t6 -24l6 -26h2q2 13 6 26q2 11 5.5 24
t7.5 26l131 425h38z" />
    <glyph glyph-name="x" unicode="x" horiz-adv-x="490" 
d="M411 0l-165 251h-2l-165 -251h-43l187 280l-173 259h43l151 -229h2l151 229h43l-173 -259l187 -280h-43z" />
    <glyph glyph-name="y" unicode="y" horiz-adv-x="526" 
d="M202 -215h-39l81 215l-202 539h39l161 -438q5 -12 8 -24t6 -22l6 -22h2q2 11 6 22q3 10 6 22t8 24l161 438h39z" />
    <glyph glyph-name="z" unicode="z" horiz-adv-x="454" 
d="M38 0l296 505h-282v34h343l-295 -505h306v-34h-368z" />
    <glyph glyph-name="braceleft" unicode="{" horiz-adv-x="350" 
d="M254 -195q-64 0 -101.5 38t-37.5 107q0 37 3 61t7 45t7 43t3 57q0 53 -23 84.5t-64 36.5v36q41 5 64 36.5t23 84.5q0 34 -3 56.5t-7 43.5t-7 44.5t-3 61.5q0 69 37.5 107t101.5 38h24v-34h-24q-48 0 -74.5 -28.5t-26.5 -82.5q0 -38 3 -61.5t7 -44.5t7 -43.5t3 -56.5
q0 -57 -22.5 -91t-57.5 -47v-2q35 -13 57.5 -47t22.5 -91q0 -35 -3 -57t-7 -43t-7 -45t-3 -61q0 -54 26.5 -82.5t74.5 -28.5h24v-34h-24z" />
    <glyph glyph-name="bar" unicode="|" horiz-adv-x="218" 
d="M90 -215v1000h38v-1000h-38z" />
    <glyph glyph-name="braceright" unicode="}" horiz-adv-x="350" 
d="M302 277q-41 -5 -64 -36.5t-23 -84.5q0 -35 3 -57t7 -43t7 -45t3 -61q0 -69 -37.5 -107t-101.5 -38h-24v34h24q48 0 74.5 28.5t26.5 82.5q0 37 -3 61t-7 45t-7 43t-3 57q0 57 22.5 91t57.5 47v2q-35 13 -57.5 47t-22.5 91q0 34 3 56.5t7 43.5t7 44.5t3 61.5
q0 54 -26.5 82.5t-74.5 28.5h-24v34h24q64 0 101.5 -38t37.5 -107q0 -38 -3 -61.5t-7 -44.5t-7 -43.5t-3 -56.5q0 -53 23 -84.5t64 -36.5v-36z" />
    <glyph glyph-name="asciitilde" unicode="~" horiz-adv-x="564" 
d="M474 388q-14 -35 -41 -55.5t-65 -20.5q-26 0 -47.5 9.5t-41.5 21.5t-39.5 21.5t-41.5 9.5q-30 0 -50 -17t-31 -43l-27 20q14 35 41 55.5t65 20.5q26 0 47.5 -9.5t41.5 -21.5t39.5 -21.5t41.5 -9.5q30 0 50 17t31 43z" />
    <glyph glyph-name="uni00A0" unicode="&#xa0;" horiz-adv-x="290" 
 />
    <glyph glyph-name="sterling" unicode="&#xa3;" horiz-adv-x="620" 
d="M80 0q24 25 49 55.5t46 65.5t34 74t13 82q0 33 -3 56.5t-8 43.5h-107v34h97q-7 25 -12.5 54t-5.5 75q0 43 14 79t40.5 61.5t64 39.5t84.5 14q39 0 76 -10t65 -27l-16 -32q-23 14 -56 23.5t-69 9.5q-78 0 -121 -42.5t-43 -115.5q0 -45 6 -74t13 -55h184v-34h-176
q5 -20 8 -43.5t3 -56.5q0 -39 -10 -74.5t-25 -66.5t-33 -56.5t-35 -43.5h373v-36h-450z" />
    <glyph glyph-name="currency" unicode="&#xa4;" horiz-adv-x="660" 
d="M557 48l-98 108q-25 -24 -57 -37.5t-72 -13.5t-72 13.5t-57 37.5l-98 -108l-27 24l101 112q-20 29 -30.5 65.5t-10.5 77.5t10.5 77.5t30.5 65.5l-101 112l27 24l98 -108q25 24 57 37.5t72 13.5t72 -13.5t57 -37.5l98 108l27 -24l-101 -112q20 -29 30.5 -65.5t10.5 -77.5
t-10.5 -77.5t-30.5 -65.5l101 -112zM487 327q0 39 -10 73t-30 59.5t-49 40.5t-68 15t-68 -15t-49 -40.5t-30 -59.5t-10 -73t10 -73t30 -59.5t49 -40.5t68 -15t68 15t49 40.5t30 59.5t10 73z" />
    <glyph glyph-name="brokenbar" unicode="&#xa6;" horiz-adv-x="218" 
d="M90 385v400h38v-400h-38zM90 -215v400h38v-400h-38z" />
    <glyph glyph-name="section" unicode="&#xa7;" horiz-adv-x="588" 
d="M508 221q0 -30 -11.5 -55.5t-30 -47t-40.5 -38.5t-43 -28q32 -24 51.5 -54.5t19.5 -75.5q0 -66 -49 -106.5t-133 -40.5q-18 0 -39 3t-40.5 8t-36.5 11.5t-29 14.5l16 31q9 -6 24 -12t33 -11t36.5 -8t35.5 -3q67 0 105.5 30t38.5 83q0 39 -19.5 66t-56.5 50l-153 95
q-51 32 -79 72t-28 94q0 33 10.5 59.5t28 47.5t39 37.5t43.5 29.5q-23 20 -38.5 47t-15.5 65q0 35 13 63t36 47t55.5 29t70.5 10q40 0 76 -10.5t60 -26.5l-16 -30q-21 14 -52.5 23.5t-67.5 9.5q-60 0 -98.5 -29t-38.5 -86q0 -35 18.5 -61t46.5 -43l148 -91q54 -33 82 -72.5
t28 -96.5zM470 221q0 48 -23.5 79.5t-68.5 59.5l-147 92q-21 -12 -41.5 -26.5t-36.5 -33t-25.5 -42t-9.5 -51.5q0 -46 25.5 -79t62.5 -56l146 -91q22 11 43 26t37.5 34t27 41t10.5 47z" />
    <glyph glyph-name="copyright" unicode="&#xa9;" horiz-adv-x="884" 
d="M814 362q0 -77 -29.5 -144.5t-80 -118t-118 -80t-144.5 -29.5t-144.5 29.5t-118 80t-80 118t-29.5 144.5t29.5 144.5t80 118t118 80t144.5 29.5t144.5 -29.5t118 -80t80 -118t29.5 -144.5zM776 362q0 70 -26.5 131.5t-71.5 107.5t-106 72.5t-130 26.5t-130 -26.5
t-106 -72.5t-71.5 -107.5t-26.5 -131.5t26.5 -131.5t71.5 -107.5t106 -72.5t130 -26.5t130 26.5t106 72.5t71.5 107.5t26.5 131.5zM556 176q-19 -13 -47 -21.5t-60 -8.5q-38 0 -72 13t-60 40t-41.5 68t-15.5 97q0 55 15.5 96t41.5 68t60 40.5t72 13.5q32 0 60 -8.5t47 -21.5
l-17 -29q-15 10 -38.5 17.5t-51.5 7.5q-29 0 -56.5 -10t-48.5 -32t-33.5 -57t-12.5 -85t12.5 -85t33.5 -57t48.5 -32t56.5 -10q28 0 51.5 7.5t38.5 17.5z" />
    <glyph glyph-name="guillemotleft" unicode="&#xab;" horiz-adv-x="570" 
d="M456 72l-180 233l180 233l28 -23l-163 -210l163 -210zM256 72l-180 233l180 233l28 -23l-163 -210l163 -210z" />
    <glyph glyph-name="logicalnot" unicode="&#xac;" horiz-adv-x="580" 
d="M462 91v216h-382v36h420v-252h-38z" />
    <glyph glyph-name="uni00AD" unicode="&#xad;" horiz-adv-x="420" 
d="M80 305v40h260v-40h-260z" />
    <glyph glyph-name="registered" unicode="&#xae;" horiz-adv-x="688" 
d="M622 459q0 -58 -22 -108.5t-59.5 -88t-88 -59.5t-108.5 -22t-108.5 22t-88 59.5t-59.5 88t-22 108.5t22 108.5t59.5 88t88 59.5t108.5 22t108.5 -22t88 -59.5t59.5 -88t22 -108.5zM587 459q0 51 -19 96t-51.5 78t-77 52.5t-95.5 19.5t-95.5 -19.5t-77 -52.5t-51.5 -78
t-19 -96t19 -96t51.5 -78t77 -52.5t95.5 -19.5t95.5 19.5t77 52.5t51.5 78t19 96zM438 304l-62 112q-9 16 -21.5 23t-34.5 7h-36v-142h-33v306q18 9 42.5 13.5t45.5 4.5q56 0 87 -23.5t31 -64.5q0 -36 -22 -56t-56 -27v-2q17 -10 28 -30l69 -121h-38zM424 540q0 26 -20.5 42
t-64.5 16q-16 0 -30.5 -2t-24.5 -5v-115h44q48 0 72 14t24 50z" />
    <glyph glyph-name="degree" unicode="&#xb0;" horiz-adv-x="454" 
d="M388 574q0 -33 -12.5 -62t-34.5 -50.5t-51 -34t-63 -12.5t-63.5 12.5t-51 34t-34 50.5t-12.5 62t12.5 62t34 50.5t51 34t63.5 12.5t63 -12.5t51 -34t34.5 -50.5t12.5 -62zM353 574q0 26 -10 49t-27 40t-40 27t-49 10t-49 -10t-40 -27t-27 -40t-10 -49t10 -49t27 -40
t40 -27t49 -10t49 10t40 27t27 40t10 49z" />
    <glyph glyph-name="plusminus" unicode="&#xb1;" horiz-adv-x="580" 
d="M309 337v-186h-38v186h-191v36h191v186h38v-186h191v-36h-191zM80 0v36h420v-36h-420z" />
    <glyph glyph-name="twosuperior" unicode="&#xb2;" horiz-adv-x="368" 
d="M18 500l191 203q23 24 40 50t17 56q0 42 -26 66t-80 24q-23 0 -52 -6t-51 -16l-13 30q26 11 57 18t59 7q69 0 106 -34.5t37 -88.5q0 -39 -21.5 -71t-45.5 -57l-140 -147h218v-34h-296z" />
    <glyph glyph-name="threesuperior" unicode="&#xb3;" horiz-adv-x="368" 
d="M312 618q0 -58 -43.5 -92t-115.5 -34q-62 0 -117 25l14 30q21 -10 48.5 -16t54.5 -6q57 0 89.5 23.5t32.5 69.5t-38 70t-106 24h-18v30q66 4 104 27.5t38 58.5q0 36 -25 53.5t-72 17.5q-24 0 -49 -5.5t-48 -15.5l-16 29q26 11 55 18t58 7q62 0 98 -27t36 -77
q0 -18 -7.5 -33t-19.5 -26.5t-27.5 -20t-31.5 -14.5v-2q17 -4 36 -12.5t34.5 -22.5t25.5 -33.5t10 -45.5z" />
    <glyph glyph-name="acute" unicode="&#xb4;" 
d="M137 604h-35l76 130q6 8 14 12t16 4t14 -4t8 -12z" />
    <glyph glyph-name="uni00B5" unicode="&#xb5;" horiz-adv-x="540" 
d="M456 43q-37 -26 -83 -39.5t-95 -13.5q-42 0 -83.5 10.5t-72.5 27.5v-243h-38v754h38v-475q30 -20 72.5 -30t83.5 -10q39 0 77 10.5t63 27.5v477h38v-496z" />
    <glyph glyph-name="paragraph" unicode="&#xb6;" horiz-adv-x="570" 
d="M442 -215v888q-29 13 -69.5 19.5t-72.5 6.5q-5 0 -10 -0.5t-9 -0.5h-9v-913h-38v564q-72 11 -118 58t-46 131q0 95 58.5 145.5t161.5 50.5q60 0 106.5 -10t83.5 -27v-912h-38z" />
    <glyph glyph-name="periodcentered" unicode="&#xb7;" horiz-adv-x="236" 
d="M152 325q0 -14 -10 -24t-24 -10t-24 10t-10 24t10 24t24 10t24 -10t10 -24z" />
    <glyph glyph-name="cedilla" unicode="&#xb8;" 
d="M240 -124q0 -36 -36.5 -54.5t-105.5 -18.5q-16 0 -32.5 1t-35.5 3l16 30q27 -3 53 -3q43 0 72.5 9.5t29.5 32.5q0 34 -65 34q-25 0 -53 -3l16 30q25 3 45 3q54 0 75 -19t21 -45z" />
    <glyph glyph-name="onesuperior" unicode="&#xb9;" horiz-adv-x="368" 
d="M211 500v372q-11 -7 -27 -14t-34 -13.5t-36.5 -12t-36.5 -9.5l-9 33q19 3 40 9.5t42 15t39 19.5t31 24h28v-424h-37z" />
    <glyph glyph-name="guillemotright" unicode="&#xbb;" horiz-adv-x="570" 
d="M314 72l-28 23l163 210l-163 210l28 23l180 -233zM114 72l-28 23l163 210l-163 210l28 23l180 -233z" />
    <glyph glyph-name="onequarter" unicode="&#xbc;" horiz-adv-x="820" 
d="M708 113v-113h-35v113h-207v30l203 281h39v-281h54v-30h-54zM224 -10l-32 18l385 726l31 -18zM167 300v372q-11 -7 -27 -14t-34 -13.5t-36.5 -12t-36.5 -9.5l-9 33q19 3 40 9.5t42 15t39 19.5t31 24h28v-424h-37zM674 390q-3 -6 -7 -13q-6 -12 -16 -27l-147 -207h170v217
q0 8 1 15q0 8 1 15h-2z" />
    <glyph glyph-name="onehalf" unicode="&#xbd;" horiz-adv-x="820" 
d="M472 0l191 203q23 24 40 50t17 56q0 42 -26 66t-80 24q-23 0 -52 -6t-51 -16l-13 30q26 11 57 18t59 7q69 0 106 -34.5t37 -88.5q0 -39 -21.5 -71t-45.5 -57l-140 -147h218v-34h-296zM198 -10l-32 18l385 726l31 -18zM167 300v372q-11 -7 -27 -14t-34 -13.5t-36.5 -12
t-36.5 -9.5l-9 33q19 3 40 9.5t42 15t39 19.5t31 24h28v-424h-37z" />
    <glyph glyph-name="threequarters" unicode="&#xbe;" horiz-adv-x="820" 
d="M708 113v-113h-35v113h-207v30l203 281h39v-281h54v-30h-54zM308 418q0 -58 -43.5 -92t-115.5 -34q-62 0 -117 25l14 30q21 -10 48.5 -16t54.5 -6q57 0 89.5 23.5t32.5 69.5t-38 70t-106 24h-18v30q66 4 104 27.5t38 58.5q0 36 -25 53.5t-72 17.5q-24 0 -49 -5.5
t-48 -15.5l-16 29q26 11 55 18t58 7q62 0 98 -27t36 -77q0 -18 -7.5 -33t-19.5 -26.5t-27.5 -20t-31.5 -14.5v-2q17 -4 36 -12.5t34.5 -22.5t25.5 -33.5t10 -45.5zM256 -10l-32 18l385 726l31 -18zM674 390q-3 -6 -7 -13q-6 -12 -16 -27l-147 -207h170v217q0 8 1 15
q0 8 1 15h-2z" />
    <glyph glyph-name="multiply" unicode="&#xd7;" horiz-adv-x="580" 
d="M484 105l-194 194l-194 -194l-26 27l193 193l-193 193l26 27l194 -194l194 194l26 -27l-193 -193l193 -193z" />
    <glyph glyph-name="divide" unicode="&#xf7;" horiz-adv-x="580" 
d="M324 477q0 -14 -10 -24t-24 -10t-24 10t-10 24t10 24t24 10t24 -10t10 -24zM80 307v36h420v-36h-420zM324 173q0 -14 -10 -24t-24 -10t-24 10t-10 24t10 24t24 10t24 -10t10 -24z" />
    <glyph glyph-name="florin" unicode="&#x192;" horiz-adv-x="540" 
d="M491 686q-9 4 -22.5 7t-28.5 3q-56 0 -84 -32.5t-36 -98.5l-19 -146h146v-34h-150l-58 -445q-11 -80 -49 -121t-110 -41q-18 0 -35 3.5t-29 8.5l13 34q9 -4 22.5 -7t28.5 -3q56 0 84 32.5t36 98.5l57 440h-122v34h127l19 150q10 80 48.5 121t110.5 41q18 0 35 -3.5
t29 -8.5z" />
    <glyph glyph-name="afii57929" unicode="&#x2bc;" horiz-adv-x="46" 
d="M36 557h-33l82 217q5 7 11.5 11t16.5 4t15 -4.5t7 -10.5z" />
    <glyph glyph-name="circumflex" unicode="&#x2c6;" 
d="M244 604l-104 93l-104 -93l-21 19l98 99q13 14 27 14t27 -14l98 -99z" />
    <glyph glyph-name="caron" unicode="&#x2c7;" 
d="M167 620q-13 -14 -27 -14t-27 14l-98 99l21 19l104 -93l104 93l21 -19z" />
    <glyph glyph-name="breve" unicode="&#x2d8;" 
d="M264 723q-4 -56 -37 -88t-87 -32t-87 32t-37 88l31 5q8 -45 30 -67.5t63 -22.5t63 22.5t30 67.5z" />
    <glyph glyph-name="dotaccent" unicode="&#x2d9;" 
d="M172 668q0 -14 -9 -23t-23 -9t-23 9t-9 23t9 23t23 9t23 -9t9 -23z" />
    <glyph glyph-name="ring" unicode="&#x2da;" 
d="M225 683q0 -17 -6.5 -32.5t-18 -26.5t-27 -17.5t-33.5 -6.5t-33.5 6.5t-27 17.5t-18 26.5t-6.5 32.5t6.5 32t18 26.5t27 18t33.5 6.5t33.5 -6.5t27 -18t18 -26.5t6.5 -32zM196 683q0 23 -16.5 39.5t-39.5 16.5t-39.5 -16.5t-16.5 -39.5t16.5 -39.5t39.5 -16.5t39.5 16.5
t16.5 39.5z" />
    <glyph glyph-name="ogonek" unicode="&#x2db;" 
d="M249 -171q-16 -8 -37 -12.5t-41 -4.5q-42 0 -68.5 22.5t-26.5 61.5q0 36 30 65.5t76 53.5h49q-64 -29 -90.5 -61t-26.5 -58q0 -23 16 -37t41 -14q35 0 66 14z" />
    <glyph glyph-name="tilde" unicode="&#x2dc;" 
d="M265 692q-5 -28 -23 -49.5t-50 -21.5q-20 0 -33 8.5t-24 18t-21.5 18t-23.5 8.5q-20 0 -31.5 -16t-15.5 -37l-28 17q5 28 23 49.5t50 21.5q19 0 32.5 -8.5t24.5 -18t21 -18t24 -8.5q20 0 31.5 16t15.5 37z" />
    <glyph glyph-name="hungarumlaut" unicode="&#x2dd;" 
d="M185 604h-34l79 130q12 16 29 16t21 -16zM55 604h-34l79 130q12 16 29 16t21 -16z" />
    <glyph glyph-name="uni0306" unicode="&#x306;" horiz-adv-x="1" 
d="M-15 723q-4 -56 -37 -88t-87 -32t-87 32t-37 88l31 5q8 -45 30 -67.5t63 -22.5t63 22.5t30 67.5z" />
    <glyph glyph-name="uni030F" unicode="&#x30f;" horiz-adv-x="1" 
d="M-54 604l-95 130q4 16 21 16t29 -16l79 -130h-34zM-184 604l-95 130q4 16 21 16t29 -16l79 -130h-34z" />
    <glyph glyph-name="uni0311" unicode="&#x311;" horiz-adv-x="1" 
d="M-46 603q-8 45 -30 67.5t-63 22.5t-63 -22.5t-30 -67.5l-31 5q4 56 37 88t87 32t87 -32t37 -88z" />
    <glyph glyph-name="tonos" unicode="&#x384;" 
d="M139 604h-33l50 129q10 16 26 16q17 0 24 -16z" />
    <glyph glyph-name="Delta" unicode="&#x394;" horiz-adv-x="650" 
d="M32 0l272 724h42l272 -724h-586zM350 612q-5 14 -9.5 28.5t-7.5 25.5q-4 13 -7 26h-2q-3 -13 -7 -26q-3 -11 -7.5 -25.5t-9.5 -28.5l-213 -577h476z" />
    <glyph glyph-name="mu" unicode="&#x3bc;" horiz-adv-x="540" 
d="M456 43q-37 -26 -83 -39.5t-95 -13.5q-42 0 -83.5 10.5t-72.5 27.5v-243h-38v754h38v-475q30 -20 72.5 -30t83.5 -10q39 0 77 10.5t63 27.5v477h38v-496z" />
    <glyph glyph-name="afii10023" unicode="&#x401;" horiz-adv-x="510" 
d="M387 853q0 -14 -9 -23t-23 -9t-23 9t-9 23t9 23t23 9t23 -9t9 -23zM219 853q0 -14 -9 -23t-23 -9t-23 9t-9 23t9 23t23 9t23 -9t9 -23zM90 0v724h366v-36h-327v-294h304v-36h-304v-322h327v-36h-366z" />
    <glyph glyph-name="afii10051" unicode="&#x402;" horiz-adv-x="694" 
d="M628 190q0 -64 -14.5 -122t-42.5 -107t-69 -87.5t-94 -63.5l-19 33q99 46 149 137.5t50 209.5q0 54 -11 100t-35 80t-61.5 53t-90.5 19q-37 0 -79 -10.5t-73 -29.5v-402h-40v688h-162v36h468v-36h-266v-248q32 18 72 28t80 10q63 0 108 -22t74 -61t42.5 -91.5
t13.5 -113.5z" />
    <glyph glyph-name="afii10052" unicode="&#x403;" horiz-adv-x="480" 
d="M268 789h-35l76 130q6 8 14 12t16 4t14 -4t8 -12zM134 688v-688h-40v724h352v-36h-312z" />
    <glyph glyph-name="afii10053" unicode="&#x404;" horiz-adv-x="600" 
d="M548 27q-26 -17 -70.5 -27t-98.5 -10q-62 0 -119 22.5t-100 68t-68.5 115.5t-25.5 166t25.5 166t68.5 115.5t100 68t119 22.5q54 0 98.5 -10t70.5 -27l-16 -32q-22 14 -62.5 23.5t-90.5 9.5q-52 0 -100 -17.5t-85 -54.5t-61 -94.5t-28 -137.5h377v-36h-378q0 -87 23 -150
t60.5 -103.5t87.5 -59.5t104 -19q50 0 90.5 9.5t62.5 23.5z" />
    <glyph glyph-name="afii10054" unicode="&#x405;" horiz-adv-x="524" 
d="M459 185q0 -46 -18 -82.5t-50 -61.5t-75.5 -38t-93.5 -13q-48 0 -91 10t-74 27l17 34q25 -14 64.5 -24.5t83.5 -10.5q42 0 78.5 10.5t62.5 30.5t41 50t15 68q0 34 -14 59.5t-36.5 44.5t-51.5 34t-59 28q-37 16 -72 33.5t-62 41t-43.5 54.5t-16.5 73q0 43 16 76.5
t44.5 56.5t67.5 35.5t84 12.5q47 0 87 -11t63 -26l-17 -34q-22 14 -58 24.5t-75 10.5q-37 0 -68.5 -9.5t-54.5 -28t-36 -45.5t-13 -62q0 -34 15.5 -59.5t40 -45.5t55.5 -35t62 -28q34 -15 66.5 -31.5t58 -40t41.5 -54.5t16 -74z" />
    <glyph glyph-name="afii10055" unicode="&#x406;" horiz-adv-x="224" 
d="M92 0v724h40v-724h-40z" />
    <glyph glyph-name="afii10056" unicode="&#x407;" horiz-adv-x="224" 
d="M228 853q0 -14 -9 -23t-23 -9t-23 9t-9 23t9 23t23 9t23 -9t9 -23zM60 853q0 -14 -9 -23t-23 -9t-23 9t-9 23t9 23t23 9t23 -9t9 -23zM92 0v724h40v-724h-40z" />
    <glyph glyph-name="afii10057" unicode="&#x408;" horiz-adv-x="224" 
d="M132 80q0 -66 -14.5 -115.5t-41 -85.5t-64.5 -60t-86 -37v38q78 26 122 86.5t44 173.5v644h40v-644z" />
    <glyph glyph-name="afii10058" unicode="&#x409;" horiz-adv-x="976" 
d="M916 205q0 -98 -62.5 -156.5t-178.5 -58.5q-50 0 -94.5 10t-78.5 27v661h-219l-16 -149q-9 -84 -19 -162.5t-32 -148.5t-61 -130.5t-106 -109.5l-21 32q59 44 94 99.5t55.5 121.5t30.5 141.5t19 159.5l20 182h295v-320q18 6 50.5 10.5t63.5 4.5q61 0 109.5 -15.5t82 -44
t51 -67.5t17.5 -87zM876 205q0 83 -58 130.5t-162 47.5q-14 0 -29.5 -1t-31.5 -3.5t-30 -5t-23 -5.5v-319q23 -10 58 -16.5t75 -6.5q97 0 149 47t52 132z" />
    <glyph glyph-name="afii10059" unicode="&#x40a;" horiz-adv-x="944" 
d="M884 205q0 -98 -62.5 -156.5t-178.5 -58.5q-50 0 -94.5 10t-78.5 27v331h-340v-358h-40v724h40v-330h340v330h40v-320q18 6 50.5 10.5t63.5 4.5q61 0 109.5 -15.5t82 -44t51 -67.5t17.5 -87zM844 205q0 83 -58 130.5t-162 47.5q-14 0 -29.5 -1t-31.5 -3.5t-30 -5
t-23 -5.5v-319q23 -10 58 -16.5t75 -6.5q97 0 149 47t52 132z" />
    <glyph glyph-name="afii10060" unicode="&#x40b;" horiz-adv-x="690" 
d="M564 0v280q0 84 -48 123t-126 39q-37 0 -79 -10.5t-73 -29.5v-402h-40v688h-162v36h468v-36h-266v-248q32 18 72 28t80 10q98 0 156 -50t58 -148v-280h-40z" />
    <glyph glyph-name="afii10061" unicode="&#x40c;" horiz-adv-x="570" 
d="M271 789h-35l76 130q6 8 14 12t16 4t14 -4t8 -12zM495 0l-136 223q-35 58 -92.5 96.5t-134.5 38.5v-358h-40v724h40v-346h2l337 346h55l-336 -339q131 -27 207 -149l145 -236h-47z" />
    <glyph glyph-name="afii10062" unicode="&#x40e;" horiz-adv-x="590" 
d="M418 908q-4 -56 -37 -88t-87 -32t-87 32t-37 88l31 5q8 -45 30 -67.5t63 -22.5t63 22.5t30 67.5zM538 724q-12 -67 -32 -131t-45.5 -125.5t-55.5 -121.5t-63 -119l-126 -227h-45l118 207q-39 61 -75.5 123.5t-68 127.5t-56 131.5t-39.5 134.5h41q13 -61 35 -122.5
t50.5 -122t62 -120t69.5 -116.5h2q64 115 114 234t73 247h41z" />
    <glyph glyph-name="afii10145" unicode="&#x40f;" horiz-adv-x="634" 
d="M338 0l-5 -146h-32l-5 146h-206v724h40v-688h374v688h40v-724h-206z" />
    <glyph glyph-name="afii10017" unicode="&#x410;" horiz-adv-x="650" 
d="M576 0l-91 247h-320l-91 -247h-42l272 724h42l272 -724h-42zM350 612q-5 14 -9.5 28.5t-7.5 25.5q-4 13 -7 26h-2q-3 -13 -7 -26q-3 -11 -7.5 -25.5t-9.5 -28.5l-122 -331h294z" />
    <glyph glyph-name="afii10018" unicode="&#x411;" horiz-adv-x="578" 
d="M516 205q0 -98 -63 -156.5t-183 -58.5q-48 0 -95.5 10t-82.5 27v697h352v-36h-312v-284q18 6 51.5 10.5t67.5 4.5q127 0 196 -57.5t69 -156.5zM476 205q0 85 -58 131.5t-167 46.5q-15 0 -31.5 -1t-33 -3.5t-31 -5t-23.5 -5.5v-319q23 -10 60 -16.5t78 -6.5
q103 0 154.5 47t51.5 132z" />
    <glyph glyph-name="afii10019" unicode="&#x412;" horiz-adv-x="600" 
d="M538 188q0 -46 -18 -82.5t-51.5 -62t-82 -39.5t-108.5 -14q-24 0 -50 3t-51 8t-47 11.5t-38 14.5v670q32 16 80.5 26.5t101.5 10.5q112 0 173.5 -49.5t61.5 -131.5q0 -39 -12.5 -69t-32 -51.5t-42.5 -34.5t-44 -18v-2q24 -5 52 -17.5t52 -35t40 -56t16 -81.5zM470 553
q0 69 -52.5 107.5t-143.5 38.5q-42 0 -80.5 -6.5t-62.5 -17.5v-282h120q32 0 55 1t41 5t32.5 10.5t30.5 17.5q27 19 43.5 52.5t16.5 73.5zM499 188q0 50 -21.5 86.5t-64.5 57.5q-16 8 -31.5 13t-33.5 8t-40 4.5t-52 1.5h-125v-310q26 -11 67.5 -17.5t79.5 -6.5
q104 0 162.5 43t58.5 120z" />
    <glyph glyph-name="afii10020" unicode="&#x413;" horiz-adv-x="480" 
d="M134 688v-688h-40v724h352v-36h-312z" />
    <glyph glyph-name="afii10021" unicode="&#x414;" horiz-adv-x="738" 
d="M671 -146h-34l-4 146h-548l-4 -146h-34l-3 168q52 46 88 111.5t59 137.5t36 143t20 128l21 182h286l80 -688l40 -14zM518 688h-214l-17 -149q-7 -60 -20 -129.5t-34.5 -138t-52 -130.5t-72.5 -107h486z" />
    <glyph glyph-name="afii10022" unicode="&#x415;" horiz-adv-x="510" 
d="M90 0v724h366v-36h-327v-294h304v-36h-304v-322h327v-36h-366z" />
    <glyph glyph-name="afii10024" unicode="&#x416;" horiz-adv-x="844" 
d="M768 0l-133 234q-15 27 -35 50t-44 40t-53 27t-62 10v-361h-38v361q-33 0 -62 -10t-53 -27t-44 -40t-35 -50l-133 -234h-46l142 247q32 57 76.5 91t96.5 47l-298 339h52l302 -349h2v349h38v-349h2l302 349h52l-298 -339q52 -13 96.5 -47t76.5 -91l142 -247h-46z" />
    <glyph glyph-name="afii10025" unicode="&#x417;" horiz-adv-x="562" 
d="M500 200q0 -47 -18.5 -86t-53 -66.5t-84 -42.5t-110.5 -15q-51 0 -100.5 10t-87.5 27l16 33q32 -15 78.5 -24.5t93.5 -9.5q105 0 165.5 46t60.5 128q0 45 -21 77.5t-57 53.5t-85 31t-105 10h-17.5t-19.5 -1v34q54 0 102.5 12t85.5 33.5t59 51.5t22 66q0 65 -48.5 97.5
t-137.5 32.5q-42 0 -87 -9t-80 -24l-17 32q36 17 83.5 27t100.5 10q106 0 166 -43.5t60 -122.5q0 -35 -16 -64t-41.5 -50.5t-56 -36t-60.5 -20.5v-2q31 -4 68 -15.5t68.5 -34t52.5 -58t21 -87.5z" />
    <glyph glyph-name="afii10026" unicode="&#x418;" horiz-adv-x="704" 
d="M575 0v637q0 16 1 28q0 14 1 27h-2q-6 -13 -13 -25q-6 -11 -13 -24t-15 -26l-394 -617h-50v724h39v-597q0 -15 -0.5 -30.5t-0.5 -27.5v-27h2q6 12 13 24q6 11 13.5 24t15.5 26l388 608h54v-724h-39z" />
    <glyph glyph-name="afii10027" unicode="&#x419;" horiz-adv-x="704" 
d="M472 908q-4 -56 -37 -88t-87 -32t-87 32t-37 88l31 5q8 -45 30 -67.5t63 -22.5t63 22.5t30 67.5zM575 0v637q0 16 1 28q0 14 1 27h-2q-6 -13 -13 -25q-6 -11 -13 -24t-15 -26l-394 -617h-50v724h39v-597q0 -15 -0.5 -30.5t-0.5 -27.5v-27h2q6 12 13 24q6 11 13.5 24
t15.5 26l388 608h54v-724h-39z" />
    <glyph glyph-name="afii10028" unicode="&#x41a;" horiz-adv-x="570" 
d="M495 0l-136 223q-35 58 -92.5 96.5t-134.5 38.5v-358h-40v724h40v-346h2l337 346h55l-336 -339q131 -27 207 -149l145 -236h-47z" />
    <glyph glyph-name="afii10029" unicode="&#x41b;" horiz-adv-x="702" 
d="M589 0l-79 688h-214l-17 -149q-10 -84 -20.5 -162.5t-33 -149t-63.5 -131t-112 -109.5l-20 34q63 44 100 99.5t58 121.5t31 141t20 159l21 182h287l83 -724h-41z" />
    <glyph glyph-name="afii10030" unicode="&#x41c;" horiz-adv-x="866" 
d="M761 0l-83 612q-2 14 -3 28.5t-3 25.5q-2 13 -3 26h-2q-2 -13 -6 -26q-3 -11 -7 -25l-8 -28l-192 -613h-42l-192 613q-5 14 -8.5 28t-6.5 25q-4 13 -6 26h-2q-1 -13 -3 -26q-2 -11 -3 -25.5t-3 -28.5l-83 -612h-39l101 724h55l189 -601q5 -14 8.5 -29t6.5 -27
q4 -14 6 -27h2q2 13 6 27q3 12 6.5 27t8.5 29l189 601h55l101 -724h-39z" />
    <glyph glyph-name="afii10031" unicode="&#x41d;" horiz-adv-x="640" 
d="M510 0v358h-380v-358h-40v724h40v-330h380v330h40v-724h-40z" />
    <glyph glyph-name="afii10032" unicode="&#x41e;" horiz-adv-x="682" 
d="M616 362q0 -76 -18 -143.5t-53 -118.5t-87 -80.5t-119 -29.5q-68 0 -119 29.5t-85 80.5t-51.5 118.5t-17.5 143.5t17.5 143.5t51.5 118.5t85 80.5t119 29.5q67 0 119 -29.5t87 -80.5t53 -118.5t18 -143.5zM576 362q0 68 -15.5 129t-45.5 107t-74 73t-102 27t-101.5 -27
t-73 -73t-44 -107t-14.5 -129t14.5 -129t44 -107t73 -73t101.5 -27t102 27t74 73t45.5 107t15.5 129z" />
    <glyph glyph-name="afii10033" unicode="&#x41f;" horiz-adv-x="640" 
d="M510 0v688h-380v-688h-40v724h460v-724h-40z" />
    <glyph glyph-name="afii10034" unicode="&#x420;" horiz-adv-x="552" 
d="M504 523q0 -47 -18.5 -85.5t-53.5 -66t-86 -43t-116 -15.5q-26 0 -54 2t-46 5v-320h-40v697q34 17 78.5 27t94.5 10q116 0 178.5 -56.5t62.5 -154.5zM464 523q0 85 -52 130t-149 45q-40 0 -75 -6.5t-58 -16.5v-319q19 -3 46 -5t54 -2q113 0 173.5 48t60.5 126z" />
    <glyph glyph-name="afii10035" unicode="&#x421;" horiz-adv-x="554" 
d="M498 27q-24 -17 -63.5 -27t-88.5 -10q-56 0 -106.5 22.5t-89 68t-61.5 115.5t-23 166t23 166t61.5 115.5t89 68t106.5 22.5q49 0 88.5 -10t63.5 -27l-15 -33q-20 14 -56 24t-81 10q-48 0 -91 -19.5t-76 -60.5t-52.5 -104.5t-19.5 -151.5t19.5 -151.5t52.5 -104.5
t76 -60.5t91 -19.5q45 0 81 10t56 24z" />
    <glyph glyph-name="afii10036" unicode="&#x422;" horiz-adv-x="514" 
d="M277 688v-688h-40v688h-203v36h446v-36h-203z" />
    <glyph glyph-name="afii10037" unicode="&#x423;" horiz-adv-x="590" 
d="M538 724q-12 -67 -32 -131t-45.5 -125.5t-55.5 -121.5t-63 -119l-126 -227h-45l118 207q-39 61 -75.5 123.5t-68 127.5t-56 131.5t-39.5 134.5h41q13 -61 35 -122.5t50.5 -122t62 -120t69.5 -116.5h2q64 115 114 234t73 247h41z" />
    <glyph glyph-name="afii10038" unicode="&#x424;" horiz-adv-x="806" 
d="M744 362q0 -66 -22.5 -123t-64 -99.5t-101 -67t-134.5 -24.5v-68h-38v68q-75 0 -134.5 24.5t-101 67t-64 99.5t-22.5 123t22.5 123t64 99.5t101 67t134.5 24.5v68h38v-68q75 0 134.5 -24.5t101 -67t64 -99.5t22.5 -123zM704 362q0 59 -19.5 110.5t-55.5 89.5t-88.5 59.5
t-118.5 21.5v-562q66 0 118.5 21.5t88.5 59.5t55.5 89.5t19.5 110.5zM384 643q-66 0 -118.5 -21.5t-88.5 -59.5t-55.5 -89.5t-19.5 -110.5t19.5 -110.5t55.5 -89.5t88.5 -59.5t118.5 -21.5v562z" />
    <glyph glyph-name="afii10039" unicode="&#x425;" horiz-adv-x="572" 
d="M490 0l-203 341h-2l-203 -341h-44l225 374l-211 350h44l189 -317h2l189 317h44l-211 -350l225 -374h-44z" />
    <glyph glyph-name="afii10040" unicode="&#x426;" horiz-adv-x="646" 
d="M579 -146h-34l-4 146h-451v724h40v-688h374v688h40v-687l38 -15z" />
    <glyph glyph-name="afii10041" unicode="&#x427;" horiz-adv-x="618" 
d="M488 0v323q-14 -8 -35.5 -15t-45 -12t-47 -8t-42.5 -3q-108 0 -170 60.5t-62 167.5v211h40v-211q0 -91 50.5 -141.5t141.5 -50.5q18 0 41.5 3t47.5 8.5t45.5 12.5t35.5 16v363h40v-724h-40z" />
    <glyph glyph-name="afii10042" unicode="&#x428;" horiz-adv-x="940" 
d="M90 0v724h40v-689h320v689h40v-689h320v689h40v-724h-760z" />
    <glyph glyph-name="afii10043" unicode="&#x429;" horiz-adv-x="952" 
d="M885 -146h-34l-4 146h-757v724h40v-689h320v689h40v-689h320v689h40v-688l38 -14z" />
    <glyph glyph-name="afii10044" unicode="&#x42a;" horiz-adv-x="688" 
d="M628 205q0 -98 -62.5 -156.5t-178.5 -58.5q-50 0 -94.5 10t-78.5 27v661h-180v36h220v-320q18 6 50.5 10.5t63.5 4.5q61 0 109.5 -15.5t82 -44t51 -67.5t17.5 -87zM588 205q0 83 -58 130.5t-162 47.5q-14 0 -29.5 -1t-31.5 -3.5t-30 -5t-23 -5.5v-319q23 -10 58 -16.5
t75 -6.5q97 0 149 47t52 132z" />
    <glyph glyph-name="afii10045" unicode="&#x42b;" horiz-adv-x="744" 
d="M612 0v724h40v-724h-40zM504 205q0 -98 -62.5 -156.5t-178.5 -58.5q-50 0 -94.5 10t-78.5 27v697h40v-320q18 6 50.5 10.5t63.5 4.5q61 0 109.5 -15.5t82 -44t51 -67.5t17.5 -87zM464 205q0 83 -58 130.5t-162 47.5q-14 0 -29.5 -1t-31.5 -3.5t-30 -5t-23 -5.5v-319
q23 -10 58 -16.5t75 -6.5q97 0 149 47t52 132z" />
    <glyph glyph-name="afii10046" unicode="&#x42c;" horiz-adv-x="564" 
d="M504 205q0 -98 -62.5 -156.5t-178.5 -58.5q-50 0 -94.5 10t-78.5 27v697h40v-320q18 6 50.5 10.5t63.5 4.5q61 0 109.5 -15.5t82 -44t51 -67.5t17.5 -87zM464 205q0 83 -58 130.5t-162 47.5q-14 0 -29.5 -1t-31.5 -3.5t-30 -5t-23 -5.5v-319q23 -10 58 -16.5t75 -6.5
q97 0 149 47t52 132z" />
    <glyph glyph-name="afii10047" unicode="&#x42d;" horiz-adv-x="600" 
d="M534 362q0 -96 -25.5 -166t-68.5 -115.5t-100 -68t-119 -22.5q-54 0 -98.5 10t-70.5 27l16 32q22 -14 62.5 -23.5t90.5 -9.5q54 0 104 19t87.5 59.5t60.5 103.5t23 150h-378v36h377q-4 80 -28 137.5t-61 94.5t-85 54.5t-100 17.5q-50 0 -90.5 -9.5t-62.5 -23.5l-16 32
q26 17 70.5 27t98.5 10q62 0 119 -22.5t100 -68t68.5 -115.5t25.5 -166z" />
    <glyph glyph-name="afii10048" unicode="&#x42e;" horiz-adv-x="890" 
d="M822 362q0 -73 -13.5 -140t-42.5 -118.5t-75 -82.5t-111 -31t-110.5 30.5t-75 81.5t-43 117.5t-13.5 138.5h-208v-358h-40v724h40v-330h209q3 68 17.5 129.5t44 108.5t73.5 74.5t106 27.5q65 0 111 -31t75 -82.5t42.5 -118.5t13.5 -140zM782 362q0 65 -11 125.5
t-35.5 107.5t-63 75t-92.5 28t-92.5 -28t-63 -75t-36 -107.5t-11.5 -125.5t11.5 -125.5t36 -107.5t63 -75t92.5 -28t92.5 28t63 75t35.5 107.5t11 125.5z" />
    <glyph glyph-name="afii10049" unicode="&#x42f;" horiz-adv-x="606" 
d="M475 0v339h-109q-53 0 -86 -23.5t-57 -68.5l-132 -247h-45l137 255q17 33 38 56.5t48 34.5v2q-42 5 -77 18.5t-60 36.5t-39 57t-14 81q0 42 16 77.5t47.5 61t78 40t108.5 14.5q52 0 101.5 -10.5t83.5 -27.5v-696h-39zM475 675q-24 11 -63.5 17.5t-82.5 6.5
q-106 0 -158.5 -43t-52.5 -115q0 -47 16 -79.5t46 -52t72 -28t94 -8.5h129v302z" />
    <glyph glyph-name="afii10065" unicode="&#x430;" horiz-adv-x="518" 
d="M434 27q-14 -8 -33.5 -14.5t-43 -11.5t-48 -8t-48.5 -3q-102 0 -153.5 43t-51.5 115q0 60 30 95.5t78.5 54.5t109.5 26t122 10v52q0 38 -11.5 63t-32 39.5t-48 20.5t-59.5 6q-37 0 -77.5 -10t-65.5 -24l-13 31q28 14 70.5 25.5t85.5 11.5q40 0 74.5 -8.5t60 -28t40 -50.5
t14.5 -76v-359zM396 301q-51 -3 -105 -8t-97.5 -20t-71.5 -44t-28 -81q0 -56 40.5 -90t126.5 -34q19 0 39 2t38.5 5t33.5 7t24 9v254z" />
    <glyph glyph-name="afii10066" unicode="&#x431;" horiz-adv-x="562" 
d="M500 272q0 -59 -13.5 -110.5t-40.5 -89.5t-66.5 -60t-91.5 -22q-55 0 -96 25.5t-68 70.5t-40.5 107.5t-13.5 137.5q0 104 21 184t67.5 137.5t119.5 92.5t177 49v-35q-140 -21 -218.5 -80.5t-108.5 -167.5q29 15 64.5 25t80.5 10q54 0 96 -21t71.5 -58t44.5 -87t15 -108z
M462 272q0 50 -12.5 94t-36.5 76.5t-59 51t-81 18.5q-43 0 -81.5 -10t-72.5 -27q-12 -65 -12 -144q0 -68 11.5 -124t34 -97t56.5 -63.5t79 -22.5q43 0 75.5 19.5t54.5 53t33 78.5t11 97z" />
    <glyph glyph-name="afii10067" unicode="&#x432;" horiz-adv-x="516" 
d="M454 141q0 -35 -15 -63t-42 -47.5t-65.5 -30t-86.5 -10.5q-42 0 -84 9.5t-75 27.5v485q33 18 75.5 27.5t81.5 9.5q89 0 139.5 -37.5t50.5 -100.5q0 -28 -9.5 -50t-24.5 -38t-33 -26t-34 -14v-2q18 -4 39.5 -13.5t40 -26t30.5 -41.5t12 -59zM396 411q0 50 -41.5 77.5
t-111.5 27.5q-33 0 -67 -7t-53 -17v-196h109q24 0 41 1t30.5 3.5t24.5 7.5t23 13q20 14 32.5 37.5t12.5 52.5zM417 141q0 73 -65 104q-24 11 -48 15t-68 4h-113v-217q20 -11 55 -17.5t67 -6.5q78 0 125 31t47 87z" />
    <glyph glyph-name="afii10068" unicode="&#x433;" horiz-adv-x="410" 
d="M126 505v-505h-38v539h290v-34h-252z" />
    <glyph glyph-name="afii10069" unicode="&#x434;" horiz-adv-x="626" 
d="M563 -146h-32l-4 146h-444l-5 -146h-32l-6 167q49 34 79 81.5t48 99.5t27.5 104.5t15.5 96.5l20 136h240l58 -504l38 -14zM437 505h-174l-16 -107q-7 -44 -16 -95t-24.5 -100.5t-40.5 -94t-63 -76.5h388z" />
    <glyph glyph-name="afii10070" unicode="&#x435;" horiz-adv-x="548" 
d="M486 331v-14q0 -6 -1 -14l-386 -58q5 -110 60.5 -165.5t148.5 -55.5q41 0 80 9.5t64 24.5l15 -31q-26 -16 -68 -26.5t-91 -10.5q-55 0 -100.5 17.5t-77.5 52.5t-50 87.5t-18 122.5q0 62 15.5 113.5t44.5 88t70.5 57t92.5 20.5q45 0 82 -14t63.5 -42t41 -68.5t14.5 -93.5z
M449 330q-1 96 -46 140.5t-118 44.5q-44 0 -78 -17t-58 -48.5t-37 -75t-14 -96.5z" />
    <glyph glyph-name="afii10072" unicode="&#x436;" horiz-adv-x="700" 
d="M629 0l-99 167q-12 21 -28.5 40t-36.5 33.5t-44.5 23t-52.5 8.5v-272h-36v272q-29 0 -53 -8.5t-44 -23t-36.5 -33.5t-28.5 -40l-99 -167h-43l106 176q27 45 61.5 75t79.5 41l-243 247h51l247 -257h2v257h36v-257h2l247 257h51l-243 -247q45 -11 79.5 -41t61.5 -75
l106 -176h-43z" />
    <glyph glyph-name="afii10073" unicode="&#x437;" horiz-adv-x="486" 
d="M57 57q27 -14 70 -23.5t89 -9.5q34 0 65.5 7t55 22t37.5 38t14 54q0 50 -43.5 84.5t-134.5 34.5h-79v33h75q78 0 119 29t41 80q0 29 -12 49.5t-32.5 34t-47 19.5t-55.5 6q-39 0 -80.5 -9.5t-68.5 -23.5l-17 30q31 17 75.5 27t90.5 10q37 0 70.5 -9t59 -26.5t40.5 -44.5
t15 -63q0 -48 -29.5 -80.5t-80.5 -40.5v-2q25 -4 48.5 -14.5t42 -28t30 -41.5t11.5 -54q0 -39 -17 -68t-45.5 -48.5t-67 -29t-80.5 -9.5q-50 0 -96.5 10t-79.5 27z" />
    <glyph glyph-name="afii10074" unicode="&#x438;" horiz-adv-x="572" 
d="M452 0v460q0 12 1 22q0 11 1 22h-2l-10 -20q-5 -9 -10.5 -19.5t-11.5 -19.5l-294 -445h-42v539h36v-429q0 -11 -0.5 -23t-0.5 -22q-1 -11 -1 -23h2l10 20q5 9 10.5 19t12.5 20l289 438h46v-539h-36z" />
    <glyph glyph-name="afii10075" unicode="&#x439;" horiz-adv-x="572" 
d="M452 0v460q0 12 1 22q0 11 1 22h-2l-10 -20q-5 -9 -10.5 -19.5t-11.5 -19.5l-294 -445h-42v539h36v-429q0 -11 -0.5 -23t-0.5 -22q-1 -11 -1 -23h2l10 20q5 9 10.5 19t12.5 20l289 438h46v-539h-36zM407 724q-4 -56 -37 -88t-87 -32t-87 32t-37 88l31 5q8 -45 30 -67.5
t63 -22.5t63 22.5t30 67.5z" />
    <glyph glyph-name="afii10076" unicode="&#x43a;" horiz-adv-x="480" 
d="M410 0l-115 168q-27 40 -70.5 70t-100.5 30v-268h-38v539h38v-253h2l271 253h53l-273 -248q54 -13 90 -42t65 -72l122 -177h-44z" />
    <glyph glyph-name="afii10077" unicode="&#x43b;" horiz-adv-x="592" 
d="M490 0l-58 505h-172l-16 -107q-8 -56 -18 -117t-30.5 -117.5t-57 -103t-98.5 -73.5l-16 33q53 23 85 65t51 94t29 110t18 114l20 136h239l62 -539h-38z" />
    <glyph glyph-name="afii10078" unicode="&#x43c;" horiz-adv-x="718" 
d="M621 0l-60 441q-2 11 -3 23.5t-2 22.5q-1 11 -1 23h-2q-2 -12 -5 -23q-2 -10 -6 -22t-8 -23l-158 -442h-34l-158 442q-5 11 -8.5 23t-5.5 22q-3 11 -5 23h-2q-1 -12 -2 -23q-1 -10 -1.5 -22.5t-2.5 -23.5l-60 -441h-37l77 539h49l154 -435q4 -11 7.5 -22t5.5 -21
q3 -11 5 -22h2q2 11 5 22q2 10 5.5 21t7.5 22l154 435h49l77 -539h-37z" />
    <glyph glyph-name="afii10079" unicode="&#x43d;" horiz-adv-x="534" 
d="M412 0v260h-290v-260h-38v539h38v-245h290v245h38v-539h-38z" />
    <glyph glyph-name="afii10080" unicode="&#x43e;" horiz-adv-x="556" 
d="M494 270q0 -60 -13.5 -111t-40.5 -88.5t-67.5 -59t-94.5 -21.5t-94.5 21.5t-67.5 59t-40.5 88.5t-13.5 111t13.5 111t40.5 88.5t67.5 58.5t94.5 21t94.5 -21t67.5 -58.5t40.5 -88.5t13.5 -111zM456 270q0 52 -11 96.5t-33 77.5t-55.5 52t-78.5 19t-78.5 -19t-55.5 -52
t-33 -77.5t-11 -96.5t11 -97t33 -78t55.5 -52t78.5 -19t78.5 19t55.5 52t33 78t11 97z" />
    <glyph glyph-name="afii10081" unicode="&#x43f;" horiz-adv-x="540" 
d="M418 0v505h-296v-505h-38v539h372v-539h-38z" />
    <glyph glyph-name="afii10082" unicode="&#x440;" horiz-adv-x="544" 
d="M482 278q0 -62 -16.5 -114t-48 -90t-77.5 -59.5t-105 -21.5q-34 0 -65 5.5t-48 11.5v-225h-38v727q12 7 29 13.5t37.5 11.5t43 8.5t43.5 3.5q58 0 103.5 -20t77 -56t48 -85.5t16.5 -109.5zM444 278q0 52 -13.5 95.5t-40 75t-65 49t-88.5 17.5q-34 0 -66.5 -7.5
t-48.5 -15.5v-448q7 -3 20 -6t28.5 -5.5t32.5 -4t32 -1.5q51 0 90.5 19t65.5 53t39.5 79.5t13.5 99.5z" />
    <glyph glyph-name="afii10083" unicode="&#x441;" horiz-adv-x="462" 
d="M410 27q-24 -17 -57 -27t-68 -10q-39 0 -79 15t-72 48.5t-52 86.5t-20 130q0 76 20 129.5t52 86.5t72 48t79 15q35 0 68.5 -10.5t56.5 -26.5l-16 -30q-21 14 -50 23.5t-59 9.5q-32 0 -65 -12.5t-59.5 -41t-43 -75.5t-16.5 -116t16.5 -116t43 -76t59.5 -41.5t65 -12.5
q30 0 59 9.5t50 23.5z" />
    <glyph glyph-name="afii10084" unicode="&#x442;" horiz-adv-x="440" 
d="M239 505v-505h-38v505h-169v34h376v-34h-169z" />
    <glyph glyph-name="afii10085" unicode="&#x443;" horiz-adv-x="532" 
d="M482 539q-23 -140 -69 -267t-108 -251l-118 -236h-42l111 215q-33 64 -64.5 129.5t-58.5 132.5t-48.5 136.5t-34.5 140.5h39q23 -128 72.5 -253t112.5 -248h2q60 121 103.5 244t63.5 257h39z" />
    <glyph glyph-name="afii10086" unicode="&#x444;" horiz-adv-x="749" 
d="M685 270q0 -48 -9.5 -98t-32.5 -90.5t-61 -66t-95 -25.5q-25 0 -50 8t-44 22v-235h-37v235q-19 -14 -44 -22t-50 -8q-57 0 -95 25.5t-61 66t-32.5 90.5t-9.5 98t9.5 98t32.5 90t61 65.5t95 25.5q25 0 50 -8t44 -22v266h37v-266q19 14 44 22t50 8q57 0 95 -25.5t61 -65.5
t32.5 -90t9.5 -98zM648 270q0 40 -7 83.5t-25 80t-49.5 60t-79.5 23.5q-26 0 -51 -8t-43 -21v-437q18 -13 43 -21t51 -8q48 0 79.5 24t49.5 60.5t25 80t7 83.5zM356 488q-18 13 -43 21t-51 8q-48 0 -79.5 -23.5t-49.5 -60t-25 -80t-7 -83.5t7 -83.5t25 -80t49.5 -60.5
t79.5 -24q26 0 51 8t43 21v437z" />
    <glyph glyph-name="afii10087" unicode="&#x445;" horiz-adv-x="490" 
d="M411 0l-165 251h-2l-165 -251h-43l187 280l-173 259h43l151 -229h2l151 229h43l-173 -259l187 -280h-43z" />
    <glyph glyph-name="afii10088" unicode="&#x446;" horiz-adv-x="546" 
d="M483 -146h-32l-4 146h-363v539h38v-505h290v505h38v-504l36 -14z" />
    <glyph glyph-name="afii10089" unicode="&#x447;" horiz-adv-x="534" 
d="M412 0v239q-29 -16 -64.5 -27t-73.5 -11q-95 0 -145.5 47t-50.5 139v152h38v-152q0 -152 158 -152q36 0 72.5 11.5t65.5 28.5v264h38v-539h-38z" />
    <glyph glyph-name="afii10090" unicode="&#x448;" horiz-adv-x="810" 
d="M84 0v539h38v-506h264v506h38v-506h264v506h38v-539h-642z" />
    <glyph glyph-name="afii10091" unicode="&#x449;" horiz-adv-x="822" 
d="M759 -146h-32l-4 146h-639v539h38v-506h264v506h38v-506h264v506h38v-504l36 -14z" />
    <glyph glyph-name="afii10092" unicode="&#x44a;" horiz-adv-x="578" 
d="M518 157q0 -76 -50 -121.5t-141 -45.5q-41 0 -81 10t-70 27v478h-144v34h182v-229q19 6 49.5 11t54.5 5q51 0 88.5 -12.5t62 -35t37 -53.5t12.5 -68zM480 157q0 62 -38.5 98.5t-123.5 36.5q-23 0 -54 -4.5t-50 -10.5v-229q18 -9 50 -16.5t63 -7.5q76 0 114.5 35t38.5 98z
" />
    <glyph glyph-name="afii10093" unicode="&#x44b;" horiz-adv-x="648" 
d="M526 0v539h38v-539h-38zM426 157q0 -76 -50 -121.5t-141 -45.5q-41 0 -81 10t-70 27v512h38v-229q19 6 49.5 11t54.5 5q51 0 88.5 -12.5t62 -35t37 -53.5t12.5 -68zM388 157q0 62 -38.5 98.5t-123.5 36.5q-23 0 -54 -4.5t-50 -10.5v-229q18 -9 50 -16.5t63 -7.5
q76 0 114.5 35t38.5 98z" />
    <glyph glyph-name="afii10094" unicode="&#x44c;" horiz-adv-x="486" 
d="M426 157q0 -76 -50 -121.5t-141 -45.5q-41 0 -81 10t-70 27v512h38v-229q19 6 49.5 11t54.5 5q51 0 88.5 -12.5t62 -35t37 -53.5t12.5 -68zM388 157q0 62 -38.5 98.5t-123.5 36.5q-23 0 -54 -4.5t-50 -10.5v-229q18 -9 50 -16.5t63 -7.5q76 0 114.5 35t38.5 98z" />
    <glyph glyph-name="afii10095" unicode="&#x44d;" horiz-adv-x="496" 
d="M434 270q0 -72 -20 -125t-54.5 -87.5t-79.5 -51t-94 -16.5q-38 0 -75 9.5t-61 27.5l16 30q19 -14 53.5 -23.5t66.5 -9.5q41 0 78.5 14t66.5 43t46.5 74t18.5 107h-294v34h293q-3 58 -21.5 99.5t-47 68t-65 39t-75.5 12.5q-32 0 -66.5 -9.5t-53.5 -23.5l-16 30
q24 18 61 27.5t75 9.5q49 0 94 -16.5t79.5 -51t54.5 -87t20 -124.5z" />
    <glyph glyph-name="afii10096" unicode="&#x44e;" horiz-adv-x="736" 
d="M670 270q0 -60 -13 -111t-38 -88.5t-63 -59t-87 -21.5q-48 0 -85.5 20.5t-63 57t-38.5 86.5t-14 108h-146v-262h-38v539h38v-243h147q3 55 17 101t39 80t61 53t83 19q49 0 87 -21t63 -58.5t38 -88.5t13 -111zM632 270q0 52 -10 96.5t-30.5 77.5t-51 52t-71.5 19t-72 -19
t-51.5 -52t-30.5 -77.5t-10 -96.5t10 -97t30.5 -78t51.5 -52t72 -19t71.5 19t51 52t30.5 78t10 97z" />
    <glyph glyph-name="afii10097" unicode="&#x44f;" horiz-adv-x="516" 
d="M393 0v242h-108q-38 0 -64 -19.5t-43 -52.5l-88 -170h-42l92 176q14 26 33 46t40 29v2q-61 8 -100.5 44.5t-39.5 99.5q0 67 51.5 109.5t145.5 42.5q51 0 92 -10.5t68 -26.5v-512h-37zM393 493q-20 11 -51 17t-72 6q-78 0 -119 -32.5t-41 -86.5q0 -57 39.5 -90t125.5 -33
h118v219z" />
    <glyph glyph-name="afii10071" unicode="&#x451;" horiz-adv-x="548" 
d="M486 331v-14q0 -6 -1 -14l-386 -58q5 -110 60.5 -165.5t148.5 -55.5q41 0 80 9.5t64 24.5l15 -31q-26 -16 -68 -26.5t-91 -10.5q-55 0 -100.5 17.5t-77.5 52.5t-50 87.5t-18 122.5q0 62 15.5 113.5t44.5 88t70.5 57t92.5 20.5q45 0 82 -14t63.5 -42t41 -68.5t14.5 -93.5z
M449 330q-1 96 -46 140.5t-118 44.5q-44 0 -78 -17t-58 -48.5t-37 -75t-14 -96.5zM394 668q0 -14 -9 -23t-23 -9t-23 9t-9 23t9 23t23 9t23 -9t9 -23zM226 668q0 -14 -9 -23t-23 -9t-23 9t-9 23t9 23t23 9t23 -9t9 -23z" />
    <glyph glyph-name="afii10099" unicode="&#x452;" horiz-adv-x="550" 
d="M484 225q0 -68 -15 -131.5t-43.5 -117.5t-70.5 -96.5t-95 -67.5l-18 31q49 23 87.5 62t64 88.5t39 108.5t13.5 123q0 59 -11 111.5t-35 92t-61.5 62.5t-90.5 23q-32 0 -64.5 -10t-61.5 -29v-475h-38v644h-84v30h84v111h38v-111h184v-30h-184v-133q27 17 58.5 27t67.5 10
q63 0 107.5 -25.5t73 -70t42 -103t13.5 -124.5z" />
    <glyph glyph-name="afii10100" unicode="&#x453;" horiz-adv-x="410" 
d="M126 505v-505h-38v539h290v-34h-252zM234 604h-35l76 130q6 8 14 12t16 4t14 -4t8 -12z" />
    <glyph glyph-name="afii10101" unicode="&#x454;" horiz-adv-x="496" 
d="M446 27q-24 -18 -61 -27.5t-75 -9.5q-50 0 -94.5 16.5t-79 51t-54.5 87.5t-20 125t20 124.5t54.5 87t79 51t94.5 16.5q38 0 75 -9.5t61 -27.5l-16 -30q-19 14 -53.5 23.5t-66.5 9.5q-39 0 -75.5 -12.5t-65 -39t-47 -68t-21.5 -99.5h293v-34h-294q1 -62 18.5 -107
t46.5 -74t66.5 -43t78.5 -14q32 0 66.5 9.5t53.5 23.5z" />
    <glyph glyph-name="afii10102" unicode="&#x455;" horiz-adv-x="444" 
d="M384 134q0 -65 -49.5 -104.5t-134.5 -39.5q-38 0 -78.5 10t-69.5 27l17 31q23 -14 59.5 -24t71.5 -10q66 0 105.5 29.5t39.5 80.5q0 27 -10 46t-27.5 33.5t-42 25.5t-52.5 22q-31 12 -58 25t-46.5 30.5t-31 41.5t-11.5 57q0 28 11 52.5t31.5 42.5t51 28.5t69.5 10.5
q41 0 76 -10.5t59 -26.5l-17 -31q-20 14 -51.5 24t-66.5 10q-60 0 -92.5 -29t-32.5 -71q0 -27 9.5 -45.5t26 -32t39 -23.5t49.5 -20q33 -12 61.5 -25.5t49.5 -31.5t33 -42.5t12 -60.5z" />
    <glyph glyph-name="afii10103" unicode="&#x456;" horiz-adv-x="218" 
d="M90 0v539h38v-539h-38zM141 668q0 -14 -9 -23t-23 -9t-23 9t-9 23t9 23t23 9t23 -9t9 -23z" />
    <glyph glyph-name="afii10104" unicode="&#x457;" horiz-adv-x="218" 
d="M90 0v539h38v-539h-38zM225 668q0 -14 -9 -23t-23 -9t-23 9t-9 23t9 23t23 9t23 -9t9 -23zM57 668q0 -14 -9 -23t-23 -9t-23 9t-9 23t9 23t23 9t23 -9t9 -23z" />
    <glyph glyph-name="afii10105" unicode="&#x458;" horiz-adv-x="218" 
d="M128 47q0 -60 -15.5 -105.5t-41 -78t-58.5 -53t-69 -30.5v36q29 10 55.5 28.5t46.5 47t32 67t12 88.5v492h38v-492zM141 668q0 -14 -9 -23t-23 -9t-23 9t-9 23t9 23t23 9t23 -9t9 -23z" />
    <glyph glyph-name="afii10106" unicode="&#x459;" horiz-adv-x="822" 
d="M762 157q0 -76 -50 -121.5t-141 -45.5q-41 0 -81 10t-70 27v478h-169l-15 -107q-8 -56 -17.5 -117t-29.5 -117t-55 -102.5t-93 -73.5l-17 32q50 23 80.5 65t49 94t28 110t17.5 114l19 136h240v-229q19 6 49.5 11t54.5 5q51 0 88.5 -12.5t62 -35t37 -53.5t12.5 -68z
M724 157q0 62 -38.5 98.5t-123.5 36.5q-23 0 -54 -4.5t-50 -10.5v-229q18 -9 50 -16.5t63 -7.5q76 0 114.5 35t38.5 98z" />
    <glyph glyph-name="afii10107" unicode="&#x45a;" horiz-adv-x="800" 
d="M740 157q0 -76 -50 -121.5t-141 -45.5q-41 0 -81 10t-70 27v235h-276v-262h-38v539h38v-243h276v243h38v-229q19 6 49.5 11t54.5 5q51 0 88.5 -12.5t62 -35t37 -53.5t12.5 -68zM702 157q0 62 -38.5 98.5t-123.5 36.5q-23 0 -54 -4.5t-50 -10.5v-229q18 -9 50 -16.5
t63 -7.5q76 0 114.5 35t38.5 98z" />
    <glyph glyph-name="afii10108" unicode="&#x45b;" horiz-adv-x="544" 
d="M422 0v372q0 73 -43 107.5t-118 34.5q-36 0 -73 -11.5t-66 -28.5v-474h-38v644h-84v30h84v111h38v-111h184v-30h-184v-134q29 17 65 27.5t74 10.5q92 0 145.5 -45t53.5 -131v-372h-38z" />
    <glyph glyph-name="afii10109" unicode="&#x45c;" horiz-adv-x="480" 
d="M410 0l-115 168q-27 40 -70.5 70t-100.5 30v-268h-38v539h38v-253h2l271 253h53l-273 -248q54 -13 90 -42t65 -72l122 -177h-44zM238 604h-35l76 130q6 8 14 12t16 4t14 -4t8 -12z" />
    <glyph glyph-name="afii10110" unicode="&#x45e;" horiz-adv-x="532" 
d="M482 539q-23 -140 -69 -267t-108 -251l-118 -236h-42l111 215q-33 64 -64.5 129.5t-58.5 132.5t-48.5 136.5t-34.5 140.5h39q23 -128 72.5 -253t112.5 -248h2q60 121 103.5 244t63.5 257h39zM390 724q-4 -56 -37 -88t-87 -32t-87 32t-37 88l31 5q8 -45 30 -67.5t63 -22.5
t63 22.5t30 67.5z" />
    <glyph glyph-name="afii10193" unicode="&#x45f;" horiz-adv-x="540" 
d="M290 0l-5 -146h-30l-5 146h-166v539h38v-505h296v505h38v-539h-166z" />
    <glyph glyph-name="afii10050" unicode="&#x490;" horiz-adv-x="486" 
d="M134 688v-688h-40v724h318v130h40v-166h-318z" />
    <glyph glyph-name="afii10098" unicode="&#x491;" horiz-adv-x="416" 
d="M126 505v-505h-38v539h258v123h38v-157h-258z" />
    <glyph glyph-name="endash" unicode="&#x2013;" horiz-adv-x="400" 
d="M-4 307v36h408v-36h-408z" />
    <glyph glyph-name="emdash" unicode="&#x2014;" horiz-adv-x="800" 
d="M90 307v36h620v-36h-620z" />
    <glyph glyph-name="quoteleft" unicode="&#x2018;" horiz-adv-x="248" 
d="M108 568q-5 -7 -11.5 -11t-16.5 -4t-15 4.5t-7 10.5l99 217h33z" />
    <glyph glyph-name="quoteright" unicode="&#x2019;" horiz-adv-x="248" 
d="M91 557h-33l82 217q5 7 11.5 11t16.5 4t15 -4.5t7 -10.5z" />
    <glyph glyph-name="quotesinglbase" unicode="&#x201a;" horiz-adv-x="248" 
d="M91 -169h-33l82 217q5 7 11.5 11t16.5 4t15 -4.5t7 -10.5z" />
    <glyph glyph-name="quotedblleft" unicode="&#x201c;" horiz-adv-x="404" 
d="M264 568q-5 -7 -11.5 -11t-16.5 -4t-15 4.5t-7 10.5l99 217h33zM108 568q-5 -7 -11.5 -11t-16.5 -4t-15 4.5t-7 10.5l99 217h33z" />
    <glyph glyph-name="quotedblright" unicode="&#x201d;" horiz-adv-x="404" 
d="M247 557h-33l82 217q5 7 11.5 11t16.5 4t15 -4.5t7 -10.5zM91 557h-33l82 217q5 7 11.5 11t16.5 4t15 -4.5t7 -10.5z" />
    <glyph glyph-name="quotedblbase" unicode="&#x201e;" horiz-adv-x="404" 
d="M247 -169h-33l82 217q5 7 11.5 11t16.5 4t15 -4.5t7 -10.5zM91 -169h-33l82 217q5 7 11.5 11t16.5 4t15 -4.5t7 -10.5z" />
    <glyph glyph-name="dagger" unicode="&#x2020;" horiz-adv-x="608" 
d="M323 505v-720h-38v720h-211v34h211v246h38v-246h211v-34h-211z" />
    <glyph glyph-name="daggerdbl" unicode="&#x2021;" horiz-adv-x="608" 
d="M323 185v-400h-38v400h-211v34h211v286h-211v34h211v246h38v-246h211v-34h-211v-286h211v-34h-211z" />
    <glyph glyph-name="bullet" unicode="&#x2022;" horiz-adv-x="300" 
d="M210 325q0 -25 -17.5 -42.5t-42.5 -17.5t-42.5 17.5t-17.5 42.5t17.5 42.5t42.5 17.5t42.5 -17.5t17.5 -42.5z" />
    <glyph glyph-name="ellipsis" unicode="&#x2026;" horiz-adv-x="708" 
d="M624 29q0 -14 -10 -24t-24 -10t-24 10t-10 24t10 24t24 10t24 -10t10 -24zM388 29q0 -14 -10 -24t-24 -10t-24 10t-10 24t10 24t24 10t24 -10t10 -24zM152 29q0 -14 -10 -24t-24 -10t-24 10t-10 24t10 24t24 10t24 -10t10 -24z" />
    <glyph glyph-name="perthousand" unicode="&#x2030;" horiz-adv-x="1280" 
d="M1200 190q0 -44 -9.5 -81t-27.5 -63.5t-44.5 -41t-60.5 -14.5t-60.5 14.5t-44.5 41t-27.5 63.5t-9.5 81t9.5 81t27.5 63.5t44.5 41t60.5 14.5t60.5 -14.5t44.5 -41t27.5 -63.5t9.5 -81zM824 190q0 -44 -9.5 -81t-27.5 -63.5t-44.5 -41t-60.5 -14.5t-60.5 14.5t-44.5 41
t-27.5 63.5t-9.5 81t9.5 81t27.5 63.5t44.5 41t60.5 14.5t60.5 -14.5t44.5 -41t27.5 -63.5t9.5 -81zM334 -7l-34 12l268 726l34 -12zM364 534q0 -44 -9.5 -81t-27.5 -63.5t-44.5 -41t-60.5 -14.5t-60.5 14.5t-44.5 41t-27.5 63.5t-9.5 81t9.5 81t27.5 63.5t44.5 41
t60.5 14.5t60.5 -14.5t44.5 -41t27.5 -63.5t9.5 -81zM1162 190q0 75 -27 120.5t-77 45.5t-77 -45.5t-27 -120.5t27 -120.5t77 -45.5t77 45.5t27 120.5zM786 190q0 75 -27 120.5t-77 45.5t-77 -45.5t-27 -120.5t27 -120.5t77 -45.5t77 45.5t27 120.5zM326 534q0 75 -27 120.5
t-77 45.5t-77 -45.5t-27 -120.5t27 -120.5t77 -45.5t77 45.5t27 120.5z" />
    <glyph glyph-name="guilsinglleft" unicode="&#x2039;" horiz-adv-x="370" 
d="M256 72l-180 233l180 233l28 -23l-163 -210l163 -210z" />
    <glyph glyph-name="guilsinglright" unicode="&#x203a;" horiz-adv-x="370" 
d="M114 72l-28 23l163 210l-163 210l28 23l180 -233z" />
    <glyph glyph-name="Euro" unicode="&#x20ac;" horiz-adv-x="720" 
d="M666 27q-26 -17 -70.5 -27t-98.5 -10t-103.5 16.5t-90 50t-70 85t-41.5 121.5h-118v32h114q-2 16 -3 32.5t-1 34.5q0 20 1.5 38.5t3.5 36.5h-115v32h120q13 68 42 118t69.5 82.5t89.5 48.5t102 16q54 0 98.5 -10t70.5 -27l-16 -32q-22 14 -62.5 23.5t-90.5 9.5
q-46 0 -88.5 -13.5t-77.5 -41t-61 -71t-38 -103.5h318v-32h-323q-2 -17 -3.5 -36t-1.5 -39q0 -18 1 -34.5t3 -32.5h324v-32h-319q12 -62 37.5 -106.5t60.5 -73.5t78 -43t90 -14q50 0 90.5 9.5t62.5 23.5z" />
    <glyph glyph-name="afii61352" unicode="&#x2116;" horiz-adv-x="1086" 
d="M1026 549q0 -39 -10 -73t-29.5 -59t-48 -39.5t-66.5 -14.5t-66.5 14.5t-48 39.5t-29.5 59t-10 73t10 73t29.5 59t48 39t66.5 14t66.5 -14t48 -39t29.5 -59t10 -73zM562 0l-393 617q-8 12 -15 25.5t-13 24.5q-7 13 -13 25h-2q0 -13 1 -27q0 -12 0.5 -27.5t0.5 -29.5v-608
h-38v724h54l387 -608q8 -13 15.5 -26t13.5 -24q7 -12 13 -24h2q-1 13 -1 27v655h38v-724h-50zM990 549q0 33 -7.5 60.5t-22.5 48t-37 32t-51 11.5t-51 -11.5t-37 -32t-22.5 -48t-7.5 -60.5t7.5 -61t22.5 -48.5t37 -32t51 -11.5t51 11.5t37 32t22.5 48.5t7.5 61zM728 238v33
h288v-33h-288z" />
    <glyph glyph-name="trademark" unicode="&#x2122;" horiz-adv-x="956" 
d="M850 294l-50 354q-2 8 -2 16.5t-1 15.5q-1 8 -1 15h-2q-2 -7 -4 -15q-2 -7 -4.5 -15.5t-4.5 -16.5l-117 -354h-44l-117 354q-3 8 -5 16.5t-4 15.5q-2 8 -4 15h-2q0 -7 -1 -15q-1 -7 -1.5 -15.5t-1.5 -16.5l-50 -354h-36l62 430h54l114 -347q2 -9 4.5 -17.5t4.5 -15.5
l4 -16h2q2 7 4 16q2 7 4 16t5 17l114 347h54l62 -430h-36zM228 692v-398h-36v398h-132v32h300v-32h-132z" />
    <glyph glyph-name="minus" unicode="&#x2212;" horiz-adv-x="580" 
d="M80 307v36h420v-36h-420z" />
    <glyph glyph-name="uni2219" unicode="&#x2219;" horiz-adv-x="236" 
d="M152 325q0 -14 -10 -24t-24 -10t-24 10t-10 24t10 24t24 10t24 -10t10 -24z" />
    <glyph glyph-name="radical" unicode="&#x221a;" horiz-adv-x="772" 
d="M371 -215h-44l-194 522h-103v36h130l163 -442l17 -51q4 -13 8 -25h2q2 12 6 25q3 11 6.5 24t8.5 27l289 884h42z" />
    <glyph glyph-name="infinity" unicode="&#x221e;" horiz-adv-x="960" 
d="M890 325q0 -49 -14.5 -90t-40.5 -71t-61.5 -46.5t-78.5 -16.5q-47 0 -80.5 15.5t-58 41t-42.5 58.5t-34 68q-16 -35 -34 -68t-42.5 -58.5t-58 -41t-80.5 -15.5q-43 0 -78.5 16.5t-61.5 46.5t-40.5 71t-14.5 90t14.5 90t40.5 71t61.5 46.5t78.5 16.5q47 0 80.5 -15.5
t58 -41t42.5 -58.5t34 -68q16 35 34 68t42.5 58.5t58 41t80.5 15.5q43 0 78.5 -16.5t61.5 -46.5t40.5 -71t14.5 -90zM852 325q0 43 -11.5 78t-32.5 60t-50 38.5t-63 13.5q-42 0 -72 -16t-52 -43t-39 -61t-33 -70q16 -36 33 -70t39 -61t52 -43t72 -16q34 0 63 13.5t50 38.5
t32.5 60t11.5 78zM461 325q-16 36 -33 70t-39 61t-52 43t-72 16q-35 0 -63.5 -13.5t-49.5 -38.5t-32.5 -60t-11.5 -78t11.5 -78t32.5 -60t49.5 -38.5t63.5 -13.5q42 0 72 16t52 43t39 61t33 70z" />
    <glyph glyph-name="uni2224" unicode="&#x2224;" horiz-adv-x="236" 
d="M152 325q0 -14 -10 -24t-24 -10t-24 10t-10 24t10 24t24 10t24 -10t10 -24z" />
    <glyph glyph-name="logicaland" unicode="&#x2227;" horiz-adv-x="236" 
d="M152 325q0 -14 -10 -24t-24 -10t-24 10t-10 24t10 24t24 10t24 -10t10 -24z" />
    <glyph glyph-name="approxequal" unicode="&#x2248;" horiz-adv-x="580" 
d="M505 449q-15 -38 -45.5 -60.5t-72.5 -22.5q-29 0 -53 11t-46.5 24t-45 24t-47.5 11q-34 0 -56.5 -19t-35.5 -48l-28 20q15 38 45.5 60.5t72.5 22.5q29 0 53 -11t46.5 -24t44.5 -24t48 -11q34 0 56.5 19t35.5 48zM505 261q-15 -38 -45.5 -60.5t-72.5 -22.5q-29 0 -53 11
t-46.5 24t-45 24t-47.5 11q-34 0 -56.5 -19t-35.5 -48l-28 20q15 38 45.5 60.5t72.5 22.5q29 0 53 -11t46.5 -24t44.5 -24t48 -11q34 0 56.5 19t35.5 48z" />
    <glyph glyph-name="notequal" unicode="&#x2260;" horiz-adv-x="580" 
d="M250 213l-67 -126l-28 15l59 111h-134v36h153l80 152h-233v36h253l61 116l28 -15l-53 -101h131v-36h-150l-81 -152h231v-36h-250z" />
    <glyph glyph-name="lessequal" unicode="&#x2264;" horiz-adv-x="580" 
d="M80 340v30l420 179v-40l-375 -154l375 -154v-40zM80 0v36h420v-36h-420z" />
    <glyph glyph-name="greaterequal" unicode="&#x2265;" horiz-adv-x="580" 
d="M80 161v40l375 154l-375 154v40l420 -179v-30zM80 0v36h420v-36h-420z" />
    <glyph glyph-name="dotmath" unicode="&#x22c5;" horiz-adv-x="236" 
d="M152 325q0 -14 -10 -24t-24 -10t-24 10t-10 24t10 24t24 10t24 -10t10 -24z" />
    <glyph glyph-name="grave.lc" horiz-adv-x="556" 
d="M273 604l-93 130q2 8 8 12t14 4t16 -4t14 -12l76 -130h-35z" />
    <glyph glyph-name="dieresis.lc" horiz-adv-x="556" 
d="M394 668q0 -14 -9 -23t-23 -9t-23 9t-9 23t9 23t23 9t23 -9t9 -23zM226 668q0 -14 -9 -23t-23 -9t-23 9t-9 23t9 23t23 9t23 -9t9 -23z" />
    <glyph glyph-name="macron.lc" 
d="M30 636v35h220v-35h-220z" />
    <glyph glyph-name="acute.lc" horiz-adv-x="556" 
d="M277 604h-35l76 130q6 8 14 12t16 4t14 -4t8 -12z" />
    <glyph glyph-name="circumflex.lc" horiz-adv-x="556" 
d="M382 604l-104 93l-104 -93l-21 19l98 99q13 14 27 14t27 -14l98 -99z" />
    <glyph glyph-name="caron.lc" horiz-adv-x="454" 
d="M247 620q-13 -14 -27 -14t-27 14l-98 99l21 19l104 -93l104 93l21 -19z" />
    <glyph glyph-name="breve.lc" 
d="M264 733q-4 -56 -37 -88t-87 -32t-87 32t-37 88l31 5q8 -45 30 -67.5t63 -22.5t63 22.5t30 67.5z" />
    <glyph glyph-name="dotaccent.lc" 
d="M172 668q0 -14 -9 -23t-23 -9t-23 9t-9 23t9 23t23 9t23 -9t9 -23z" />
    <glyph glyph-name="ring.lc" horiz-adv-x="518" 
d="M345 683q0 -17 -6.5 -32.5t-18 -26.5t-27 -17.5t-33.5 -6.5t-33.5 6.5t-27 17.5t-18 26.5t-6.5 32.5t6.5 32t18 26.5t27 18t33.5 6.5t33.5 -6.5t27 -18t18 -26.5t6.5 -32zM316 683q0 23 -16.5 39.5t-39.5 16.5t-39.5 -16.5t-16.5 -39.5t16.5 -39.5t39.5 -16.5t39.5 16.5
t16.5 39.5z" />
    <glyph glyph-name="tilde.lc" horiz-adv-x="556" 
d="M399 692q-5 -28 -23 -49.5t-50 -21.5q-20 0 -33 8.5t-24 18t-21.5 18t-23.5 8.5q-20 0 -31.5 -16t-15.5 -37l-28 17q5 28 23 49.5t50 21.5q19 0 32.5 -8.5t24.5 -18t21 -18t24 -8.5q20 0 31.5 16t15.5 37z" />
    <glyph glyph-name="hungarumlaut.lc" 
d="M185 604h-34l79 130q12 16 29 16t21 -16zM55 604h-34l79 130q12 16 29 16t21 -16z" />
    <glyph glyph-name="tonos.lc" 
d="M139 604h-33l50 129q10 16 26 16q17 0 24 -16z" />
    <glyph glyph-name="diedot.lc" horiz-adv-x="556" 
d="M226 668q0 -14 -9 -23t-23 -9t-23 9t-9 23t9 23t23 9t23 -9t9 -23z" />
    <glyph glyph-name="hungarumlaut.uc" 
d="M185 789h-34l79 130q12 16 29 16t21 -16zM55 789h-34l79 130q12 16 29 16t21 -16z" />
    <glyph glyph-name="tonos.uc" 
d="M31 566h-31v151q8 13 24 13t24 -13z" />
    <glyph glyph-name="diedot.uc" horiz-adv-x="682" 
d="M287 853q0 -14 -9 -23t-23 -9t-23 9t-9 23t9 23t23 9t23 -9t9 -23z" />
    <glyph glyph-name="ascendercaron" horiz-adv-x="170" 
d="M93 566h-31v151q8 13 23 13t23 -13z" />
    <glyph glyph-name="commaaccent" horiz-adv-x="236" 
d="M49 -215h-35l52 137q12 15 29 15q10 0 15.5 -4.5t7.5 -10.5z" />
    <glyph glyph-name="commaturn" horiz-adv-x="236" 
d="M77 616q-12 -15 -29 -15q-10 0 -15.5 4.5t-7.5 10.5l69 137h35z" />
    <glyph glyph-name="undercommaaccent" horiz-adv-x="236" 
d="M49 -215h-35l52 137q12 15 29 15q10 0 15.5 -4.5t7.5 -10.5z" />
    </font>
</defs>
</svg>
