<?xml version="1.0" standalone="no"?>
<!DOCTYPE svg PUBLIC "-//W3C//DTD SVG 1.1//EN" "http://www.w3.org/Graphics/SVG/1.1/DTD/svg11.dtd" >
<svg xmlns="http://www.w3.org/2000/svg" xmlns:xlink="http://www.w3.org/1999/xlink" version="1.1">
<metadata>
Created by FontForge 20170731 at Thu Oct 26 16:35:00 2006
 By Aleksey,,,
2005 Hans Reichel, published by FontShop International for the FontFont library.
</metadata>
<defs>
<font id="DaxlineCyr-ExtraBold" horiz-adv-x="540" >
  <font-face 
    font-family="DaxlineCyr-ExtraBold"
    font-weight="400"
    font-stretch="normal"
    units-per-em="1000"
    panose-1="2 0 5 3 3 0 0 2 0 4"
    ascent="800"
    descent="-200"
    x-height="539"
    cap-height="724"
    bbox="-422 -227 1286 952"
    underline-thickness="109"
    underline-position="-225"
    unicode-range="U+0020-22C5"
  />
<missing-glyph horiz-adv-x="500" 
d="M0 700h500v-700h-500v700zM420 650h-340l170 -255zM450 95v510l-170 -255zM420 50l-170 255l-170 -255h340zM50 95l170 255l-170 255v-510z" />
    <glyph glyph-name=".notdef" horiz-adv-x="500" 
d="M0 700h500v-700h-500v700zM420 650h-340l170 -255zM450 95v510l-170 -255zM420 50l-170 255l-170 -255h340zM50 95l170 255l-170 255v-510z" />
    <glyph glyph-name=".null" horiz-adv-x="0" 
 />
    <glyph glyph-name="nonmarkingreturn" horiz-adv-x="236" 
 />
    <glyph glyph-name="space" unicode=" " horiz-adv-x="236" 
 />
    <glyph glyph-name="exclam" unicode="!" horiz-adv-x="302" 
d="M223 263h-143l-26 461h194zM252 91q0 -21 -8 -39.5t-21.5 -32t-32 -21.5t-39.5 -8t-39.5 8t-32 21.5t-21.5 32t-8 39.5t8 39t21.5 31.5t32 21.5t39.5 8t39.5 -8t32 -21.5t21.5 -31.5t8 -39z" />
    <glyph glyph-name="quotedbl" unicode="&#x22;" horiz-adv-x="485" 
d="M400 391h-92l-29 306q14 19 33.5 28t41.5 9t41.5 -9t33.5 -28zM177 391h-92l-29 306q14 19 33.5 28t41.5 9t41.5 -9t33.5 -28z" />
    <glyph glyph-name="numbersign" unicode="#" horiz-adv-x="750" 
d="M576 437l-20 -142h101v-112h-117l-26 -183h-126l27 183h-139l-26 -183h-125l26 183h-103v112h118l21 142h-101v112h117l25 175h125l-25 -175h139l25 175h125l-25 -175h102v-112h-118zM312 437l-20 -142h138l21 142h-139z" />
    <glyph glyph-name="dollar" unicode="$" horiz-adv-x="565" 
d="M516 217q0 -87 -50.5 -146.5t-144.5 -76.5l11 -153h-133l18 147q-47 3 -94.5 14t-76.5 25l58 146q26 -14 64 -24t73 -10q49 0 75 17t26 50q0 15 -7.5 27t-19.5 22.5t-28 19t-34 16.5q-30 13 -65 31t-64.5 44.5t-49 62t-19.5 85.5q0 85 49 142t139 74l-10 146h129
l-18 -140q48 -3 86.5 -14t65.5 -25l-55 -135q-20 11 -53.5 20.5t-68.5 9.5q-48 0 -70.5 -17.5t-22.5 -48.5q0 -29 27 -50t62 -38q30 -15 65.5 -33t65.5 -43.5t50 -60.5t20 -84z" />
    <glyph glyph-name="percent" unicode="%" horiz-adv-x="991" 
d="M945 215q0 -49 -11.5 -90.5t-34.5 -72t-57 -47.5t-79 -17t-79 17t-57 47.5t-34.5 72t-11.5 90.5t11.5 90.5t34.5 72t57 47.5t79 17t79 -17t57 -47.5t34.5 -72t11.5 -90.5zM412 -14l-100 31l266 721l101 -31zM409 509q0 -49 -11.5 -90.5t-34 -72t-56.5 -47.5t-79 -17
t-79 17t-57 47.5t-34.5 72t-11.5 90.5t11.5 90.5t34.5 72t57 47.5t79 17t79 -17t56.5 -47.5t34 -72t11.5 -90.5zM821 217q0 121 -58 121t-58 -121t58 -121t58 121zM285 511q0 121 -57 121q-58 0 -58 -121t58 -121q57 0 57 121z" />
    <glyph glyph-name="ampersand" unicode="&#x26;" horiz-adv-x="707" 
d="M568 359v-332q-36 -16 -96 -27.5t-137 -11.5q-142 0 -218.5 54t-76.5 157q0 72 38 117.5t92 65.5v2q-53 21 -78.5 63t-25.5 91q0 38 15 74t45 63.5t75 44t105 16.5q57 0 104.5 -11t79.5 -28l-50 -126q-21 11 -50.5 18.5t-61.5 7.5q-48 0 -73 -19.5t-25 -54.5t24 -55
t67 -20q12 0 27.5 0.5t35.5 4.5l271 48l21 -125zM407 332l-87 -14q-53 -9 -82.5 -35t-29.5 -71q0 -49 33.5 -73.5t98.5 -24.5q17 0 37 2.5t30 6.5v209z" />
    <glyph glyph-name="quotesingle" unicode="'" horiz-adv-x="262" 
d="M177 391h-92l-29 306q14 19 33.5 28t41.5 9t41.5 -9t33.5 -28z" />
    <glyph glyph-name="parenleft" unicode="(" horiz-adv-x="413" 
d="M268 -223q-105 105 -164 237t-59 284t59 283.5t164 236.5l122 -65q-75 -91 -120 -206t-45 -249t45 -249t120 -206z" />
    <glyph glyph-name="parenright" unicode=")" horiz-adv-x="413" 
d="M368 298q0 -152 -59 -284t-164 -237l-122 66q75 91 120 206t45 249t-45 249t-120 206l122 65q105 -105 164 -236.5t59 -283.5z" />
    <glyph glyph-name="asterisk" unicode="*" horiz-adv-x="574" 
d="M532 597q0 -22 -12 -41l-151 -30l105 -115q-1 -17 -9 -32t-20.5 -26t-28.5 -18t-32 -7q-10 0 -19 3l-73 131l-73 -131q-9 -3 -19 -3q-17 0 -32.5 7t-28 18t-20.5 26t-9 32l105 115l-151 30q-12 19 -12 41q0 26 13.5 49t38.5 34l136 -62l-17 151q25 30 69 30q43 0 69 -30
l-17 -151l136 62q25 -11 38.5 -34t13.5 -49z" />
    <glyph glyph-name="plus" unicode="+" 
d="M337 262v-151h-135v151h-146v126h146v151h135v-151h147v-126h-147z" />
    <glyph glyph-name="comma" unicode="," horiz-adv-x="280" 
d="M96 -169h-112l95 303q16 24 41.5 40.5t63.5 16.5t54.5 -16.5t20.5 -40.5z" />
    <glyph glyph-name="hyphen" unicode="-" horiz-adv-x="394" 
d="M51 256v138h292v-138h-292z" />
    <glyph glyph-name="period" unicode="." horiz-adv-x="280" 
d="M240 90q0 -42 -29 -71t-71 -29t-71 29t-29 71t29 71t71 29t71 -29t29 -71z" />
    <glyph glyph-name="slash" unicode="/" horiz-adv-x="497" 
d="M141 -206l-155 44l331 969l154 -44z" />
    <glyph glyph-name="zero" unicode="0" horiz-adv-x="602" 
d="M560 270q0 -60 -16.5 -112t-49 -89.5t-81 -59t-112.5 -21.5t-112.5 21.5t-81 59t-49 89.5t-16.5 112t16.5 111.5t49 89t81 59t112.5 21.5t112.5 -21.5t81 -59t49 -89t16.5 -111.5zM394 272q0 151 -93 151t-93 -151q0 -75 23.5 -113.5t69.5 -38.5t69.5 38.5t23.5 113.5z
" />
    <glyph glyph-name="one" unicode="1" horiz-adv-x="438" 
d="M205 0v359q-14 -8 -34 -15t-42 -13.5t-44.5 -11t-40.5 -6.5l-24 124q33 5 66.5 16t63.5 25t53.5 30t36.5 31h132v-539h-167z" />
    <glyph glyph-name="two" unicode="2" horiz-adv-x="496" 
d="M17 0l224 285q13 16 24 34.5t11 35.5q0 26 -17 43t-55 17q-31 0 -66 -9.5t-60 -21.5l-44 128q37 17 91.5 28t107.5 11q57 0 97.5 -13t66.5 -36t38 -54.5t12 -68.5q0 -36 -18.5 -70.5t-45.5 -63.5l-102 -110h178v-135h-442z" />
    <glyph glyph-name="three" unicode="3" horiz-adv-x="509" 
d="M476 44q0 -47 -18 -86.5t-52.5 -68t-84 -44.5t-112.5 -16q-54 0 -108 10.5t-96 28.5l50 127q27 -11 63 -19t71 -8q54 0 87 19t33 59q0 23 -12.5 40t-34.5 28.5t-52 17t-64 5.5h-7v119q73 5 113 30.5t40 63.5q0 29 -20 47.5t-66 18.5q-33 0 -70 -8.5t-68 -23.5l-46 128
q45 19 101 29t108 10q59 0 101.5 -14t69.5 -38.5t40 -58.5t13 -74q0 -24 -8.5 -46.5t-22.5 -42t-32.5 -35.5t-38.5 -26v-2q53 -22 88 -63.5t35 -106.5z" />
    <glyph glyph-name="four" unicode="4" horiz-adv-x="610" 
d="M506 0v-159h-153v159h-310v116l282 423h181v-423h62v-116h-62zM359 397q-6 -14 -13 -28q-6 -13 -15 -28t-19 -31l-127 -194h173v217q0 18 1 32q1 17 2 32h-2z" />
    <glyph glyph-name="five" unicode="5" horiz-adv-x="511" 
d="M478 54q0 -61 -22 -104t-59.5 -70t-86.5 -39t-102 -12q-55 0 -107 11t-94 28l51 127q26 -11 65 -19t77 -8q52 0 82 22t30 60q0 21 -8.5 39.5t-27 32t-49 21t-75.5 7.5q-22 0 -46.5 -2t-53.5 -6l43 397h360v-135h-221l-15 -134h4q124 0 189.5 -58.5t65.5 -157.5z" />
    <glyph glyph-name="six" unicode="6" horiz-adv-x="603" 
d="M563 221q0 -50 -18.5 -92.5t-52 -73.5t-81 -49t-105.5 -18q-70 0 -120 23t-82 61t-47 88.5t-15 106.5q0 94 34 169t92.5 130.5t135 91t162.5 52.5l40 -131q-100 -20 -167 -58t-102 -98q18 6 41.5 8.5t42.5 2.5q117 0 179.5 -56.5t62.5 -156.5zM402 222q0 49 -30 75
t-80 26q-23 0 -47 -3t-42 -9q-3 -21 -3 -44q0 -67 27 -108t79 -41q22 0 40 8.5t30.5 23t19 33t6.5 39.5z" />
    <glyph glyph-name="seven" unicode="7" horiz-adv-x="554" 
d="M249 -159h-185l242 563h-275v135h497z" />
    <glyph glyph-name="eight" unicode="8" horiz-adv-x="603" 
d="M563 182q0 -43 -18 -78.5t-52 -61t-82.5 -40t-109.5 -14.5t-109.5 14.5t-82 40t-51.5 61t-18 78.5q0 33 9.5 59.5t27 48t42 39.5t53.5 34q-52 32 -83.5 69.5t-31.5 92.5q0 40 16.5 73.5t48 58.5t77 39t102.5 14t102.5 -14t77 -39t48.5 -58.5t17 -73.5q0 -55 -31.5 -92.5
t-83.5 -69.5q29 -16 53.5 -34t42 -39.5t27 -48t9.5 -59.5zM392 521q0 33 -23 54.5t-68 21.5t-67.5 -21.5t-22.5 -54.5q0 -34 24 -55.5t66 -46.5q42 25 66.5 46.5t24.5 55.5zM403 190q0 39 -28 63.5t-74 49.5q-46 -25 -73.5 -49.5t-27.5 -63.5q0 -35 27 -58t74 -23t74.5 23
t27.5 58z" />
    <glyph glyph-name="nine" unicode="9" horiz-adv-x="603" 
d="M561 272q0 -95 -34 -169.5t-92.5 -130t-135.5 -91.5t-162 -52l-40 131q100 20 167 58t102 98q-18 -6 -41.5 -8.5t-42.5 -2.5q-117 0 -179.5 56.5t-62.5 156.5q0 49 18.5 92t52 74t81 49t105.5 18q70 0 120 -23t82 -61t47 -89t15 -106zM403 273q0 67 -27 108t-79 41
q-23 0 -40.5 -8.5t-30 -22.5t-19 -32.5t-6.5 -39.5q0 -49 30 -75.5t80 -26.5q23 0 47 3.5t42 9.5q3 21 3 43z" />
    <glyph glyph-name="colon" unicode=":" horiz-adv-x="308" 
d="M254 90q0 -42 -29 -71t-71 -29t-71 29t-29 71t29 71t71 29t71 -29t29 -71zM254 419q0 -42 -29 -71t-71 -29t-71 29t-29 71t29 71t71 29t71 -29t29 -71z" />
    <glyph glyph-name="semicolon" unicode=";" horiz-adv-x="308" 
d="M259 419q0 -42 -29 -71t-71 -29t-71 29t-29 71t29 71t71 29t71 -29t29 -71zM100 -169h-113l95 303q16 24 41.5 40.5t63.5 16.5t54.5 -16.5t20.5 -40.5z" />
    <glyph glyph-name="less" unicode="&#x3c;" 
d="M56 271v108l428 204v-148l-280 -110l280 -110v-148z" />
    <glyph glyph-name="equal" unicode="=" 
d="M56 377v126h428v-126h-428zM56 147v126h428v-126h-428z" />
    <glyph glyph-name="greater" unicode="&#x3e;" 
d="M56 67v148l279 110l-279 110v148l428 -204v-108z" />
    <glyph glyph-name="question" unicode="?" horiz-adv-x="513" 
d="M478 543q0 -38 -14.5 -67.5t-38 -52t-52.5 -38.5t-58 -26l-9 -96h-135l-14 175q30 6 57 15t47 21t32 27t12 34q0 33 -23.5 50.5t-78.5 17.5q-32 0 -68 -9t-61 -21l-51 124q41 17 94.5 28t109.5 11q121 0 186 -48t65 -145zM340 91q0 -21 -8 -39.5t-21.5 -32t-32 -21.5
t-39.5 -8t-39.5 8t-32 21.5t-21.5 32t-8 39.5t8 39t21.5 31.5t32 21.5t39.5 8t39.5 -8t32 -21.5t21.5 -31.5t8 -39z" />
    <glyph glyph-name="at" unicode="@" horiz-adv-x="1026" 
d="M982 333q0 -92 -30.5 -157t-83 -107t-122 -61.5t-148.5 -19.5q-147 0 -227 71.5t-80 203.5q0 125 66 193.5t182 68.5q66 0 110 -18.5t70 -40.5v-343q25 11 47.5 27.5t38.5 41.5t25.5 59.5t9.5 81.5q0 62 -19 114t-56.5 90t-93.5 59t-130 21q-83 0 -148.5 -26t-111.5 -74
t-70 -115t-24 -149q0 -80 27 -146t78.5 -113t127 -73t172.5 -26q88 0 166 22.5t128 56.5l70 -103q-62 -43 -153.5 -70.5t-210.5 -27.5q-124 0 -225 34.5t-173 97.5t-111 151.5t-39 196.5q0 105 34.5 193.5t99 153t156.5 100.5t207 36q104 0 186 -31t138.5 -85.5t86.5 -128
t30 -158.5zM581 402q-7 4 -19.5 7.5t-27.5 3.5q-101 0 -101 -150q0 -82 40.5 -118.5t107.5 -37.5v295z" />
    <glyph glyph-name="A" unicode="A" horiz-adv-x="668" 
d="M491 0l-42 147h-230l-42 -147h-178l234 724h202l234 -724h-178zM353 493q-9 32 -14 61q-3 15 -4 30h-2q-2 -15 -5 -30q-2 -14 -5 -29.5t-8 -31.5l-64 -223h166z" />
    <glyph glyph-name="B" unicode="B" horiz-adv-x="620" 
d="M584 199q0 -99 -73.5 -155t-221.5 -56q-66 0 -128 11t-101 28v670q44 17 103.5 28t125.5 11q73 0 125.5 -15t86.5 -42t50.5 -64t16.5 -81q0 -29 -8.5 -54.5t-23.5 -45.5t-34.5 -34.5t-41.5 -21.5v-2q21 -8 43 -23t40 -37t29.5 -51.5t11.5 -65.5zM407 516q0 44 -27 69
t-92 25q-19 0 -37.5 -2.5t-29.5 -6.5v-176h80q29 0 48 5.5t30 15.5q13 11 20.5 29t7.5 41zM416 211q0 50 -33 74q-14 10 -32.5 15.5t-48.5 5.5h-81v-183q12 -4 31 -6.5t37 -2.5q66 0 96.5 23t30.5 74z" />
    <glyph glyph-name="C" unicode="C" horiz-adv-x="515" 
d="M488 27q-26 -17 -66.5 -28t-91.5 -11q-61 0 -114 23t-92 69.5t-61.5 117t-22.5 164.5t22.5 164.5t61.5 117t92 69.5t114 23q48 0 90 -11t68 -28l-52 -135q-14 11 -36 18.5t-48 7.5q-63 0 -100 -57.5t-37 -166.5t37 -167t100 -58q26 0 48 8t36 19z" />
    <glyph glyph-name="D" unicode="D" horiz-adv-x="629" 
d="M589 362q0 -180 -81 -277t-242 -97q-63 0 -117 11t-89 28v670q34 16 89.5 27.5t116.5 11.5q161 0 242 -97t81 -277zM419 362q0 123 -38.5 177.5t-104.5 54.5q-29 0 -46 -7v-451q15 -6 46 -6q66 0 104.5 54.5t38.5 177.5z" />
    <glyph glyph-name="E" unicode="E" horiz-adv-x="493" 
d="M60 0v724h390v-142h-223v-148h199v-139h-199v-153h223v-142h-390z" />
    <glyph glyph-name="F" unicode="F" horiz-adv-x="483" 
d="M227 582v-148h198v-139h-198v-295h-167v724h388v-142h-221z" />
    <glyph glyph-name="G" unicode="G" horiz-adv-x="634" 
d="M577 27q-31 -17 -85 -28t-118 -11q-80 0 -142 27.5t-105 77t-65 118t-22 151.5t24 152t69 118.5t109.5 76.5t146.5 27q57 0 107 -11t78 -28l-52 -133q-21 12 -52.5 20t-73.5 8q-40 0 -74 -14t-59 -42t-39 -71.5t-14 -101.5t12.5 -101.5t33.5 -73t48.5 -44t57.5 -14.5
q20 0 34 2.5t22 5.5v171h-87v127h246v-409z" />
    <glyph glyph-name="H" unicode="H" horiz-adv-x="637" 
d="M407 0v295h-177v-295h-170v724h170v-290h177v290h170v-724h-170z" />
    <glyph glyph-name="I" unicode="I" horiz-adv-x="290" 
d="M60 0v724h170v-724h-170z" />
    <glyph glyph-name="J" unicode="J" horiz-adv-x="290" 
d="M230 80q0 -140 -76 -213.5t-209 -86.5v146q51 11 83 48t32 106v644h170v-644z" />
    <glyph glyph-name="K" unicode="K" horiz-adv-x="628" 
d="M431 0l-199 353h-2v-353h-170v724h170v-325h2l197 325h189l-216 -348l221 -376h-192z" />
    <glyph glyph-name="L" unicode="L" horiz-adv-x="459" 
d="M60 0v724h170v-582h200v-142h-370z" />
    <glyph glyph-name="M" unicode="M" horiz-adv-x="872" 
d="M685 0l-41 418q-2 17 -3.5 35.5t-2.5 33.5q-1 18 -2 33h-2q-3 -16 -7 -33q-3 -15 -7.5 -33t-9.5 -36l-122 -418h-104l-122 418q-5 18 -9.5 36t-7.5 33q-4 17 -7 33h-2q-1 -15 -2 -33q-1 -15 -2 -33.5t-3 -35.5l-42 -418h-157l87 724h190l107 -373q5 -17 8.5 -33.5
t6.5 -30.5q4 -16 6 -31h2q2 15 6 31q3 14 6.5 30.5t8.5 33.5l107 373h190l87 -724h-157z" />
    <glyph glyph-name="N" unicode="N" horiz-adv-x="663" 
d="M468 0l-220 376q-10 16 -17.5 31t-13.5 28q-7 14 -13 28h-2q0 -15 1 -31q0 -14 0.5 -31.5t0.5 -34.5v-366h-144v724h141l214 -364q9 -15 16.5 -30.5t13.5 -28.5q7 -15 13 -28h2q-1 15 -1 32v419h144v-724h-135z" />
    <glyph glyph-name="O" unicode="O" horiz-adv-x="644" 
d="M604 362q0 -80 -17 -148.5t-51.5 -118.5t-88 -78.5t-125.5 -28.5t-125.5 28.5t-88 78.5t-51.5 118.5t-17 148.5t17 148.5t51.5 118.5t88 78.5t125.5 28.5t125.5 -28.5t88 -78.5t51.5 -118.5t17 -148.5zM434 362q0 106 -28 165.5t-84 59.5t-84 -59.5t-28 -165.5t28 -165.5
t84 -59.5t84 59.5t28 165.5z" />
    <glyph glyph-name="P" unicode="P" horiz-adv-x="600" 
d="M570 499q0 -50 -18 -93t-53.5 -74t-89 -48.5t-125.5 -17.5q-15 0 -31 1t-26 3v-270h-167v697q44 19 99 29t121 10q141 0 215.5 -64.5t74.5 -172.5zM403 499q0 110 -121 110q-16 0 -30.5 -2.5t-24.5 -5.5v-204q8 -2 21.5 -3t27.5 -1q64 0 95.5 27.5t31.5 78.5z" />
    <glyph glyph-name="Q" unicode="Q" horiz-adv-x="644" 
d="M474 -201l-110 194q-22 -5 -42 -5q-72 0 -125.5 28.5t-88 78.5t-51.5 118.5t-17 148.5t17 148.5t51.5 118.5t88 78.5t125.5 28.5t125.5 -28.5t88 -78.5t51.5 -118.5t17 -148.5q0 -99 -25.5 -180t-79.5 -130l105 -149zM434 362q0 106 -28 165.5t-84 59.5t-84 -59.5
t-28 -165.5t28 -165.5t84 -59.5t84 59.5t28 165.5z" />
    <glyph glyph-name="R" unicode="R" horiz-adv-x="629" 
d="M434 0l-79 215q-11 29 -32 47.5t-54 18.5h-42v-281h-167v697q45 19 104.5 29t123.5 10q141 0 212 -59t71 -166q0 -37 -11 -66t-28.5 -50.5t-40.5 -36t-47 -23.5v-2q29 -17 49 -46t34 -65l86 -222h-179zM404 501q0 53 -26 80.5t-86 27.5q-17 0 -35.5 -2t-29.5 -6v-200h65
q112 0 112 100z" />
    <glyph glyph-name="S" unicode="S" horiz-adv-x="509" 
d="M474 218q0 -51 -16.5 -93t-48 -72.5t-78.5 -47.5t-108 -17q-55 0 -108 11t-84 28l55 148q24 -14 59 -24t70 -10q41 0 62.5 19t21.5 48t-23.5 48t-57.5 35q-29 13 -60 31t-57.5 44t-43.5 61.5t-17 85.5t16 91t47 70.5t76 45.5t102 16q56 0 100.5 -11t73.5 -28l-52 -136
q-20 11 -50.5 20.5t-63.5 9.5q-38 0 -58.5 -19t-20.5 -48t24 -48.5t58 -36.5q28 -15 60 -33t59 -43.5t45 -60.5t18 -84z" />
    <glyph glyph-name="T" unicode="T" horiz-adv-x="508" 
d="M339 582v-582h-170v582h-138v142h446v-142h-138z" />
    <glyph glyph-name="U" unicode="U" horiz-adv-x="628" 
d="M568 218q0 -55 -19.5 -97.5t-53.5 -71.5t-80.5 -44t-100.5 -15t-100.5 15t-80.5 44t-53.5 71.5t-19.5 97.5v506h170v-508q0 -38 24.5 -59.5t59.5 -21.5t59.5 21.5t24.5 59.5v508h170v-506z" />
    <glyph glyph-name="V" unicode="V" horiz-adv-x="621" 
d="M400 0h-179l-217 724h185l102 -436q4 -18 8 -37t6 -35q3 -18 5 -36h2q2 18 5 36q2 16 5 35t8 37l102 436h185z" />
    <glyph glyph-name="W" unicode="W" horiz-adv-x="916" 
d="M724 0h-163l-84 371q-5 18 -8 37t-5 34q-3 18 -5 35h-2q-2 -17 -5 -35q-2 -15 -5.5 -34t-7.5 -37l-84 -371h-163l-178 724h172l78 -416q3 -17 5.5 -34t4.5 -31q3 -17 5 -32h2q1 15 4 32q2 14 4.5 31t6.5 34l92 416h140l92 -416l6 -34t5 -31q3 -17 4 -32h2q1 15 4 32
q2 14 5 31l6 34l78 416h172z" />
    <glyph glyph-name="X" unicode="X" horiz-adv-x="610" 
d="M424 0l-118 241h-2l-118 -241h-187l205 376l-189 348h185l104 -215h2l104 215h185l-189 -348l205 -376h-187z" />
    <glyph glyph-name="Y" unicode="Y" horiz-adv-x="581" 
d="M375 281v-281h-170v281l-206 443h182l108 -272h2l108 272h183z" />
    <glyph glyph-name="Z" unicode="Z" horiz-adv-x="521" 
d="M16 0l234 582h-206v142h437l-233 -582h234v-142h-466z" />
    <glyph glyph-name="bracketleft" unicode="[" horiz-adv-x="390" 
d="M67 -195v980h283v-127h-123v-726h123v-127h-283z" />
    <glyph glyph-name="backslash" unicode="\" horiz-adv-x="497" 
d="M356 -206l-330 969l154 44l331 -969z" />
    <glyph glyph-name="bracketright" unicode="]" horiz-adv-x="390" 
d="M40 -195v127h123v726h-123v127h283v-980h-283z" />
    <glyph glyph-name="asciicircum" unicode="^" horiz-adv-x="618" 
d="M457 359l-148 184l-148 -184l-100 81l176 217q13 16 31 25t41 9t41 -9t31 -25l176 -217z" />
    <glyph glyph-name="underscore" unicode="_" horiz-adv-x="596" 
d="M-4 -226v109h604v-109h-604z" />
    <glyph glyph-name="grave" unicode="`" horiz-adv-x="362" 
d="M151 601l-112 131q5 16 23.5 25t41.5 9t47 -8t42 -26l69 -131h-111z" />
    <glyph glyph-name="a" unicode="a" horiz-adv-x="548" 
d="M494 27q-31 -16 -88 -27.5t-122 -11.5q-128 0 -191 45.5t-63 132.5q0 54 25.5 88t68 54.5t98.5 30t117 12.5v21q0 63 -86 63q-39 0 -81.5 -10.5t-71.5 -22.5l-40 110q36 14 93 26.5t120 12.5q110 0 165.5 -46t55.5 -153v-325zM339 248q-33 -2 -61.5 -5t-49.5 -11.5
t-33 -23t-12 -38.5q0 -33 25.5 -50.5t70.5 -17.5q17 0 34.5 2.5t25.5 5.5v138z" />
    <glyph glyph-name="b" unicode="b" horiz-adv-x="576" 
d="M540 287q0 -152 -73 -225.5t-211 -73.5q-60 0 -114 11.5t-88 27.5v758h165v-255q16 7 40 11.5t45 4.5q52 0 95.5 -17.5t75 -50.5t48.5 -81t17 -110zM375 273q0 72 -27 110.5t-77 38.5q-14 0 -28 -3t-24 -8v-288q17 -7 48 -7q51 0 79.5 41t28.5 116z" />
    <glyph glyph-name="c" unicode="c" horiz-adv-x="455" 
d="M431 25q-27 -18 -61.5 -27.5t-86.5 -9.5q-50 0 -94.5 17.5t-78.5 52.5t-54 88t-20 124t20 123.5t54 87.5t78.5 52.5t94.5 17.5q52 0 86.5 -10t61.5 -27l-51 -117q-13 10 -31.5 15t-39.5 5q-47 0 -74.5 -38t-27.5 -107t29 -107.5t73 -38.5q21 0 39.5 5t31.5 15z" />
    <glyph glyph-name="d" unicode="d" horiz-adv-x="576" 
d="M522 27q-32 -17 -88 -28t-122 -11q-135 0 -205.5 72t-70.5 208q0 63 16 114t48 87t79 55.5t110 19.5q18 0 37.5 -3t30.5 -7v251h165v-758zM357 413q-7 3 -21.5 5.5t-28.5 2.5q-53 0 -79.5 -41.5t-26.5 -109.5q0 -76 28 -115t80 -39q14 0 27.5 2t20.5 5v290z" />
    <glyph glyph-name="e" unicode="e" horiz-adv-x="571" 
d="M535 298v-25q0 -12 -2 -25l-336 -44q10 -45 45 -66.5t86 -21.5q41 0 81.5 9t70.5 24l46 -122q-37 -17 -93.5 -28t-117.5 -11q-70 0 -122.5 21.5t-87 59.5t-52 89.5t-17.5 111.5q0 62 17.5 113.5t50.5 89t81 58t109 20.5q59 0 104 -18.5t75.5 -52.5t46 -80.5t15.5 -101.5z
M376 330q0 51 -23 78t-63 27q-44 0 -73.5 -31t-30.5 -98z" />
    <glyph glyph-name="f" unicode="f" horiz-adv-x="381" 
d="M359 658q-6 1 -12 1h-12q-35 0 -58.5 -15t-23.5 -51v-54h96v-123h-96v-416h-162v416h-62v123h62v54q0 51 15.5 88t44 61t67.5 35.5t86 11.5q14 0 29 -1t26 -3v-127z" />
    <glyph glyph-name="g" unicode="g" horiz-adv-x="576" 
d="M522 12q0 -59 -17.5 -103.5t-50 -74t-78 -44.5t-100.5 -15q-72 0 -125.5 12t-92.5 31l45 128q28 -14 68 -23t87 -9q53 0 77 25t24 73v26q-19 -8 -44.5 -12.5t-48.5 -4.5q-52 0 -94.5 17.5t-72.5 51t-46.5 81t-16.5 107.5q0 135 75.5 204t210.5 69q62 0 113.5 -11
t86.5 -28v-500zM359 419q-9 3 -22.5 5t-30.5 2q-48 0 -76.5 -35t-28.5 -107t27.5 -106.5t75.5 -34.5q14 0 30 3.5t25 8.5v264z" />
    <glyph glyph-name="h" unicode="h" horiz-adv-x="576" 
d="M357 0v347q0 73 -78 73q-16 0 -32 -4t-28 -10v-406h-165v785h165v-259q23 10 49.5 16t54.5 6q97 0 148 -47t51 -137v-364h-165z" />
    <glyph glyph-name="i" unicode="i" horiz-adv-x="275" 
d="M229 698q0 -18 -7.5 -33.5t-20 -27t-29 -18t-35.5 -6.5t-35.5 6.5t-29 18t-19.5 27t-7 33.5t7 33.5t19.5 27t29 18.5t35.5 7t35.5 -7t29 -18.5t20 -27t7.5 -33.5zM55 0v539h165v-539h-165z" />
    <glyph glyph-name="j" unicode="j" horiz-adv-x="275" 
d="M220 74q0 -80 -21.5 -134t-57.5 -88.5t-84 -52t-102 -23.5v135q19 6 37.5 17t32 30.5t22 48t8.5 67.5v465h165v-465zM229 698q0 -18 -7.5 -33.5t-20 -27t-29 -18t-35.5 -6.5t-35.5 6.5t-29 18t-19.5 27t-7 33.5t7 33.5t19.5 27t29 18.5t35.5 7t35.5 -7t29 -18.5t20 -27
t7.5 -33.5z" />
    <glyph glyph-name="k" unicode="k" horiz-adv-x="572" 
d="M385 0l-165 269h-2v-269h-163v785h163v-477h2l149 231h186l-168 -251l182 -288h-184z" />
    <glyph glyph-name="l" unicode="l" horiz-adv-x="275" 
d="M55 0v785h165v-785h-165z" />
    <glyph glyph-name="m" unicode="m" horiz-adv-x="873" 
d="M654 0v352q0 33 -19.5 51.5t-54.5 18.5q-19 0 -34.5 -5t-26.5 -13v-404h-165v355q0 31 -20 49t-57 18q-19 0 -33 -3t-25 -8v-411h-165v512q42 17 96.5 28t115.5 11q67 0 108 -15t66 -35q26 18 74 34t110 16q93 0 144 -48t51 -132v-371h-165z" />
    <glyph glyph-name="n" unicode="n" horiz-adv-x="576" 
d="M357 0v350q0 34 -19.5 53t-56.5 19q-17 0 -34 -3t-28 -8v-411h-165v512q45 17 99.5 28t125.5 11q127 0 185 -47t58 -135v-369h-165z" />
    <glyph glyph-name="o" unicode="o" horiz-adv-x="578" 
d="M542 270q0 -60 -17 -112t-49 -89.5t-79.5 -59t-107.5 -21.5t-107.5 21.5t-79.5 59t-49 89.5t-17 112t17 111.5t49 89t79.5 59t107.5 21.5t107.5 -21.5t79.5 -59t49 -89t17 -111.5zM377 272q0 151 -88 151t-88 -151q0 -75 22 -113.5t66 -38.5t66 38.5t22 113.5z" />
    <glyph glyph-name="p" unicode="p" horiz-adv-x="576" 
d="M540 271q0 -63 -16 -114t-48 -87t-79.5 -55.5t-110.5 -19.5q-18 0 -37 2.5t-30 6.5v-219h-165v727q32 17 88 28t122 11q135 0 205.5 -72t70.5 -208zM375 271q0 76 -28 115t-80 39q-14 0 -27 -2.5t-21 -5.5v-290q7 -3 21 -5.5t28 -2.5q53 0 80 42t27 110z" />
    <glyph glyph-name="q" unicode="q" horiz-adv-x="576" 
d="M357 -215v224q-16 -7 -40.5 -11.5t-45.5 -4.5q-53 0 -96 17.5t-74 50.5t-48 81t-17 110q0 152 74 225.5t212 73.5q60 0 113 -11.5t87 -27.5v-727h-165zM357 417q-8 3 -21 5.5t-27 2.5q-51 0 -79.5 -41t-28.5 -116q0 -72 27 -110.5t77 -38.5q30 0 52 10v288z" />
    <glyph glyph-name="r" unicode="r" horiz-adv-x="385" 
d="M336 411q-12 5 -28 7.5t-33 2.5q-34 0 -56 -9v-412h-165v512q45 17 103.5 28t130.5 11q24 0 44 -2t34 -4z" />
    <glyph glyph-name="s" unicode="s" horiz-adv-x="468" 
d="M436 161q0 -80 -57 -126.5t-172 -46.5q-54 0 -103.5 12t-79.5 27l52 124q10 -6 25.5 -12t33.5 -11t35.5 -8t31.5 -3q29 0 45.5 12.5t16.5 32.5q0 23 -20 35t-49 23q-24 9 -51.5 20.5t-51 30t-39 46.5t-15.5 69q0 76 54.5 120.5t154.5 44.5q56 0 99.5 -11t75.5 -28
l-49 -111q-17 10 -47.5 20t-56.5 10q-29 0 -45.5 -12t-16.5 -32q0 -25 20 -37t50 -23q25 -9 53 -20t51.5 -29.5t39 -46.5t15.5 -70z" />
    <glyph glyph-name="t" unicode="t" horiz-adv-x="379" 
d="M345 9q-14 -7 -40.5 -12.5t-55.5 -5.5q-85 0 -122 45.5t-37 136.5v243h-64v123h64v115l161 45v-160h94v-123h-94v-231q0 -28 15 -38.5t38 -10.5q11 0 22 2.5t19 6.5v-136z" />
    <glyph glyph-name="u" unicode="u" horiz-adv-x="571" 
d="M517 27q-38 -18 -98.5 -28.5t-126.5 -10.5q-119 0 -178.5 47.5t-59.5 157.5v346h165v-350q0 -67 73 -67q41 0 60 8v409h165v-512z" />
    <glyph glyph-name="v" unicode="v" horiz-adv-x="593" 
d="M392 0h-191l-193 539h186l83 -311q4 -17 7.5 -32.5t5.5 -28.5q3 -15 5 -29h2q2 14 5 29q5 27 14 61l83 311h186z" />
    <glyph glyph-name="w" unicode="w" horiz-adv-x="851" 
d="M681 0h-171l-68 271q-4 14 -6.5 29.5t-4.5 27.5q-3 14 -4 27h-2q-1 -13 -4 -27q-2 -12 -5 -27.5t-7 -29.5l-68 -271h-171l-153 539h166l62 -303q3 -16 5 -32t4 -29q2 -16 3 -30h2l5 30q2 13 5.5 29t7.5 32l74 303h149l75 -303q4 -16 7 -32t5 -29l5 -30h2q1 14 3 30
q2 13 4 29t6 32l62 303h165z" />
    <glyph glyph-name="x" unicode="x" horiz-adv-x="568" 
d="M380 0l-95 169h-2l-95 -169h-189l183 279l-168 260h186l83 -156h2l84 156h185l-167 -260l182 -279h-189z" />
    <glyph glyph-name="y" unicode="y" horiz-adv-x="593" 
d="M303 -215h-173l81 215l-203 539h186l84 -310q4 -16 7.5 -32t5.5 -29q3 -16 4 -30h2l5 30q2 13 5 29t8 32l84 310h186z" />
    <glyph glyph-name="z" unicode="z" horiz-adv-x="480" 
d="M22 0l193 411h-174v128h402l-193 -411h195v-128h-423z" />
    <glyph glyph-name="braceleft" unicode="{" horiz-adv-x="396" 
d="M302 -195q-107 0 -157 52.5t-50 144.5q0 22 2.5 39.5t5 34t5 34t2.5 39.5q0 38 -22.5 59t-57.5 22v130q35 1 57.5 22t22.5 59q0 22 -2.5 39.5t-5 34t-5 34t-2.5 39.5q0 92 50 144.5t157 52.5h48v-127h-21q-35 0 -54.5 -17t-19.5 -53q0 -22 2.5 -39.5t5 -34t5 -34
t2.5 -39.5q0 -57 -27 -94t-78 -51v-2q51 -14 78 -51t27 -94q0 -22 -2.5 -39.5t-5 -34t-5 -34t-2.5 -39.5q0 -36 19.5 -53t54.5 -17h21v-127h-48z" />
    <glyph glyph-name="bar" unicode="|" horiz-adv-x="280" 
d="M57 -215v1000h165v-1000h-165z" />
    <glyph glyph-name="braceright" unicode="}" horiz-adv-x="396" 
d="M366 230q-35 -1 -57.5 -22t-22.5 -59q0 -22 2.5 -39.5t5 -34t5 -34t2.5 -39.5q0 -92 -50 -144.5t-157 -52.5h-48v127h21q35 0 54.5 17t19.5 53q0 22 -2.5 39.5t-5 34t-5 34t-2.5 39.5q0 57 27 94t78 51v2q-51 14 -78 51t-27 94q0 22 2.5 39.5t5 34t5 34t2.5 39.5
q0 36 -19.5 53t-54.5 17h-21v127h48q107 0 157 -52.5t50 -144.5q0 -22 -2.5 -39.5t-5 -34t-5 -34t-2.5 -39.5q0 -38 22.5 -59t57.5 -22v-130z" />
    <glyph glyph-name="asciitilde" unicode="~" horiz-adv-x="618" 
d="M557 403q-9 -58 -48 -96.5t-100 -38.5q-29 0 -52 9t-43 19.5t-40 19.5t-43 9q-31 0 -55.5 -17.5t-34.5 -46.5l-80 60q9 58 48 96.5t100 38.5q29 0 52 -9t43 -19.5t40 -19.5t43 -9q31 0 55 17.5t34 46.5z" />
    <glyph glyph-name="uni00A0" unicode="&#xa0;" horiz-adv-x="236" 
 />
    <glyph glyph-name="sterling" unicode="&#xa3;" horiz-adv-x="619" 
d="M47 0q57 59 91.5 128t34.5 140q0 26 -3 47h-106v119h81q-4 18 -7 37t-3 45q0 54 17.5 95t49.5 68.5t77.5 42t101.5 14.5q59 0 102.5 -11t73.5 -28l-53 -131q-17 11 -43.5 18.5t-57.5 7.5q-48 0 -75 -24.5t-27 -62.5q0 -21 2.5 -37.5t6.5 -33.5h157v-119h-140q2 -11 3 -22
t1 -25q0 -35 -12 -69t-26 -57h268v-142h-514z" />
    <glyph glyph-name="currency" unicode="&#xa4;" horiz-adv-x="726" 
d="M571 -3l-99 103q-23 -13 -50.5 -20t-58.5 -7t-58.5 7t-50.5 20l-99 -103l-108 92l106 113q-13 26 -19 55t-6 59t6 58.5t19 54.5l-106 113l108 92l99 -103q23 13 50.5 20t58.5 7t58.5 -7t50.5 -20l99 103l108 -92l-106 -113q13 -26 19 -54.5t6 -58.5t-6 -59t-19 -55
l106 -113zM456 316q0 58 -26.5 88.5t-66.5 30.5t-66.5 -30.5t-26.5 -88.5t26.5 -88.5t66.5 -30.5t66.5 30.5t26.5 88.5z" />
    <glyph glyph-name="brokenbar" unicode="&#xa6;" horiz-adv-x="280" 
d="M57 385v400h165v-400h-165zM57 -215v400h165v-400h-165z" />
    <glyph glyph-name="section" unicode="&#xa7;" horiz-adv-x="588" 
d="M549 237q0 -27 -9 -51t-23.5 -45.5t-33.5 -39.5t-38 -31q21 -24 32.5 -52.5t11.5 -64.5q0 -39 -15 -72t-42.5 -57t-66.5 -37.5t-87 -13.5q-59 0 -109.5 11t-82.5 28l48 129q26 -14 60.5 -23t66.5 -9q29 0 45.5 15.5t16.5 38.5q0 17 -11.5 32.5t-30.5 27.5l-134 86
q-57 36 -82.5 78t-25.5 101q0 28 8.5 52.5t22.5 45.5t32.5 38.5t39.5 31.5q-14 19 -22.5 43t-8.5 56q0 41 15.5 74.5t43 57t66 36.5t84.5 13q57 0 100.5 -11t75.5 -28l-46 -120q-20 11 -49 20t-61 9t-49.5 -17t-17.5 -40q0 -37 42 -63l131 -84q103 -66 103 -165zM401 227
q0 26 -12.5 44t-38.5 35l-117 75q-20 -13 -35 -33.5t-15 -50.5q0 -25 12 -42.5t34 -31.5l121 -78q20 14 35.5 36.5t15.5 45.5z" />
    <glyph glyph-name="copyright" unicode="&#xa9;" horiz-adv-x="854" 
d="M810 362q0 -79 -28.5 -147.5t-79.5 -118.5t-121 -79t-154 -29t-154 29t-121 79t-79.5 118.5t-28.5 147.5t28.5 147.5t79.5 118.5t121 79t154 29t154 -29t121 -79t79.5 -118.5t28.5 -147.5zM710 362q0 60 -20.5 112.5t-58 90.5t-89.5 60t-115 22t-115 -22t-89.5 -60
t-58 -90.5t-20.5 -112.5t20.5 -112.5t58 -90.5t89.5 -60t115 -22t115 22t89.5 60t58 90.5t20.5 112.5zM545 187q-17 -11 -44.5 -18.5t-58.5 -7.5q-39 0 -73.5 13t-59.5 38.5t-39.5 64t-14.5 89.5t14.5 89.5t39.5 63.5t59.5 37.5t73.5 12.5q31 0 58.5 -7.5t44.5 -18.5
l-35 -72q-11 8 -26.5 12.5t-32.5 4.5q-18 0 -34 -7t-28.5 -22t-20 -38t-7.5 -55t7.5 -55t20 -37.5t28.5 -21.5t34 -7q17 0 32.5 4.5t26.5 12.5z" />
    <glyph glyph-name="guillemotleft" unicode="&#xab;" horiz-adv-x="619" 
d="M477 47l-190 258l190 258l95 -70l-138 -188l138 -188zM223 47l-189 258l189 258l95 -70l-138 -188l138 -188z" />
    <glyph glyph-name="logicalnot" unicode="&#xac;" 
d="M348 91v171h-292v126h428v-297h-136z" />
    <glyph glyph-name="uni00AD" unicode="&#xad;" horiz-adv-x="394" 
d="M51 256v138h292v-138h-292z" />
    <glyph glyph-name="registered" unicode="&#xae;" horiz-adv-x="648" 
d="M608 459q0 -59 -21 -109.5t-58.5 -88t-90 -59t-114.5 -21.5t-114.5 21.5t-90 59t-58.5 88t-21 109.5q0 58 21 109t58.5 88.5t90 59t114.5 21.5t114.5 -21.5t90 -59t58.5 -88.5t21 -109zM533 459q0 45 -15 83t-43 66.5t-66.5 44.5t-84.5 16q-47 0 -85 -16t-66 -44.5
t-43 -66.5t-15 -83t15 -83t43 -66.5t66 -44.5t85 -16q46 0 84.5 16t66.5 44.5t43 66.5t15 83zM377 317l-34 88q-9 24 -33 24h-20v-112h-74v283q20 8 45 12t53 4q62 0 94 -23.5t32 -68.5q0 -28 -16 -45.5t-37 -25.5v-2q20 -11 31 -37l40 -97h-81zM365 520q0 21 -11 31.5
t-37 10.5h-15t-12 -2v-79h27q48 0 48 39z" />
    <glyph glyph-name="degree" unicode="&#xb0;" horiz-adv-x="480" 
d="M440 541q0 -41 -15 -76t-42 -61.5t-63.5 -41.5t-79.5 -15t-79.5 15t-63.5 41.5t-42 61.5t-15 76q0 40 15 76t42 62t63.5 41.5t79.5 15.5t79.5 -15.5t63.5 -41.5t42 -62t15 -76zM324 541q0 35 -24.5 60t-59.5 25t-59.5 -25t-24.5 -60t24.5 -59.5t59.5 -24.5t59.5 24.5
t24.5 59.5z" />
    <glyph glyph-name="plusminus" unicode="&#xb1;" 
d="M336 329v-147h-132v147h-148v113h148v147h132v-147h148v-113h-148zM56 0v113h428v-113h-428z" />
    <glyph glyph-name="twosuperior" unicode="&#xb2;" horiz-adv-x="368" 
d="M10 500l184 234q11 14 18.5 28.5t7.5 31.5q0 24 -17 40t-51 16q-23 0 -47.5 -5.5t-45.5 -13.5l-27 78q29 11 62.5 17t65.5 6q81 0 122.5 -35.5t41.5 -97.5q0 -33 -16.5 -60.5t-33.5 -47.5l-98 -110h156v-81h-322z" />
    <glyph glyph-name="threesuperior" unicode="&#xb3;" horiz-adv-x="368" 
d="M327 623q0 -60 -44.5 -95.5t-125.5 -35.5q-35 0 -71 6t-65 17l31 78q20 -8 47.5 -13t56.5 -5q34 0 51.5 13.5t17.5 35.5q0 26 -32.5 41t-81.5 15h-5v72q54 3 80.5 19t26.5 39q0 18 -14.5 29t-43.5 11q-22 0 -48 -5t-47 -13l-28 77q30 11 65.5 17t71.5 6q74 0 109.5 -31.5
t35.5 -82.5q0 -29 -18 -52.5t-45 -37.5v-2q32 -13 54 -38.5t22 -64.5z" />
    <glyph glyph-name="acute" unicode="&#xb4;" horiz-adv-x="362" 
d="M211 601h-111l69 131q18 18 42 26t47 8t41.5 -9t23.5 -25z" />
    <glyph glyph-name="uni00B5" unicode="&#xb5;" horiz-adv-x="571" 
d="M517 43q-29 -26 -78.5 -40.5t-102.5 -14.5q-34 0 -64.5 6t-53.5 18v-227h-164v754h164v-403q12 -8 31.5 -13.5t39.5 -5.5q19 0 36.5 5.5t27.5 14.5v402h164v-496z" />
    <glyph glyph-name="paragraph" unicode="&#xb6;" horiz-adv-x="619" 
d="M439 -215v829q-17 5 -44 8t-51 3h-10v-840h-115v493q-81 17 -129.5 75.5t-48.5 146.5q0 60 21 104.5t58 74t88.5 43.5t113.5 14q78 0 135.5 -11.5t95.5 -27.5v-912h-114z" />
    <glyph glyph-name="periodcentered" unicode="&#xb7;" horiz-adv-x="280" 
d="M240 324q0 -42 -29 -71t-71 -29t-71 29t-29 71t29 71t71 29t71 -29t29 -71z" />
    <glyph glyph-name="cedilla" unicode="&#xb8;" horiz-adv-x="362" 
d="M325 -126q0 -47 -52 -70.5t-144 -23.5q-21 0 -43.5 1.5t-47.5 3.5l32 60q28 -3 51 -3q42 0 65 9t23 23q0 23 -55 23q-24 0 -58 -3l28 54q34 3 63 3q77 0 107.5 -21t30.5 -56z" />
    <glyph glyph-name="onesuperior" unicode="&#xb9;" horiz-adv-x="368" 
d="M181 500v315q-10 -5 -23 -9.5t-28 -8.5t-30 -7t-28 -4l-15 75q21 3 43 9t41.5 14.5t35.5 18.5t26 21h79v-424h-101z" />
    <glyph glyph-name="guillemotright" unicode="&#xbb;" horiz-adv-x="619" 
d="M395 47l-94 70l137 188l-137 188l94 70l190 -258zM142 47l-95 70l138 188l-138 188l95 70l189 -258z" />
    <glyph glyph-name="onequarter" unicode="&#xbc;" horiz-adv-x="869" 
d="M787 102v-102h-92v102h-187v69l171 253h108v-253h40v-69h-40zM283 -18l-78 41l381 719l77 -41zM145 300v315q-10 -5 -23 -9.5t-28 -8.5t-30 -7t-28 -4l-15 75q21 3 43 9t41.5 14.5t35.5 18.5t26 21h79v-424h-101zM698 338q-3 -7 -7 -15q-4 -7 -8.5 -15.5t-9.5 -16.5
l-80 -120h105v132q0 10 1 18q0 9 1 17h-2z" />
    <glyph glyph-name="onehalf" unicode="&#xbd;" horiz-adv-x="869" 
d="M509 0l184 234q11 14 18.5 28.5t7.5 31.5q0 24 -17 40t-51 16q-23 0 -47.5 -5.5t-45.5 -13.5l-27 78q29 11 63 17t66 6q81 0 122.5 -35.5t41.5 -97.5q0 -33 -16.5 -60.5t-33.5 -47.5l-98 -110h155v-81h-322zM260 -18l-78 41l381 719l78 -41zM145 300v315q-10 -5 -23 -9.5
t-28 -8.5t-30 -7t-28 -4l-15 75q21 3 43 9t41.5 14.5t35.5 18.5t26 21h79v-424h-101z" />
    <glyph glyph-name="threequarters" unicode="&#xbe;" horiz-adv-x="869" 
d="M787 102v-102h-92v102h-187v69l171 253h108v-253h40v-69h-40zM328 423q0 -60 -44.5 -95.5t-125.5 -35.5q-35 0 -71 6t-65 17l31 78q20 -8 47.5 -13t56.5 -5q34 0 51.5 13.5t17.5 35.5q0 26 -32.5 41t-81.5 15h-5v72q54 3 80.5 19t26.5 39q0 18 -14.5 29t-43.5 11
q-22 0 -48 -5t-47 -13l-28 77q30 11 65.5 17t71.5 6q74 0 109.5 -31.5t35.5 -82.5q0 -29 -18 -52.5t-45 -37.5v-2q32 -13 54 -38.5t22 -64.5zM302 -18l-78 41l381 719l77 -41zM698 338q-3 -7 -7 -15q-4 -7 -8.5 -15.5t-9.5 -16.5l-80 -120h105v132q0 10 1 18q0 9 1 17h-2z
" />
    <glyph glyph-name="multiply" unicode="&#xd7;" 
d="M406 99l-136 136l-136 -136l-90 91l135 135l-135 135l90 91l136 -136l136 136l90 -91l-135 -135l135 -135z" />
    <glyph glyph-name="divide" unicode="&#xf7;" 
d="M349 513q0 -33 -23 -56.5t-56 -23.5t-56.5 23.5t-23.5 56.5t23.5 56t56.5 23t56 -23t23 -56zM56 270v110h428v-110h-428zM349 137q0 -33 -23 -56t-56 -23t-56.5 23t-23.5 56t23.5 56.5t56.5 23.5t56 -23.5t23 -56.5z" />
    <glyph glyph-name="florin" unicode="&#x192;" horiz-adv-x="589" 
d="M512 581q-7 5 -18 8t-24 3q-31 0 -47 -16t-21 -51l-14 -106h105v-133h-122l-41 -317q-12 -95 -66 -144t-148 -49q-29 0 -59.5 6.5t-53.5 17.5l50 136q7 -5 18 -8t24 -3q31 0 47 16t21 51l38 294h-97v133h114l16 121q12 95 66 144t148 49q29 0 59.5 -6.5t53.5 -17.5z" />
    <glyph glyph-name="afii57929" unicode="&#x2bc;" horiz-adv-x="102" 
d="M98 474h-95l85 267q14 21 35 35.5t50 14.5t44 -15.5t17 -34.5z" />
    <glyph glyph-name="circumflex" unicode="&#x2c6;" horiz-adv-x="362" 
d="M273 588l-92 79l-93 -79l-62 51l105 107q21 21 50 21q28 0 49 -21l106 -107z" />
    <glyph glyph-name="caron" unicode="&#x2c7;" horiz-adv-x="362" 
d="M230 611q-21 -21 -49 -21q-29 0 -50 21l-105 106l62 52l93 -79l92 79l63 -52z" />
    <glyph glyph-name="breve" unicode="&#x2d8;" horiz-adv-x="362" 
d="M338 752q-4 -73 -42.5 -116.5t-114.5 -43.5t-114.5 43.5t-42.5 116.5l90 15q3 -39 19 -60t48 -21t48 21t19 60z" />
    <glyph glyph-name="dotaccent" unicode="&#x2d9;" horiz-adv-x="362" 
d="M269 684q0 -35 -25.5 -58.5t-62.5 -23.5t-62.5 23.5t-25.5 58.5t25.5 59t62.5 24t62.5 -24t25.5 -59z" />
    <glyph glyph-name="ring" unicode="&#x2da;" horiz-adv-x="362" 
d="M292 690q0 -21 -8.5 -39.5t-23.5 -32t-35.5 -21.5t-43.5 -8t-43.5 8t-35.5 21.5t-23.5 32t-8.5 39.5t8.5 40t23.5 32.5t35.5 21.5t43.5 8t43.5 -8t35.5 -21.5t23.5 -32.5t8.5 -40zM224 690q0 17 -12.5 29.5t-30.5 12.5t-30.5 -12.5t-12.5 -29.5t12.5 -29t30.5 -12
t30.5 12t12.5 29z" />
    <glyph glyph-name="ogonek" unicode="&#x2db;" horiz-adv-x="362" 
d="M356 -183q-21 -14 -51 -22t-60 -8q-57 0 -90 26t-33 67q0 32 26.5 69t86.5 66h98q-51 -23 -74.5 -52.5t-23.5 -52.5q0 -16 11 -26t31 -10q24 0 52 13z" />
    <glyph glyph-name="tilde" unicode="&#x2dc;" horiz-adv-x="362" 
d="M340 711q-5 -48 -29.5 -79t-64.5 -31q-20 0 -34 7t-25.5 15t-23 15t-24.5 7q-18 0 -30 -13.5t-16 -36.5l-71 42q5 48 29.5 78.5t64.5 30.5q19 0 33.5 -6.5t26.5 -15t23 -15t25 -6.5q18 0 29.5 13.5t15.5 36.5z" />
    <glyph glyph-name="hungarumlaut" unicode="&#x2dd;" horiz-adv-x="362" 
d="M286 601h-87l73 131q33 34 73 34q21 0 32 -10t16 -24zM114 601h-87l73 131q33 34 73 34q21 0 32 -10t16 -24z" />
    <glyph glyph-name="uni0306" unicode="&#x306;" horiz-adv-x="0" 
d="M-108 752q-4 -73 -42.5 -116.5t-114.5 -43.5t-114.5 43.5t-42.5 116.5l90 15q3 -39 19 -60t48 -21t48 21t19 60z" />
    <glyph glyph-name="uni030F" unicode="&#x30f;" horiz-adv-x="1" 
d="M-112 601l-107 131q5 14 15.5 24t31.5 10q40 0 73 -34l74 -131h-87zM-285 601l-107 131q5 14 16 24t32 10q40 0 73 -34l73 -131h-87z" />
    <glyph glyph-name="uni0311" unicode="&#x311;" horiz-adv-x="1" 
d="M-112 592q-3 39 -19 60t-48 21t-48 -21t-19 -60l-90 14q4 73 42.5 117t114.5 44t114 -44t42 -117z" />
    <glyph glyph-name="tonos" unicode="&#x384;" horiz-adv-x="296" 
d="M180 600h-94l40 144q10 15 31.5 24.5t44.5 9.5q20 0 37.5 -8t25.5 -26z" />
    <glyph glyph-name="Delta" unicode="&#x394;" horiz-adv-x="668" 
d="M-1 0l234 724h202l234 -724h-670zM353 493q-9 32 -14 61q-3 15 -4 30h-2q-2 -15 -5 -30q-2 -14 -5 -29.5t-8 -31.5l-104 -365h246z" />
    <glyph glyph-name="mu" unicode="&#x3bc;" horiz-adv-x="571" 
d="M517 43q-29 -26 -78.5 -40.5t-102.5 -14.5q-34 0 -64.5 6t-53.5 18v-227h-164v754h164v-403q12 -8 31.5 -13.5t39.5 -5.5q19 0 36.5 5.5t27.5 14.5v402h164v-496z" />
    <glyph glyph-name="afii10023" unicode="&#x401;" horiz-adv-x="493" 
d="M439 856q0 -29 -22.5 -50t-54.5 -21t-54.5 21t-22.5 50t22.5 50t54.5 21t54.5 -21t22.5 -50zM225 856q0 -29 -22.5 -50t-54.5 -21t-54.5 21t-22.5 50t22.5 50t54.5 21t54.5 -21t22.5 -50zM60 0v724h390v-142h-223v-148h199v-139h-199v-153h223v-142h-390z" />
    <glyph glyph-name="afii10051" unicode="&#x402;" horiz-adv-x="693" 
d="M653 175q0 -60 -14.5 -115t-43 -102.5t-69.5 -85t-94 -61.5l-70 121q65 37 94 102.5t29 140.5q0 70 -27.5 113t-89.5 43q-15 0 -31.5 -3.5t-29.5 -10.5v-317h-167v582h-106v142h488v-142h-215v-139q23 10 53.5 16t56.5 6q118 0 177 -76.5t59 -213.5z" />
    <glyph glyph-name="afii10052" unicode="&#x403;" horiz-adv-x="478" 
d="M292 786h-111l69 131q18 18 42 26t47 8t41.5 -9t23.5 -25zM227 582v-582h-166v724h387v-142h-221z" />
    <glyph glyph-name="afii10053" unicode="&#x404;" horiz-adv-x="598" 
d="M571 27q-32 -17 -78.5 -28t-106.5 -11q-77 0 -140.5 24t-109 71.5t-71 117t-25.5 161.5q0 91 25.5 161t71 117.5t109 71.5t140.5 24q57 0 105 -11t80 -28l-59 -126q-23 13 -55 19t-64 6q-65 0 -114.5 -38.5t-64.5 -122.5h271v-138h-272q6 -44 22.5 -76t40.5 -52.5t54 -30
t63 -9.5q32 0 64 7t55 19z" />
    <glyph glyph-name="afii10054" unicode="&#x405;" horiz-adv-x="509" 
d="M474 218q0 -51 -16.5 -93t-48 -72.5t-78.5 -47.5t-108 -17q-55 0 -108 11t-84 28l55 148q24 -14 59 -24t70 -10q41 0 62.5 19t21.5 48t-23.5 48t-57.5 35q-29 13 -60 31t-57.5 44t-43.5 61.5t-17 85.5t16 91t47 70.5t76 45.5t102 16q56 0 100.5 -11t73.5 -28l-52 -136
q-20 11 -50.5 20.5t-63.5 9.5q-38 0 -58.5 -19t-20.5 -48t24 -48.5t58 -36.5q28 -15 60 -33t59 -43.5t45 -60.5t18 -84z" />
    <glyph glyph-name="afii10055" unicode="&#x406;" horiz-adv-x="290" 
d="M60 0v724h170v-724h-170z" />
    <glyph glyph-name="afii10056" unicode="&#x407;" horiz-adv-x="290" 
d="M329 856q0 -29 -22.5 -50t-54.5 -21t-54.5 21t-22.5 50t22.5 50t54.5 21t54.5 -21t22.5 -50zM115 856q0 -29 -22.5 -50t-54.5 -21t-54.5 21t-22.5 50t22.5 50t54.5 21t54.5 -21t22.5 -50zM59 0v724h170v-724h-170z" />
    <glyph glyph-name="afii10057" unicode="&#x408;" horiz-adv-x="290" 
d="M230 80q0 -140 -76 -213.5t-209 -86.5v146q51 11 83 48t32 106v644h170v-644z" />
    <glyph glyph-name="afii10058" unicode="&#x409;" horiz-adv-x="961" 
d="M927 226q0 -54 -18.5 -98t-55.5 -75t-91 -48t-124 -17q-66 0 -120.5 10t-98.5 29v559h-100l-18 -189q-7 -71 -23 -137t-45 -121t-73 -96.5t-107 -62.5l-48 147q33 18 55.5 45.5t38 64t24.5 81.5t14 97l31 309h416v-270q10 2 27 4t33 2q71 0 124 -17.5t88.5 -49t53 -74.5
t17.5 -93zM761 225q0 52 -31 80t-94 28q-14 0 -29 -2t-23 -4v-204q10 -3 24.5 -5.5t30.5 -2.5q122 0 122 110z" />
    <glyph glyph-name="afii10059" unicode="&#x40a;" horiz-adv-x="937" 
d="M904 226q0 -54 -19 -98t-55.5 -75t-91 -48t-124.5 -17q-66 0 -120.5 10t-98.5 29v268h-168v-295h-167v724h167v-290h168v290h165v-270q10 2 27 4t33 2q71 0 124 -17.5t88.5 -49t53.5 -74.5t18 -93zM737 225q0 52 -31 80t-94 28q-14 0 -29 -2t-23 -4v-204q10 -3 24.5 -5.5
t30.5 -2.5q122 0 122 110z" />
    <glyph glyph-name="afii10060" unicode="&#x40b;" horiz-adv-x="688" 
d="M464 0v258q0 78 -86 78q-17 0 -37 -3.5t-34 -10.5v-322h-167v582h-106v142h488v-142h-215v-139q23 10 54.5 16t61.5 6q98 0 153 -51t55 -145v-269h-167z" />
    <glyph glyph-name="afii10061" unicode="&#x40c;" horiz-adv-x="635" 
d="M360 786h-111l69 131q18 18 42 26t47 8t41.5 -9t23.5 -25zM437 0l-85 235q-14 41 -45.5 69t-76.5 28v-332h-170v724h170v-320h2l195 320h194l-221 -326q46 -22 76.5 -58.5t50.5 -86.5l100 -253h-190z" />
    <glyph glyph-name="afii10062" unicode="&#x40e;" horiz-adv-x="614" 
d="M464 937q-4 -73 -42.5 -116.5t-114.5 -43.5t-114.5 43.5t-42.5 116.5l90 15q3 -39 19 -60t48 -21t48 21t19 60zM590 724q-5 -65 -21.5 -133t-39.5 -134t-52 -129t-59 -118l-115 -210h-191l118 205q-81 115 -137.5 247.5t-68.5 271.5h180q11 -108 40.5 -201.5t70.5 -176.5
h2q34 81 59 176t34 202h180z" />
    <glyph glyph-name="afii10145" unicode="&#x40f;" horiz-adv-x="629" 
d="M378 0l-4 -146h-119l-4 146h-191v724h170v-582h169v582h170v-724h-191z" />
    <glyph glyph-name="afii10017" unicode="&#x410;" horiz-adv-x="668" 
d="M491 0l-42 147h-230l-42 -147h-178l234 724h202l234 -724h-178zM353 493q-9 32 -14 61q-3 15 -4 30h-2q-2 -15 -5 -30q-2 -14 -5 -29.5t-8 -31.5l-64 -223h166z" />
    <glyph glyph-name="afii10018" unicode="&#x411;" horiz-adv-x="611" 
d="M575 214q0 -51 -17.5 -92.5t-52.5 -71.5t-89.5 -46t-127.5 -16q-66 0 -127 11t-101 28v697h437v-142h-276v-145q13 3 33.5 5t43.5 2q68 0 120 -16.5t87 -46.5t52.5 -72.5t17.5 -94.5zM406 218q0 48 -31.5 75t-94.5 27q-17 0 -32.5 -2t-26.5 -4v-191q11 -3 28 -5.5
t36 -2.5q59 0 90 26.5t31 76.5z" />
    <glyph glyph-name="afii10019" unicode="&#x412;" horiz-adv-x="620" 
d="M584 199q0 -99 -73.5 -155t-221.5 -56q-66 0 -128 11t-101 28v670q44 17 103.5 28t125.5 11q73 0 125.5 -15t86.5 -42t50.5 -64t16.5 -81q0 -29 -8.5 -54.5t-23.5 -45.5t-34.5 -34.5t-41.5 -21.5v-2q21 -8 43 -23t40 -37t29.5 -51.5t11.5 -65.5zM407 516q0 44 -27 69
t-92 25q-19 0 -37.5 -2.5t-29.5 -6.5v-176h80q29 0 48 5.5t30 15.5q13 11 20.5 29t7.5 41zM416 211q0 50 -33 74q-14 10 -32.5 15.5t-48.5 5.5h-81v-183q12 -4 31 -6.5t37 -2.5q66 0 96.5 23t30.5 74z" />
    <glyph glyph-name="afii10020" unicode="&#x413;" horiz-adv-x="478" 
d="M227 582v-582h-166v724h387v-142h-221z" />
    <glyph glyph-name="afii10021" unicode="&#x414;" horiz-adv-x="766" 
d="M722 -146h-115l-4 146h-447l-4 -146h-116l-8 263q45 33 76 80.5t51.5 103.5t32 117.5t19.5 123.5l22 182h384l63 -582l55 -25zM467 586h-96l-7 -62q-6 -53 -15.5 -109.5t-24.5 -109t-36 -97.5t-49 -75h273z" />
    <glyph glyph-name="afii10022" unicode="&#x415;" horiz-adv-x="493" 
d="M60 0v724h390v-142h-223v-148h199v-139h-199v-153h223v-142h-390z" />
    <glyph glyph-name="afii10024" unicode="&#x416;" horiz-adv-x="935" 
d="M748 0l-89 241q-15 40 -41 66t-70 26v-333h-161v333q-44 0 -70 -26t-41 -66l-89 -241h-179l100 256q19 48 49 84t72 58l-215 326h192l179 -321h2v321h161v-321h2l180 321h191l-215 -326q42 -22 72 -58t49 -84l100 -256h-179z" />
    <glyph glyph-name="afii10025" unicode="&#x417;" horiz-adv-x="560" 
d="M524 211q0 -51 -19.5 -92t-56 -70t-90.5 -45t-123 -16q-60 0 -113.5 10.5t-101.5 29.5l53 130q35 -14 73 -21.5t87 -7.5q59 0 88.5 23t29.5 60q0 23 -15 41t-41 30t-62.5 18.5t-78.5 6.5h-10v122q91 4 139 32t48 68q0 31 -25 49t-76 18q-38 0 -76.5 -8.5t-71.5 -22.5
l-48 130q51 20 107 30t114 10q126 0 186.5 -52.5t60.5 -139.5q0 -51 -32 -92.5t-79 -63.5v-2q27 -11 51 -26.5t42.5 -37t29 -49.5t10.5 -62z" />
    <glyph glyph-name="afii10026" unicode="&#x418;" horiz-adv-x="668" 
d="M459 0v400q0 18 1 32q0 16 1 31h-2q-6 -14 -13 -28q-13 -27 -31 -59l-220 -376h-135v724h149v-351q0 -18 -0.5 -36t-0.5 -32v-32h2q5 13 12 28q6 13 14 28.5t17 30.5l214 364h141v-724h-149z" />
    <glyph glyph-name="afii10027" unicode="&#x419;" horiz-adv-x="668" 
d="M492 937q-4 -73 -42.5 -116.5t-114.5 -43.5t-114.5 43.5t-42.5 116.5l90 15q3 -39 19 -60t48 -21t48 21t19 60zM459 0v400q0 18 1 32q0 16 1 31h-2q-6 -14 -13 -28q-13 -27 -31 -59l-220 -376h-135v724h149v-351q0 -18 -0.5 -36t-0.5 -32v-32h2q5 13 12 28q6 13 14 28.5
t17 30.5l214 364h141v-724h-149z" />
    <glyph glyph-name="afii10028" unicode="&#x41a;" horiz-adv-x="635" 
d="M437 0l-85 235q-14 41 -45.5 69t-76.5 28v-332h-170v724h170v-320h2l195 320h194l-221 -326q46 -22 76.5 -58.5t50.5 -86.5l100 -253h-190z" />
    <glyph glyph-name="afii10029" unicode="&#x41b;" horiz-adv-x="682" 
d="M474 0l-57 586h-96l-18 -189q-7 -71 -23 -137t-45.5 -121t-74 -96.5t-107.5 -62.5l-47 148q33 18 56 45.5t38.5 63.5t24.5 81t14 97l32 309h398l79 -724h-174z" />
    <glyph glyph-name="afii10030" unicode="&#x41c;" horiz-adv-x="872" 
d="M685 0l-41 418q-2 17 -3.5 35.5t-2.5 33.5q-1 18 -2 33h-2q-3 -16 -7 -33q-3 -15 -7.5 -33t-9.5 -36l-122 -418h-104l-122 418q-5 18 -9.5 36t-7.5 33q-4 17 -7 33h-2q-1 -15 -2 -33q-1 -15 -2 -33.5t-3 -35.5l-42 -418h-157l87 724h190l107 -373q5 -17 8.5 -33.5
t6.5 -30.5q4 -16 6 -31h2q2 15 6 31q3 14 6.5 30.5t8.5 33.5l107 373h190l87 -724h-157z" />
    <glyph glyph-name="afii10031" unicode="&#x41d;" horiz-adv-x="637" 
d="M407 0v295h-177v-295h-170v724h170v-290h177v290h170v-724h-170z" />
    <glyph glyph-name="afii10032" unicode="&#x41e;" horiz-adv-x="644" 
d="M604 362q0 -80 -17 -148.5t-51.5 -118.5t-88 -78.5t-125.5 -28.5t-125.5 28.5t-88 78.5t-51.5 118.5t-17 148.5t17 148.5t51.5 118.5t88 78.5t125.5 28.5t125.5 -28.5t88 -78.5t51.5 -118.5t17 -148.5zM434 362q0 106 -28 165.5t-84 59.5t-84 -59.5t-28 -165.5t28 -165.5
t84 -59.5t84 59.5t28 165.5z" />
    <glyph glyph-name="afii10033" unicode="&#x41f;" horiz-adv-x="637" 
d="M407 0v586h-177v-586h-170v724h517v-724h-170z" />
    <glyph glyph-name="afii10034" unicode="&#x420;" horiz-adv-x="600" 
d="M570 499q0 -50 -18 -93t-53.5 -74t-89 -48.5t-125.5 -17.5q-15 0 -31 1t-26 3v-270h-167v697q44 19 99 29t121 10q141 0 215.5 -64.5t74.5 -172.5zM403 499q0 110 -121 110q-16 0 -30.5 -2.5t-24.5 -5.5v-204q8 -2 21.5 -3t27.5 -1q64 0 95.5 27.5t31.5 78.5z" />
    <glyph glyph-name="afii10035" unicode="&#x421;" horiz-adv-x="515" 
d="M488 27q-26 -17 -66.5 -28t-91.5 -11q-61 0 -114 23t-92 69.5t-61.5 117t-22.5 164.5t22.5 164.5t61.5 117t92 69.5t114 23q48 0 90 -11t68 -28l-52 -135q-14 11 -36 18.5t-48 7.5q-63 0 -100 -57.5t-37 -166.5t37 -167t100 -58q26 0 48 8t36 19z" />
    <glyph glyph-name="afii10036" unicode="&#x422;" horiz-adv-x="508" 
d="M339 582v-582h-170v582h-138v142h446v-142h-138z" />
    <glyph glyph-name="afii10037" unicode="&#x423;" horiz-adv-x="614" 
d="M590 724q-5 -65 -21.5 -133t-39.5 -134t-52 -129t-59 -118l-115 -210h-191l118 205q-81 115 -137.5 247.5t-68.5 271.5h180q11 -108 40.5 -201.5t70.5 -176.5h2q34 81 59 176t34 202h180z" />
    <glyph glyph-name="afii10038" unicode="&#x424;" horiz-adv-x="848" 
d="M812 364q0 -61 -21 -117t-61.5 -99.5t-98.5 -70.5t-133 -31v-72h-148v72q-75 4 -133 31t-98.5 70.5t-61.5 99.5t-21 117t21 117t61.5 99.5t98.5 71t133 31.5v67h148v-67q75 -4 133 -31.5t98.5 -71t61.5 -99.5t21 -117zM645 365q0 36 -9.5 69t-28 59t-46 42.5t-63.5 18.5
v-378q36 1 63.5 17.5t46 43t28 59.5t9.5 69zM350 554q-36 -2 -63.5 -18.5t-46 -42.5t-28 -59t-9.5 -69t9.5 -69t28 -59.5t46 -43t63.5 -17.5v378z" />
    <glyph glyph-name="afii10039" unicode="&#x425;" horiz-adv-x="610" 
d="M424 0l-118 241h-2l-118 -241h-187l205 376l-189 348h185l104 -215h2l104 215h185l-189 -348l205 -376h-187z" />
    <glyph glyph-name="afii10040" unicode="&#x426;" horiz-adv-x="661" 
d="M615 -146h-116l-4 146h-435v724h170v-582h169v582h170v-582l54 -25z" />
    <glyph glyph-name="afii10041" unicode="&#x427;" horiz-adv-x="623" 
d="M393 0v254q-23 -10 -53.5 -16t-59.5 -6q-51 0 -92.5 15.5t-70.5 44t-45 68.5t-16 90v274h170v-258q0 -44 26 -65t68 -21q19 0 40 4.5t33 10.5v329h170v-724h-170z" />
    <glyph glyph-name="afii10042" unicode="&#x428;" horiz-adv-x="908" 
d="M60 0v724h162v-582h151v582h162v-582h151v582h162v-724h-788z" />
    <glyph glyph-name="afii10043" unicode="&#x429;" horiz-adv-x="939" 
d="M893 -146h-115l-4 146h-714v724h162v-582h151v582h162v-582h151v582h162v-582l54 -25z" />
    <glyph glyph-name="afii10044" unicode="&#x42a;" horiz-adv-x="673" 
d="M639 226q0 -54 -18.5 -98t-55.5 -75t-91 -48t-124 -17q-66 0 -120.5 10t-98.5 29v555h-105v142h270v-270q10 2 27 4t33 2q71 0 124 -17.5t88.5 -49t53 -74.5t17.5 -93zM473 225q0 52 -31 80t-94 28q-14 0 -29 -2t-23 -4v-204q10 -3 24.5 -5.5t30.5 -2.5q122 0 122 110z
" />
    <glyph glyph-name="afii10045" unicode="&#x42b;" horiz-adv-x="866" 
d="M636 0v724h170v-724h-170zM568 226q0 -54 -19 -98t-55.5 -75t-91 -48t-124.5 -17q-66 0 -120 10t-98 29v697h165v-270q10 2 27 4t33 2q71 0 124 -17.5t88.5 -49t53 -74.5t17.5 -93zM401 225q0 52 -30.5 80t-93.5 28q-14 0 -29 -2t-23 -4v-204q10 -3 24.5 -5.5t30.5 -2.5
q121 0 121 110z" />
    <glyph glyph-name="afii10046" unicode="&#x42c;" horiz-adv-x="602" 
d="M568 226q0 -54 -19 -98t-55.5 -75t-91 -48t-124.5 -17q-66 0 -120 10t-98 29v697h165v-270q10 2 27 4t33 2q71 0 124 -17.5t88.5 -49t53 -74.5t17.5 -93zM401 225q0 52 -30.5 80t-93.5 28q-14 0 -29 -2t-23 -4v-204q10 -3 24.5 -5.5t30.5 -2.5q121 0 121 110z" />
    <glyph glyph-name="afii10047" unicode="&#x42d;" horiz-adv-x="598" 
d="M558 362q0 -92 -25.5 -161.5t-71 -117t-109.5 -71.5t-140 -24q-60 0 -106 11t-78 28l59 128q23 -12 55 -19t64 -7q33 0 63 9.5t53.5 30t40 52.5t22.5 76h-272v138h271q-15 84 -64 122.5t-114 38.5q-32 0 -64 -6t-55 -19l-59 126q32 17 79.5 28t104.5 11q76 0 140 -24
t109.5 -71.5t71 -117.5t25.5 -161z" />
    <glyph glyph-name="afii10048" unicode="&#x42e;" horiz-adv-x="897" 
d="M855 362q0 -82 -15 -150.5t-47.5 -118t-82.5 -77.5t-119 -28q-62 0 -108.5 22.5t-78.5 63t-50 97t-24 124.5h-103v-295h-167v724h167v-290h103q6 67 24.5 122.5t50.5 95.5t78 62t108 22q69 0 119 -28t82.5 -77.5t47.5 -118t15 -150.5zM689 364q0 115 -23 179.5t-75 64.5
t-75.5 -64.5t-23.5 -179.5t23.5 -180t75.5 -65t75 65t23 180z" />
    <glyph glyph-name="afii10049" unicode="&#x42f;" horiz-adv-x="632" 
d="M405 0v281h-46q-33 0 -54 -18.5t-32 -47.5l-79 -215h-178l86 222q14 36 33.5 65t48.5 46v2q-24 9 -46.5 23.5t-40.5 36t-28.5 50.5t-10.5 66q0 108 71.5 166.5t213.5 58.5q65 0 124.5 -10t104.5 -29v-697h-167zM405 601q-11 4 -29.5 6t-36.5 2q-60 0 -87 -27t-27 -81
q0 -100 112 -100h68v200z" />
    <glyph glyph-name="afii10065" unicode="&#x430;" horiz-adv-x="548" 
d="M494 27q-31 -16 -88 -27.5t-122 -11.5q-128 0 -191 45.5t-63 132.5q0 54 25.5 88t68 54.5t98.5 30t117 12.5v21q0 63 -86 63q-39 0 -81.5 -10.5t-71.5 -22.5l-40 110q36 14 93 26.5t120 12.5q110 0 165.5 -46t55.5 -153v-325zM339 248q-33 -2 -61.5 -5t-49.5 -11.5
t-33 -23t-12 -38.5q0 -33 25.5 -50.5t70.5 -17.5q17 0 34.5 2.5t25.5 5.5v138z" />
    <glyph glyph-name="afii10066" unicode="&#x431;" horiz-adv-x="577" 
d="M541 270q0 -62 -16.5 -113.5t-48 -89t-77.5 -58.5t-105 -21q-63 0 -110.5 23.5t-79 67t-47.5 106t-16 139.5q0 105 20 187t70 141.5t135 95.5t215 49v-134q-57 -6 -99.5 -16t-73 -25.5t-51 -37.5t-32.5 -53q19 7 39.5 11.5t45.5 4.5q60 0 103.5 -21.5t72 -58.5t42 -88
t13.5 -109zM378 270q0 74 -23 118.5t-75 44.5q-18 0 -38 -4t-38 -11q-2 -23 -3 -48t-1 -54q0 -96 25 -146t71 -50q42 0 62 42t20 108z" />
    <glyph glyph-name="afii10067" unicode="&#x432;" horiz-adv-x="557" 
d="M523 147q0 -85 -65 -122t-194 -37q-60 0 -114 10t-96 29v485q42 19 95.5 29t113.5 10q122 0 185 -39t63 -113q0 -21 -8.5 -41t-23 -35.5t-34 -27t-41.5 -16.5v-1q21 -5 42 -15.5t38.5 -26t28 -38t10.5 -51.5zM354 386q0 32 -20.5 49.5t-70.5 17.5q-14 0 -28.5 -2
t-23.5 -5v-129h64q40 0 58 16q9 8 15 22t6 31zM361 156q0 38 -25 55q-11 8 -24 12t-36 4h-65v-134q9 -3 24 -5t29 -2q51 0 74 16t23 54z" />
    <glyph glyph-name="afii10068" unicode="&#x433;" horiz-adv-x="407" 
d="M219 412v-412h-164v539h326v-127h-162z" />
    <glyph glyph-name="afii10069" unicode="&#x434;" horiz-adv-x="654" 
d="M616 -146h-113l-4 146h-350l-5 -146h-113l-9 251q35 20 60 52t42 71.5t27.5 84.5t17.5 90l20 136h344l43 -412l49 -22zM401 417h-84l-7 -46q-5 -31 -12 -65.5t-18 -67.5t-27 -63.5t-39 -53.5h213z" />
    <glyph glyph-name="afii10070" unicode="&#x435;" horiz-adv-x="571" 
d="M535 298v-25q0 -12 -2 -25l-336 -44q10 -45 45 -66.5t86 -21.5q41 0 81.5 9t70.5 24l46 -122q-37 -17 -93.5 -28t-117.5 -11q-70 0 -122.5 21.5t-87 59.5t-52 89.5t-17.5 111.5q0 62 17.5 113.5t50.5 89t81 58t109 20.5q59 0 104 -18.5t75.5 -52.5t46 -80.5t15.5 -101.5z
M376 330q0 51 -23 78t-63 27q-44 0 -73.5 -31t-30.5 -98z" />
    <glyph glyph-name="afii10072" unicode="&#x436;" horiz-adv-x="815" 
d="M640 0l-62 163q-13 35 -36.5 60t-58.5 25v-248h-150v248q-35 0 -59 -25t-37 -60l-61 -163h-170l74 180q35 83 105 121l-170 238h176l140 -233h2v233h150v-233h2l139 233h177l-170 -238q36 -20 61.5 -49.5t42.5 -71.5l74 -180h-169z" />
    <glyph glyph-name="afii10073" unicode="&#x437;" horiz-adv-x="505" 
d="M472 148q0 -38 -18 -68t-50.5 -50.5t-78.5 -31t-102 -10.5t-110.5 10.5t-96.5 28.5l48 108q28 -13 65 -20t74 -7q43 0 70 15t27 41q0 27 -27 44t-90 17h-60v97h58q57 0 81 17t24 43q0 23 -22.5 38t-61.5 15q-32 0 -66.5 -7.5t-63.5 -21.5l-43 106q42 19 96 29t108 10
q57 0 98.5 -11.5t68.5 -32t40.5 -48t13.5 -59.5q0 -40 -26 -71t-66 -46v-2q45 -16 77.5 -48.5t32.5 -84.5z" />
    <glyph glyph-name="afii10074" unicode="&#x438;" horiz-adv-x="605" 
d="M406 0v296q0 13 1 24q0 12 1 23h-2q-4 -10 -9 -21q-5 -9 -10.5 -21t-12.5 -23l-164 -278h-156v539h144v-258q0 -14 -0.5 -27.5t-0.5 -24.5q-1 -13 -1 -24h2l10 22q5 10 10.5 21.5t12.5 22.5l159 268h161v-539h-145z" />
    <glyph glyph-name="afii10075" unicode="&#x439;" horiz-adv-x="605" 
d="M406 0v296q0 13 1 24q0 12 1 23h-2q-4 -10 -9 -21q-5 -9 -10.5 -21t-12.5 -23l-164 -278h-156v539h144v-258q0 -14 -0.5 -27.5t-0.5 -24.5q-1 -13 -1 -24h2l10 22q5 10 10.5 21.5t12.5 22.5l159 268h161v-539h-145zM458 752q-4 -73 -42.5 -116.5t-114.5 -43.5
t-114.5 43.5t-42.5 116.5l90 15q3 -39 19 -60t48 -21t48 21t19 60z" />
    <glyph glyph-name="afii10076" unicode="&#x43a;" horiz-adv-x="568" 
d="M382 0l-64 163q-14 35 -39 60t-63 25v-248h-162v539h162v-233h2l149 233h186l-175 -238q36 -18 63 -49t45 -73l76 -179h-180z" />
    <glyph glyph-name="afii10077" unicode="&#x43b;" horiz-adv-x="616" 
d="M419 0l-40 412h-83l-16 -116q-7 -49 -21 -99t-40 -93t-65.5 -76t-96.5 -47l-53 132q26 10 45.5 29.5t33 45.5t22.5 57t14 65l32 229h378l56 -539h-166z" />
    <glyph glyph-name="afii10078" unicode="&#x43c;" horiz-adv-x="790" 
d="M608 0l-30 308q-2 14 -2.5 28t-1.5 25q-1 13 -1 26h-2q-2 -13 -5 -26q-2 -11 -6 -24.5t-8 -27.5l-93 -309h-128l-93 309q-9 27 -14 52q-3 13 -5 26h-2q0 -13 -1 -26q-1 -11 -2 -25l-2 -28l-30 -308h-155l73 539h196l82 -275q4 -12 7 -24.5t5 -23.5q3 -12 4 -23h2
q1 11 4 23q2 11 5 23.5t7 24.5l82 275h196l73 -539h-155z" />
    <glyph glyph-name="afii10079" unicode="&#x43d;" horiz-adv-x="576" 
d="M358 0v218h-139v-218h-165v539h165v-214h139v214h164v-539h-164z" />
    <glyph glyph-name="afii10080" unicode="&#x43e;" horiz-adv-x="578" 
d="M542 270q0 -60 -17 -112t-49 -89.5t-79.5 -59t-107.5 -21.5t-107.5 21.5t-79.5 59t-49 89.5t-17 112t17 111.5t49 89t79.5 59t107.5 21.5t107.5 -21.5t79.5 -59t49 -89t17 -111.5zM377 272q0 151 -88 151t-88 -151q0 -75 22 -113.5t66 -38.5t66 38.5t22 113.5z" />
    <glyph glyph-name="afii10081" unicode="&#x43f;" horiz-adv-x="577" 
d="M359 0v412h-140v-412h-165v539h469v-539h-164z" />
    <glyph glyph-name="afii10082" unicode="&#x440;" horiz-adv-x="576" 
d="M540 271q0 -63 -16 -114t-48 -87t-79.5 -55.5t-110.5 -19.5q-18 0 -37 2.5t-30 6.5v-219h-165v727q32 17 88 28t122 11q135 0 205.5 -72t70.5 -208zM375 271q0 76 -28 115t-80 39q-14 0 -27 -2.5t-21 -5.5v-290q7 -3 21 -5.5t28 -2.5q53 0 80 42t27 110z" />
    <glyph glyph-name="afii10083" unicode="&#x441;" horiz-adv-x="455" 
d="M431 25q-27 -18 -61.5 -27.5t-86.5 -9.5q-50 0 -94.5 17.5t-78.5 52.5t-54 88t-20 124t20 123.5t54 87.5t78.5 52.5t94.5 17.5q52 0 86.5 -10t61.5 -27l-51 -117q-13 10 -31.5 15t-39.5 5q-47 0 -74.5 -38t-27.5 -107t29 -107.5t73 -38.5q21 0 39.5 5t31.5 15z" />
    <glyph glyph-name="afii10084" unicode="&#x442;" horiz-adv-x="464" 
d="M315 411v-411h-165v411h-123v128h410v-128h-122z" />
    <glyph glyph-name="afii10085" unicode="&#x443;" horiz-adv-x="567" 
d="M545 539q-5 -68 -21 -138t-39.5 -139t-51 -134.5t-54.5 -123.5l-104 -219h-170l105 215q-35 61 -66.5 127t-57 134t-42.5 138t-22 140h174q10 -112 34 -207.5t59 -186.5h2q29 89 50.5 185.5t29.5 208.5h174z" />
    <glyph glyph-name="afii10086" unicode="&#x444;" horiz-adv-x="811" 
d="M775 270q0 -61 -14.5 -112t-42 -88t-67 -57.5t-89.5 -20.5q-23 0 -44.5 5.5t-35.5 13.5v-226h-153v226q-14 -8 -35 -13.5t-44 -5.5q-50 0 -89.5 20.5t-67.5 57.5t-42.5 88t-14.5 112t14.5 112t42.5 87.5t67.5 57t89.5 20.5q23 0 44 -5t35 -13v256h153v-256q14 8 35.5 13
t44.5 5q50 0 89.5 -20.5t67 -57t42 -87.5t14.5 -112zM620 270q0 34 -5 63.5t-16 51.5t-28 34.5t-42 12.5q-14 0 -26 -3t-21 -8v-303q20 -10 47 -10q25 0 42 12.5t28 34.5t16 51.5t5 63.5zM329 421q-9 5 -21 8t-26 3q-25 0 -42 -12.5t-28 -34.5t-16 -51.5t-5 -63.5t5 -63.5
t16 -51.5t28 -34.5t42 -12.5q27 0 47 10v303z" />
    <glyph glyph-name="afii10087" unicode="&#x445;" horiz-adv-x="568" 
d="M380 0l-95 169h-2l-95 -169h-189l183 279l-168 260h186l83 -156h2l84 156h185l-167 -260l182 -279h-189z" />
    <glyph glyph-name="afii10088" unicode="&#x446;" horiz-adv-x="598" 
d="M559 -146h-113l-5 146h-387v539h165v-412h135v412h165v-412l48 -22z" />
    <glyph glyph-name="afii10089" unicode="&#x447;" horiz-adv-x="571" 
d="M353 0v189q-23 -10 -49.5 -16t-54.5 -6q-97 0 -147.5 47.5t-50.5 138.5v186h165v-167q0 -75 78 -75q16 0 31.5 4t27.5 10v228h164v-539h-164z" />
    <glyph glyph-name="afii10090" unicode="&#x448;" horiz-adv-x="864" 
d="M54 0v539h165v-413h130v413h165v-413h131v413h165v-539h-756z" />
    <glyph glyph-name="afii10091" unicode="&#x449;" horiz-adv-x="889" 
d="M849 -146h-112l-5 146h-678v539h165v-413h130v413h165v-413h131v413h165v-412l48 -22z" />
    <glyph glyph-name="afii10092" unicode="&#x44a;" horiz-adv-x="606" 
d="M575 170q0 -90 -66 -136t-189 -46q-54 0 -109 10t-94 29v385h-96v127h257v-193q11 2 27 3.5t30 1.5q117 0 178.5 -47t61.5 -134zM413 170q0 39 -22.5 59.5t-70.5 20.5q-11 0 -22.5 -2t-19.5 -4v-147q17 -7 43 -7q46 0 69 19t23 61z" />
    <glyph glyph-name="afii10093" unicode="&#x44b;" horiz-adv-x="791" 
d="M572 0v539h165v-539h-165zM512 170q0 -90 -65.5 -136t-188.5 -46q-54 0 -109.5 10t-94.5 29v512h161v-193q11 2 27 3.5t30 1.5q117 0 178.5 -47t61.5 -134zM351 170q0 80 -94 80q-11 0 -22.5 -2t-19.5 -4v-147q8 -3 20 -5t24 -2q46 0 69 19t23 61z" />
    <glyph glyph-name="afii10094" unicode="&#x44c;" horiz-adv-x="543" 
d="M512 170q0 -90 -65.5 -136t-188.5 -46q-54 0 -109.5 10t-94.5 29v512h161v-193q11 2 27 3.5t30 1.5q117 0 178.5 -47t61.5 -134zM351 170q0 80 -94 80q-11 0 -22.5 -2t-19.5 -4v-147q8 -3 20 -5t24 -2q46 0 69 19t23 61z" />
    <glyph glyph-name="afii10095" unicode="&#x44d;" horiz-adv-x="525" 
d="M489 270q0 -69 -21.5 -122t-60.5 -88.5t-93.5 -53.5t-120.5 -18q-47 0 -92.5 10.5t-74.5 28.5l43 105q20 -12 51 -20t61 -8q54 0 92.5 27t49.5 87h-229v109h228q-13 58 -51 84t-90 26q-30 0 -61 -8t-51 -20l-43 103q29 18 74.5 28.5t92.5 10.5q66 0 120.5 -18t93.5 -53
t60.5 -88t21.5 -122z" />
    <glyph glyph-name="afii10096" unicode="&#x44e;" horiz-adv-x="803" 
d="M766 270q0 -60 -14.5 -112t-44 -89.5t-74 -59t-104.5 -21.5q-52 0 -92 16.5t-69 46t-46.5 70t-24.5 89.5h-82v-210h-161v539h161v-206h82q7 48 24.5 88t46.5 69t69.5 45t91.5 16q60 0 104.5 -21.5t74 -59t44 -89t14.5 -111.5zM609 272q0 75 -19.5 114.5t-60.5 39.5
t-60.5 -39.5t-19.5 -114.5t19.5 -115t60.5 -40t60.5 40t19.5 115z" />
    <glyph glyph-name="afii10097" unicode="&#x44f;" horiz-adv-x="570" 
d="M354 0v200h-42q-26 0 -44.5 -13.5t-26.5 -36.5l-54 -150h-171l61 161q8 23 25.5 44.5t39.5 34.5v2q-38 15 -66 49.5t-28 85.5q0 82 65 128t185 46q57 0 116.5 -10t100.5 -29v-512h-161zM354 443q-12 4 -26.5 5.5t-31.5 1.5q-45 0 -66.5 -21t-21.5 -59q0 -35 21 -54.5
t65 -19.5h60v147z" />
    <glyph glyph-name="afii10071" unicode="&#x451;" horiz-adv-x="571" 
d="M473 671q0 -29 -22.5 -50t-54.5 -21t-54.5 21t-22.5 50t22.5 50t54.5 21t54.5 -21t22.5 -50zM259 671q0 -29 -22.5 -50t-54.5 -21t-54.5 21t-22.5 50t22.5 50t54.5 21t54.5 -21t22.5 -50zM535 298v-25q0 -12 -2 -25l-336 -44q10 -45 45 -66.5t86 -21.5q41 0 81.5 9
t70.5 24l46 -122q-37 -17 -93.5 -28t-117.5 -11q-70 0 -122.5 21.5t-87 59.5t-52 89.5t-17.5 111.5q0 62 17.5 113.5t50.5 89t81 58t109 20.5q59 0 104 -18.5t75.5 -52.5t46 -80.5t15.5 -101.5zM376 330q0 51 -23 78t-63 27q-44 0 -73.5 -31t-30.5 -98z" />
    <glyph glyph-name="afii10099" unicode="&#x452;" horiz-adv-x="581" 
d="M543 225q0 -70 -14 -132.5t-40 -115t-63.5 -94t-84.5 -69.5l-86 107q35 28 58.5 59.5t38 68.5t20.5 80.5t6 95.5q0 43 -6 78.5t-18.5 61.5t-32.5 40.5t-47 14.5q-32 0 -57 -14v-406h-161v613h-66v92h66v80h161v-80h152v-92h-152v-87q18 10 43 16t51 6q115 0 173.5 -84.5
t58.5 -238.5z" />
    <glyph glyph-name="afii10100" unicode="&#x453;" horiz-adv-x="407" 
d="M219 412v-412h-164v539h326v-127h-162zM245 601h-111l69 131q18 18 42 26t47 8t41.5 -9t23.5 -25z" />
    <glyph glyph-name="afii10101" unicode="&#x454;" horiz-adv-x="525" 
d="M500 27q-29 -18 -75 -28.5t-93 -10.5q-66 0 -120.5 18t-93.5 53.5t-60.5 88.5t-21.5 122t21.5 122t60.5 88t93.5 53t120.5 18q47 0 93 -10.5t75 -28.5l-44 -103q-20 12 -51 20t-61 8q-52 0 -90 -26t-51 -84h228v-109h-229q11 -60 49.5 -87t92.5 -27q30 0 61 8t51 20z" />
    <glyph glyph-name="afii10102" unicode="&#x455;" horiz-adv-x="468" 
d="M436 161q0 -80 -57 -126.5t-172 -46.5q-54 0 -103.5 12t-79.5 27l52 124q10 -6 25.5 -12t33.5 -11t35.5 -8t31.5 -3q29 0 45.5 12.5t16.5 32.5q0 23 -20 35t-49 23q-24 9 -51.5 20.5t-51 30t-39 46.5t-15.5 69q0 76 54.5 120.5t154.5 44.5q56 0 99.5 -11t75.5 -28
l-49 -111q-17 10 -47.5 20t-56.5 10q-29 0 -45.5 -12t-16.5 -32q0 -25 20 -37t50 -23q25 -9 53 -20t51.5 -29.5t39 -46.5t15.5 -70z" />
    <glyph glyph-name="afii10103" unicode="&#x456;" horiz-adv-x="275" 
d="M55 0v539h165v-539h-165zM226 684q0 -35 -25.5 -58.5t-62.5 -23.5t-62.5 23.5t-25.5 58.5t25.5 59t62.5 24t62.5 -24t25.5 -59z" />
    <glyph glyph-name="afii10104" unicode="&#x457;" horiz-adv-x="275" 
d="M55 0v539h165v-539h-165zM322 671q0 -29 -22.5 -50t-54.5 -21t-54.5 21t-22.5 50t22.5 50t54.5 21t54.5 -21t22.5 -50zM108 671q0 -29 -22.5 -50t-54.5 -21t-54.5 21t-22.5 50t22.5 50t54.5 21t54.5 -21t22.5 -50z" />
    <glyph glyph-name="afii10105" unicode="&#x458;" horiz-adv-x="275" 
d="M220 74q0 -80 -21.5 -134t-57.5 -88.5t-84 -52t-102 -23.5v135q19 6 37.5 17t32 30.5t22 48t8.5 67.5v465h165v-465zM226 684q0 -35 -25.5 -58.5t-62.5 -23.5t-62.5 23.5t-25.5 58.5t25.5 59t62.5 24t62.5 -24t25.5 -59z" />
    <glyph glyph-name="afii10106" unicode="&#x459;" horiz-adv-x="869" 
d="M838 170q0 -54 -22.5 -89t-58.5 -55.5t-81.5 -29t-91.5 -8.5q-54 0 -109.5 10t-94.5 29v385h-86l-16 -116q-7 -49 -21 -99t-40 -93t-65 -76t-95 -47l-53 132q25 10 44.5 29.5t33.5 45t22.5 57t13.5 65.5l31 229h393v-193q11 2 27 3.5t30 1.5q117 0 178 -47t61 -134z
M677 170q0 80 -94 80q-11 0 -22 -2t-19 -4v-147q17 -7 43 -7q46 0 69 19t23 61z" />
    <glyph glyph-name="afii10107" unicode="&#x45a;" horiz-adv-x="841" 
d="M810 170q0 -90 -65.5 -136t-188.5 -46q-54 0 -109.5 10t-94.5 29v183h-137v-210h-161v539h161v-206h137v206h161v-193q11 2 27 3.5t30 1.5q117 0 178.5 -47t61.5 -134zM648 170q0 39 -22.5 59.5t-70.5 20.5q-11 0 -22.5 -2t-19.5 -4v-147q17 -7 43 -7q46 0 69 19t23 61z
" />
    <glyph glyph-name="afii10108" unicode="&#x45b;" horiz-adv-x="575" 
d="M356 0v347q0 73 -79 73q-16 0 -32 -4t-28 -10v-406h-161v613h-66v92h66v80h161v-80h152v-92h-152v-87q23 10 50 16t55 6q97 0 148 -47t51 -137v-364h-165z" />
    <glyph glyph-name="afii10109" unicode="&#x45c;" horiz-adv-x="568" 
d="M382 0l-64 163q-14 35 -39 60t-63 25v-248h-162v539h162v-233h2l149 233h186l-175 -238q36 -18 63 -49t45 -73l76 -179h-180zM326 601h-111l69 131q18 18 42 26t47 8t41.5 -9t23.5 -25z" />
    <glyph glyph-name="afii10110" unicode="&#x45e;" horiz-adv-x="567" 
d="M545 539q-5 -68 -21 -138t-39.5 -139t-51 -134.5t-54.5 -123.5l-104 -219h-170l105 215q-35 61 -66.5 127t-57 134t-42.5 138t-22 140h174q10 -112 34 -207.5t59 -186.5h2q29 89 50.5 185.5t29.5 208.5h174zM441 752q-4 -73 -42.5 -116.5t-114.5 -43.5t-114.5 43.5
t-42.5 116.5l90 15q3 -39 19 -60t48 -21t48 21t19 60z" />
    <glyph glyph-name="afii10193" unicode="&#x45f;" horiz-adv-x="574" 
d="M348 0l-4 -146h-113l-5 146h-172v539h165v-412h136v412h165v-539h-172z" />
    <glyph glyph-name="afii10050" unicode="&#x490;" horiz-adv-x="495" 
d="M227 582v-582h-166v724h275v130h130v-272h-239z" />
    <glyph glyph-name="afii10098" unicode="&#x491;" horiz-adv-x="432" 
d="M219 412v-412h-164v539h228v123h124v-250h-188z" />
    <glyph glyph-name="endash" unicode="&#x2013;" horiz-adv-x="424" 
d="M-4 262v126h432v-126h-432z" />
    <glyph glyph-name="emdash" unicode="&#x2014;" horiz-adv-x="848" 
d="M66 262v126h716v-126h-716z" />
    <glyph glyph-name="quoteleft" unicode="&#x2018;" horiz-adv-x="326" 
d="M199 482q-16 -24 -40.5 -40.5t-57.5 -16.5t-51 18t-20 39l156 303h110z" />
    <glyph glyph-name="quoteright" unicode="&#x2019;" horiz-adv-x="326" 
d="M140 433h-110l97 303q16 24 40.5 40.5t57.5 16.5t51 -18t20 -39z" />
    <glyph glyph-name="quotesinglbase" unicode="&#x201a;" horiz-adv-x="326" 
d="M140 -169h-110l97 303q16 24 40.5 40.5t57.5 16.5t51 -18t20 -39z" />
    <glyph glyph-name="quotedblleft" unicode="&#x201c;" horiz-adv-x="563" 
d="M436 482q-16 -24 -40.5 -40.5t-57.5 -16.5t-50.5 18t-19.5 39l156 303h109zM199 482q-16 -24 -40.5 -40.5t-57.5 -16.5t-51 18t-20 39l156 303h110z" />
    <glyph glyph-name="quotedblright" unicode="&#x201d;" horiz-adv-x="563" 
d="M377 433h-109l96 303q16 24 40.5 40.5t57.5 16.5t51 -18t20 -39zM140 433h-110l97 303q16 24 40.5 40.5t57.5 16.5t51 -18t20 -39z" />
    <glyph glyph-name="quotedblbase" unicode="&#x201e;" horiz-adv-x="563" 
d="M377 -169h-109l96 303q16 24 40.5 40.5t57.5 16.5t51 -18t20 -39zM140 -169h-110l97 303q16 24 40.5 40.5t57.5 16.5t51 -18t20 -39z" />
    <glyph glyph-name="dagger" unicode="&#x2020;" horiz-adv-x="666" 
d="M416 386v-601h-165v601h-205v153h205v246h165v-246h204v-153h-204z" />
    <glyph glyph-name="daggerdbl" unicode="&#x2021;" horiz-adv-x="666" 
d="M416 66v-281h-165v281h-205v153h205v167h-205v153h205v246h165v-246h204v-153h-204v-167h204v-153h-204z" />
    <glyph glyph-name="bullet" unicode="&#x2022;" horiz-adv-x="446" 
d="M389 325q0 -35 -13 -65t-35.5 -52.5t-53 -35.5t-64.5 -13q-35 0 -65 13t-52.5 35.5t-35.5 52.5t-13 65q0 34 13 64.5t35.5 53t52.5 35.5t65 13q34 0 64.5 -13t53 -35.5t35.5 -53t13 -64.5z" />
    <glyph glyph-name="ellipsis" unicode="&#x2026;" horiz-adv-x="840" 
d="M800 90q0 -42 -29 -71t-71 -29t-71 29t-29 71t29 71t71 29t71 -29t29 -71zM520 90q0 -42 -29 -71t-71 -29t-71 29t-29 71t29 71t71 29t71 -29t29 -71zM240 90q0 -42 -29 -71t-71 -29t-71 29t-29 71t29 71t71 29t71 -29t29 -71z" />
    <glyph glyph-name="perthousand" unicode="&#x2030;" horiz-adv-x="1332" 
d="M1286 190q0 -46 -12.5 -83.5t-35.5 -63.5t-55 -40.5t-72 -14.5t-72 14.5t-55 40.5t-35.5 63.5t-12.5 83.5t12.5 83.5t35.5 63.5t55 40.5t72 14.5t72 -14.5t55 -40.5t35.5 -63.5t12.5 -83.5zM886 190q0 -46 -12.5 -83.5t-35.5 -63.5t-55.5 -40.5t-72.5 -14.5t-72 14.5
t-55 40.5t-35.5 63.5t-12.5 83.5t12.5 83.5t35.5 63.5t55 40.5t72 14.5t72.5 -14.5t55.5 -40.5t35.5 -63.5t12.5 -83.5zM381 -14l-97 31l266 721l98 -31zM397 534q0 -46 -12.5 -83.5t-35.5 -63.5t-55.5 -40.5t-72.5 -14.5t-72 14.5t-55 40.5t-35.5 63.5t-12.5 83.5
t12.5 83.5t35.5 63.5t55 40.5t72 14.5t72.5 -14.5t55.5 -40.5t35.5 -63.5t12.5 -83.5zM1168 192q0 48 -14.5 74.5t-42.5 26.5t-42.5 -26.5t-14.5 -74.5t14.5 -74.5t42.5 -26.5t42.5 26.5t14.5 74.5zM767 192q0 48 -14.5 74.5t-42.5 26.5t-42 -26.5t-14 -74.5t14 -74.5
t42 -26.5t42.5 26.5t14.5 74.5zM278 536q0 48 -14.5 74.5t-42.5 26.5t-42.5 -26.5t-14.5 -74.5t14.5 -74.5t42.5 -26.5t42.5 26.5t14.5 74.5z" />
    <glyph glyph-name="guilsinglleft" unicode="&#x2039;" horiz-adv-x="365" 
d="M223 47l-189 258l189 258l95 -70l-138 -188l138 -188z" />
    <glyph glyph-name="guilsinglright" unicode="&#x203a;" horiz-adv-x="365" 
d="M142 47l-95 70l138 188l-138 188l95 70l189 -258z" />
    <glyph glyph-name="Euro" unicode="&#x20ac;" horiz-adv-x="679" 
d="M648 27q-31 -17 -76 -28t-103 -11q-59 0 -110.5 16t-93 48t-71.5 79.5t-45 109.5h-103v81h91q-1 10 -1.5 19.5t-0.5 20.5t0.5 21.5t1.5 21.5h-91v81h103q15 61 45 108t71.5 78.5t93 47.5t110.5 16q56 0 102 -11t77 -28l-57 -121q-23 13 -53.5 19t-61.5 6
q-54 0 -96.5 -27.5t-63.5 -87.5h234v-81h-252q-1 -10 -1.5 -20t-0.5 -21t0.5 -21.5t1.5 -20.5h252v-81h-234q21 -60 63.5 -87.5t96.5 -27.5q31 0 61.5 6.5t53.5 19.5z" />
    <glyph glyph-name="afii61352" unicode="&#x2116;" horiz-adv-x="1086" 
d="M468 0l-220 376q-10 16 -17.5 31t-13.5 28q-7 14 -13 28h-2q0 -15 1 -31q0 -14 0.5 -31.5t0.5 -34.5v-366h-144v724h141l214 -364q9 -15 16.5 -30.5t13.5 -28.5q7 -15 13 -28h2q-1 15 -1 32v419h144v-724h-135zM1042 550q0 -40 -12 -74.5t-34.5 -59.5t-56 -39t-75.5 -14
t-75.5 14t-56.5 39t-35 59.5t-12 74.5t12 74t35 59t56.5 39t75.5 14t75.5 -14t56 -39t34.5 -59t12 -74zM696 208v94h335v-94h-335zM925 551q0 98 -61 98t-61 -98q0 -100 61 -100t61 100z" />
    <glyph glyph-name="trademark" unicode="&#x2122;" horiz-adv-x="943" 
d="M790 294l-27 246q-2 11 -2 21.5t-1 19.5q-1 11 -1 21h-2q-2 -9 -4 -20q-2 -9 -4.5 -20t-5.5 -22l-75 -246h-76l-75 246q-4 11 -6.5 22t-4.5 20q-3 11 -4 20h-2q0 -10 -1 -21q-1 -9 -1.5 -19.5t-1.5 -21.5l-26 -246h-103l54 430h130l65 -219q3 -10 5 -20t4 -18
q2 -10 4 -19h2q1 9 3 19l4.5 18t5.5 20l65 219h130l54 -430h-103zM255 630v-336h-116v336h-95v94h307v-94h-96z" />
    <glyph glyph-name="minus" unicode="&#x2212;" 
d="M56 262v126h428v-126h-428z" />
    <glyph glyph-name="uni2219" unicode="&#x2219;" horiz-adv-x="280" 
d="M240 324q0 -42 -29 -71t-71 -29t-71 29t-29 71t29 71t71 29t71 -29t29 -71z" />
    <glyph glyph-name="radical" unicode="&#x221a;" horiz-adv-x="787" 
d="M442 -215h-172l-160 477h-88v126h211l98 -321q5 -17 9 -35t7 -33q3 -18 5 -34h2q2 16 5 34q2 15 5.5 33t8.5 35l184 718h184z" />
    <glyph glyph-name="infinity" unicode="&#x221e;" horiz-adv-x="946" 
d="M901 325q0 -52 -16 -96t-45 -75.5t-70.5 -49t-92.5 -17.5q-38 0 -67.5 9t-54 25.5t-44.5 39t-38 49.5q-18 -27 -38.5 -49.5t-44.5 -39t-54 -25.5t-68 -9q-51 0 -92 17.5t-70.5 49t-45 75.5t-15.5 96t15.5 96t45 75.5t70.5 49t92 17.5q38 0 68 -9t54 -25.5t44.5 -39
t38.5 -49.5q18 27 38 49.5t44.5 39t54 25.5t67.5 9q51 0 92.5 -17.5t70.5 -49t45 -75.5t16 -96zM757 325q0 48 -26 75.5t-64 27.5q-21 0 -37.5 -7.5t-31 -21t-27 -32.5t-26.5 -42q14 -23 26.5 -42t27 -32.5t31 -21t37.5 -7.5q38 0 64 27.5t26 75.5zM401 325q-14 23 -27 42
t-27 32.5t-31 21t-38 7.5q-38 0 -63.5 -27.5t-25.5 -75.5t25.5 -75.5t63.5 -27.5q21 0 38 7.5t31 21t27 32.5t27 42z" />
    <glyph glyph-name="uni2224" unicode="&#x2224;" horiz-adv-x="280" 
d="M240 324q0 -42 -29 -71t-71 -29t-71 29t-29 71t29 71t71 29t71 -29t29 -71z" />
    <glyph glyph-name="logicaland" unicode="&#x2227;" horiz-adv-x="280" 
d="M240 324q0 -42 -29 -71t-71 -29t-71 29t-29 71t29 71t71 29t71 -29t29 -71z" />
    <glyph glyph-name="approxequal" unicode="&#x2248;" 
d="M493 429q-20 -36 -55.5 -57.5t-74.5 -21.5q-27 0 -48.5 8.5t-42.5 18.5t-42 18.5t-46 8.5q-29 0 -52 -12.5t-39 -34.5l-46 93q20 36 55 58t74 22q27 0 49 -8.5t42.5 -19t42 -19t46.5 -8.5q29 0 51.5 13t38.5 35zM493 199q-20 -36 -55.5 -58t-74.5 -22q-27 0 -48.5 8.5
t-42.5 19t-42 19t-46 8.5q-29 0 -52 -12.5t-39 -34.5l-46 93q20 36 55 57.5t74 21.5q27 0 49 -8.5t42.5 -18.5t42 -18.5t46.5 -8.5q29 0 51.5 12.5t38.5 34.5z" />
    <glyph glyph-name="notequal" unicode="&#x2260;" 
d="M236 147l-54 -119l-76 35l39 84h-89v126h144l49 104h-193v126h249l51 113l76 -35l-36 -78h88v-126h-144l-48 -104h192v-126h-248z" />
    <glyph glyph-name="lessequal" unicode="&#x2264;" 
d="M56 337v97l428 168v-123l-283 -94l283 -93v-123zM56 0v113h428v-113h-428z" />
    <glyph glyph-name="greaterequal" unicode="&#x2265;" 
d="M56 169v123l282 93l-282 94v123l428 -168v-97zM56 0v113h428v-113h-428z" />
    <glyph glyph-name="dotmath" unicode="&#x22c5;" horiz-adv-x="280" 
d="M240 324q0 -42 -29 -71t-71 -29t-71 29t-29 71t29 71t71 29t71 -29t29 -71z" />
    <glyph glyph-name="grave.lc" horiz-adv-x="460" 
d="M232 601l-112 131q5 16 23.5 25t41.5 9t47 -8t42 -26l69 -131h-111z" />
    <glyph glyph-name="dieresis.lc" horiz-adv-x="577" 
d="M462 671q0 -29 -22.5 -50t-54.5 -21t-54.5 21t-22.5 50t22.5 50t54.5 21t54.5 -21t22.5 -50zM248 671q0 -29 -22.5 -50t-54.5 -21t-54.5 21t-22.5 50t22.5 50t54.5 21t54.5 -21t22.5 -50z" />
    <glyph glyph-name="macron.lc" horiz-adv-x="280" 
d="M-10 619v96h302v-96h-302z" />
    <glyph glyph-name="acute.lc" horiz-adv-x="539" 
d="M323 601h-111l69 131q18 18 42 26t47 8t41.5 -9t23.5 -25z" />
    <glyph glyph-name="circumflex.lc" 
d="M371 588l-92 79l-93 -79l-62 51l105 107q21 21 50 21q28 0 49 -21l106 -107z" />
    <glyph glyph-name="caron.lc" horiz-adv-x="482" 
d="M272 611q-21 -21 -49 -21q-29 0 -50 21l-105 106l62 52l93 -79l92 79l63 -52z" />
    <glyph glyph-name="breve.lc" horiz-adv-x="282" 
d="M297 752q-4 -73 -42.5 -116.5t-114.5 -43.5t-114.5 43.5t-42.5 116.5l90 15q3 -39 19 -60t48 -21t48 21t19 60z" />
    <glyph glyph-name="dotaccent.lc" horiz-adv-x="277" 
d="M228 684q0 -35 -25.5 -58.5t-62.5 -23.5t-62.5 23.5t-25.5 58.5t25.5 59t62.5 24t62.5 -24t25.5 -59z" />
    <glyph glyph-name="ring.lc" horiz-adv-x="461" 
d="M356 690q0 -21 -8.5 -39.5t-23.5 -32t-35.5 -21.5t-43.5 -8t-43.5 8t-35.5 21.5t-23.5 32t-8.5 39.5t8.5 40t23.5 32.5t35.5 21.5t43.5 8t43.5 -8t35.5 -21.5t23.5 -32.5t8.5 -40zM288 690q0 17 -12.5 29.5t-30.5 12.5t-30.5 -12.5t-12.5 -29.5t12.5 -29t30.5 -12
t30.5 12t12.5 29z" />
    <glyph glyph-name="tilde.lc" horiz-adv-x="542" 
d="M436 711q-5 -48 -29.5 -79t-64.5 -31q-20 0 -34 7t-25.5 15t-23 15t-24.5 7q-18 0 -30 -13.5t-16 -36.5l-71 42q5 48 29.5 78.5t64.5 30.5q19 0 33.5 -6.5t26.5 -15t23 -15t25 -6.5q18 0 29.5 13.5t15.5 36.5z" />
    <glyph glyph-name="hungarumlaut.lc" horiz-adv-x="333" 
d="M221 601h-87l73 131q33 34 73 34q21 0 32 -10t16 -24zM49 601h-87l73 131q33 34 73 34q21 0 32 -10t16 -24z" />
    <glyph glyph-name="tonos.lc" horiz-adv-x="296" 
d="M180 600h-94l40 144q10 15 31.5 24.5t44.5 9.5q20 0 37.5 -8t25.5 -26z" />
    <glyph glyph-name="diedot.lc" horiz-adv-x="366" 
d="M259 671q0 -29 -22.5 -50t-54.5 -21t-54.5 21t-22.5 50t22.5 50t54.5 21t54.5 -21t22.5 -50z" />
    <glyph glyph-name="hungarumlaut.uc" horiz-adv-x="337" 
d="M221 786h-87l73 131q33 34 73 34q21 0 32 -10t16 -24zM49 786h-87l73 131q33 34 73 34q21 0 32 -10t16 -24z" />
    <glyph glyph-name="tonos.uc" horiz-adv-x="184" 
d="M91 524h-91v176q11 16 30 24.5t39 8.5t37 -8t28 -25z" />
    <glyph glyph-name="diedot.uc" horiz-adv-x="393" 
d="M292 856q0 -29 -22.5 -50t-54.5 -21t-54.5 21t-22.5 50t22.5 50t54.5 21t54.5 -21t22.5 -50z" />
    <glyph glyph-name="ascendercaron" horiz-adv-x="361" 
d="M312 530h-89v168q12 17 29.5 25.5t37.5 8.5t37.5 -8.5t27.5 -25.5z" />
    <glyph glyph-name="commaaccent" horiz-adv-x="361" 
d="M169 -215h-109l46 138q17 18 40 26t46 8t41.5 -9.5t23.5 -24.5z" />
    <glyph glyph-name="commaturn" horiz-adv-x="361" 
d="M255 628q-17 -18 -40 -26t-46 -8t-41 9.5t-23 24.5l87 138h109z" />
    <glyph glyph-name="undercommaaccent" horiz-adv-x="361" 
d="M169 -215h-109l46 138q17 18 40 26t46 8t41.5 -9.5t23.5 -24.5z" />
    </font>
</defs>
</svg>
